<svg width="463" height="42" viewBox="0 0 463 42" fill="none" xmlns="http://www.w3.org/2000/svg">
<g filter="url(#filter0_g_176_235)">
<mask id="path-1-outside-1_176_235" maskUnits="userSpaceOnUse" x="1" y="1" width="461" height="40" fill="black">
<rect fill="white" x="1" y="1" width="461" height="40"/>
<path d="M2.75213 2.63636H13.6364L22.8693 25.1506H23.2955L32.5284 2.63636H43.4126V39H34.8544V16.6634H34.5526L25.8168 38.7692H20.348L11.6122 16.5391H11.3104V39H2.75213V2.63636ZM48.8947 39V2.63636H74.2498V9.77415H57.6838V17.2315H72.9537V24.3871H57.6838V31.8622H74.2498V39H48.8947ZM93.1951 39H79.7541V2.63636H93.1774C96.8824 2.63636 100.073 3.36435 102.748 4.82031C105.435 6.26444 107.506 8.34777 108.962 11.0703C110.418 13.781 111.146 17.0244 111.146 20.8004C111.146 24.5883 110.418 27.8435 108.962 30.5661C107.518 33.2886 105.452 35.3778 102.765 36.8338C100.078 38.2779 96.8883 39 93.1951 39ZM88.5431 31.5071H92.8578C94.8938 31.5071 96.6161 31.1638 98.0247 30.4773C99.4451 29.7789 100.516 28.6484 101.238 27.0859C101.972 25.5116 102.339 23.4164 102.339 20.8004C102.339 18.1844 101.972 16.1011 101.238 14.5504C100.505 12.9879 99.4215 11.8634 97.9892 11.1768C96.5687 10.4785 94.8168 10.1293 92.7335 10.1293H88.5431V31.5071ZM125.067 2.63636V39H116.278V2.63636H125.067ZM138.45 39H129.004L141.273 2.63636H152.974L165.243 39H155.797L147.257 11.7983H146.973L138.45 39ZM137.189 24.6889H156.934V31.3651H137.189V24.6889ZM214.222 20.8182C214.222 24.8191 213.453 28.2105 211.914 30.9922C210.375 33.7739 208.292 35.8868 205.664 37.331C203.048 38.7751 200.112 39.4972 196.857 39.4972C193.59 39.4972 190.649 38.7692 188.033 37.3132C185.417 35.8572 183.339 33.7443 181.8 30.9744C180.273 28.1927 179.51 24.8073 179.51 20.8182C179.51 16.8172 180.273 13.4259 181.8 10.6442C183.339 7.86245 185.417 5.74953 188.033 4.3054C190.649 2.86127 193.59 2.1392 196.857 2.1392C200.112 2.1392 203.048 2.86127 205.664 4.3054C208.292 5.74953 210.375 7.86245 211.914 10.6442C213.453 13.4259 214.222 16.8172 214.222 20.8182ZM205.238 20.8182C205.238 18.4508 204.901 16.4503 204.226 14.8168C203.563 13.1832 202.604 11.9463 201.349 11.1058C200.107 10.2654 198.609 9.84517 196.857 9.84517C195.117 9.84517 193.62 10.2654 192.365 11.1058C191.11 11.9463 190.146 13.1832 189.471 14.8168C188.808 16.4503 188.477 18.4508 188.477 20.8182C188.477 23.1856 188.808 25.1861 189.471 26.8196C190.146 28.4531 191.11 29.6901 192.365 30.5305C193.62 31.371 195.117 31.7912 196.857 31.7912C198.609 31.7912 200.107 31.371 201.349 30.5305C202.604 29.6901 203.563 28.4531 204.226 26.8196C204.901 25.1861 205.238 23.1856 205.238 20.8182ZM241.353 2.63636H250.124V26.0916C250.124 28.8023 249.479 31.1638 248.189 33.1761C246.899 35.1766 245.099 36.7273 242.791 37.8281C240.483 38.9171 237.802 39.4616 234.748 39.4616C231.658 39.4616 228.96 38.9171 226.651 37.8281C224.343 36.7273 222.55 35.1766 221.271 33.1761C219.993 31.1638 219.354 28.8023 219.354 26.0916V2.63636H228.143V25.3281C228.143 26.5829 228.415 27.7015 228.96 28.6839C229.516 29.6664 230.291 30.4358 231.286 30.9922C232.28 31.5485 233.434 31.8267 234.748 31.8267C236.062 31.8267 237.21 31.5485 238.192 30.9922C239.187 30.4358 239.962 29.6664 240.518 28.6839C241.075 27.7015 241.353 26.5829 241.353 25.3281V2.63636ZM254.443 9.77415V2.63636H285.178V9.77415H274.152V39H265.487V9.77415H254.443ZM289.471 39V2.63636H304.492C307.215 2.63636 309.564 3.1276 311.541 4.11008C313.53 5.08073 315.063 6.47751 316.14 8.30043C317.217 10.1115 317.756 12.2599 317.756 14.7457C317.756 17.267 317.205 19.4096 316.104 21.1733C315.004 22.9252 313.441 24.2628 311.417 25.1861C309.393 26.0975 306.996 26.5533 304.226 26.5533H294.727V19.6286H302.592C303.918 19.6286 305.025 19.4569 305.913 19.1136C306.812 18.7585 307.493 18.2259 307.955 17.5156C308.416 16.7936 308.647 15.8703 308.647 14.7457C308.647 13.6212 308.416 12.692 307.955 11.9581C307.493 11.2124 306.812 10.656 305.913 10.2891C305.013 9.91027 303.906 9.72088 302.592 9.72088H298.26V39H289.471ZM309.943 22.3807L318.999 39H309.411L300.533 22.3807H309.943ZM322.576 39V2.63636H347.931V9.77415H331.365V17.2315H346.635V24.3871H331.365V31.8622H347.931V39H322.576ZM361.301 39H351.855L364.125 2.63636H375.826L388.095 39H378.649L370.108 11.7983H369.824L361.301 39ZM360.041 24.6889H379.785V31.3651H360.041V24.6889ZM423.309 15.8111H414.431C414.313 14.8996 414.07 14.0769 413.703 13.343C413.336 12.6091 412.851 11.9818 412.247 11.4609C411.643 10.9401 410.927 10.5436 410.099 10.2713C409.282 9.98721 408.376 9.84517 407.382 9.84517C405.618 9.84517 404.097 10.2772 402.819 11.1413C401.552 12.0054 400.576 13.2543 399.889 14.8878C399.214 16.5213 398.877 18.4981 398.877 20.8182C398.877 23.233 399.22 25.2571 399.907 26.8906C400.605 28.5123 401.582 29.7375 402.836 30.5661C404.103 31.3828 405.6 31.7912 407.329 31.7912C408.299 31.7912 409.181 31.6669 409.974 31.4183C410.779 31.1697 411.483 30.8087 412.087 30.3352C412.703 29.8499 413.206 29.264 413.596 28.5774C413.999 27.879 414.277 27.0919 414.431 26.2159L423.309 26.2692C423.155 27.879 422.687 29.4652 421.906 31.0277C421.137 32.5902 420.077 34.0166 418.728 35.3068C417.378 36.5852 415.733 37.6032 413.792 38.3608C411.862 39.1184 409.649 39.4972 407.151 39.4972C403.86 39.4972 400.913 38.7751 398.309 37.331C395.716 35.875 393.669 33.7562 392.165 30.9744C390.662 28.1927 389.91 24.8073 389.91 20.8182C389.91 16.8172 390.674 13.4259 392.201 10.6442C393.728 7.86245 395.793 5.74953 398.398 4.3054C401.002 2.86127 403.92 2.1392 407.151 2.1392C409.353 2.1392 411.389 2.44697 413.259 3.0625C415.129 3.66619 416.775 4.55398 418.195 5.72585C419.616 6.88589 420.77 8.31226 421.657 10.005C422.545 11.6977 423.096 13.633 423.309 15.8111ZM428.338 39V2.63636H437.127V17.2315H451.456V2.63636H460.227V39H451.456V24.3871H437.127V39H428.338Z"/>
</mask>
<path d="M2.75213 2.63636H13.6364L22.8693 25.1506H23.2955L32.5284 2.63636H43.4126V39H34.8544V16.6634H34.5526L25.8168 38.7692H20.348L11.6122 16.5391H11.3104V39H2.75213V2.63636ZM48.8947 39V2.63636H74.2498V9.77415H57.6838V17.2315H72.9537V24.3871H57.6838V31.8622H74.2498V39H48.8947ZM93.1951 39H79.7541V2.63636H93.1774C96.8824 2.63636 100.073 3.36435 102.748 4.82031C105.435 6.26444 107.506 8.34777 108.962 11.0703C110.418 13.781 111.146 17.0244 111.146 20.8004C111.146 24.5883 110.418 27.8435 108.962 30.5661C107.518 33.2886 105.452 35.3778 102.765 36.8338C100.078 38.2779 96.8883 39 93.1951 39ZM88.5431 31.5071H92.8578C94.8938 31.5071 96.6161 31.1638 98.0247 30.4773C99.4451 29.7789 100.516 28.6484 101.238 27.0859C101.972 25.5116 102.339 23.4164 102.339 20.8004C102.339 18.1844 101.972 16.1011 101.238 14.5504C100.505 12.9879 99.4215 11.8634 97.9892 11.1768C96.5687 10.4785 94.8168 10.1293 92.7335 10.1293H88.5431V31.5071ZM125.067 2.63636V39H116.278V2.63636H125.067ZM138.45 39H129.004L141.273 2.63636H152.974L165.243 39H155.797L147.257 11.7983H146.973L138.45 39ZM137.189 24.6889H156.934V31.3651H137.189V24.6889ZM214.222 20.8182C214.222 24.8191 213.453 28.2105 211.914 30.9922C210.375 33.7739 208.292 35.8868 205.664 37.331C203.048 38.7751 200.112 39.4972 196.857 39.4972C193.59 39.4972 190.649 38.7692 188.033 37.3132C185.417 35.8572 183.339 33.7443 181.8 30.9744C180.273 28.1927 179.51 24.8073 179.51 20.8182C179.51 16.8172 180.273 13.4259 181.8 10.6442C183.339 7.86245 185.417 5.74953 188.033 4.3054C190.649 2.86127 193.59 2.1392 196.857 2.1392C200.112 2.1392 203.048 2.86127 205.664 4.3054C208.292 5.74953 210.375 7.86245 211.914 10.6442C213.453 13.4259 214.222 16.8172 214.222 20.8182ZM205.238 20.8182C205.238 18.4508 204.901 16.4503 204.226 14.8168C203.563 13.1832 202.604 11.9463 201.349 11.1058C200.107 10.2654 198.609 9.84517 196.857 9.84517C195.117 9.84517 193.62 10.2654 192.365 11.1058C191.11 11.9463 190.146 13.1832 189.471 14.8168C188.808 16.4503 188.477 18.4508 188.477 20.8182C188.477 23.1856 188.808 25.1861 189.471 26.8196C190.146 28.4531 191.11 29.6901 192.365 30.5305C193.62 31.371 195.117 31.7912 196.857 31.7912C198.609 31.7912 200.107 31.371 201.349 30.5305C202.604 29.6901 203.563 28.4531 204.226 26.8196C204.901 25.1861 205.238 23.1856 205.238 20.8182ZM241.353 2.63636H250.124V26.0916C250.124 28.8023 249.479 31.1638 248.189 33.1761C246.899 35.1766 245.099 36.7273 242.791 37.8281C240.483 38.9171 237.802 39.4616 234.748 39.4616C231.658 39.4616 228.96 38.9171 226.651 37.8281C224.343 36.7273 222.55 35.1766 221.271 33.1761C219.993 31.1638 219.354 28.8023 219.354 26.0916V2.63636H228.143V25.3281C228.143 26.5829 228.415 27.7015 228.96 28.6839C229.516 29.6664 230.291 30.4358 231.286 30.9922C232.28 31.5485 233.434 31.8267 234.748 31.8267C236.062 31.8267 237.21 31.5485 238.192 30.9922C239.187 30.4358 239.962 29.6664 240.518 28.6839C241.075 27.7015 241.353 26.5829 241.353 25.3281V2.63636ZM254.443 9.77415V2.63636H285.178V9.77415H274.152V39H265.487V9.77415H254.443ZM289.471 39V2.63636H304.492C307.215 2.63636 309.564 3.1276 311.541 4.11008C313.53 5.08073 315.063 6.47751 316.14 8.30043C317.217 10.1115 317.756 12.2599 317.756 14.7457C317.756 17.267 317.205 19.4096 316.104 21.1733C315.004 22.9252 313.441 24.2628 311.417 25.1861C309.393 26.0975 306.996 26.5533 304.226 26.5533H294.727V19.6286H302.592C303.918 19.6286 305.025 19.4569 305.913 19.1136C306.812 18.7585 307.493 18.2259 307.955 17.5156C308.416 16.7936 308.647 15.8703 308.647 14.7457C308.647 13.6212 308.416 12.692 307.955 11.9581C307.493 11.2124 306.812 10.656 305.913 10.2891C305.013 9.91027 303.906 9.72088 302.592 9.72088H298.26V39H289.471ZM309.943 22.3807L318.999 39H309.411L300.533 22.3807H309.943ZM322.576 39V2.63636H347.931V9.77415H331.365V17.2315H346.635V24.3871H331.365V31.8622H347.931V39H322.576ZM361.301 39H351.855L364.125 2.63636H375.826L388.095 39H378.649L370.108 11.7983H369.824L361.301 39ZM360.041 24.6889H379.785V31.3651H360.041V24.6889ZM423.309 15.8111H414.431C414.313 14.8996 414.07 14.0769 413.703 13.343C413.336 12.6091 412.851 11.9818 412.247 11.4609C411.643 10.9401 410.927 10.5436 410.099 10.2713C409.282 9.98721 408.376 9.84517 407.382 9.84517C405.618 9.84517 404.097 10.2772 402.819 11.1413C401.552 12.0054 400.576 13.2543 399.889 14.8878C399.214 16.5213 398.877 18.4981 398.877 20.8182C398.877 23.233 399.22 25.2571 399.907 26.8906C400.605 28.5123 401.582 29.7375 402.836 30.5661C404.103 31.3828 405.6 31.7912 407.329 31.7912C408.299 31.7912 409.181 31.6669 409.974 31.4183C410.779 31.1697 411.483 30.8087 412.087 30.3352C412.703 29.8499 413.206 29.264 413.596 28.5774C413.999 27.879 414.277 27.0919 414.431 26.2159L423.309 26.2692C423.155 27.879 422.687 29.4652 421.906 31.0277C421.137 32.5902 420.077 34.0166 418.728 35.3068C417.378 36.5852 415.733 37.6032 413.792 38.3608C411.862 39.1184 409.649 39.4972 407.151 39.4972C403.86 39.4972 400.913 38.7751 398.309 37.331C395.716 35.875 393.669 33.7562 392.165 30.9744C390.662 28.1927 389.91 24.8073 389.91 20.8182C389.91 16.8172 390.674 13.4259 392.201 10.6442C393.728 7.86245 395.793 5.74953 398.398 4.3054C401.002 2.86127 403.92 2.1392 407.151 2.1392C409.353 2.1392 411.389 2.44697 413.259 3.0625C415.129 3.66619 416.775 4.55398 418.195 5.72585C419.616 6.88589 420.77 8.31226 421.657 10.005C422.545 11.6977 423.096 13.633 423.309 15.8111ZM428.338 39V2.63636H437.127V17.2315H451.456V2.63636H460.227V39H451.456V24.3871H437.127V39H428.338Z" fill="black"/>
<path d="M2.75213 2.63636V1.63636H1.75213V2.63636H2.75213ZM13.6364 2.63636L14.5616 2.25693L14.3071 1.63636H13.6364V2.63636ZM22.8693 25.1506L21.9441 25.53L22.1986 26.1506H22.8693V25.1506ZM23.2955 25.1506V26.1506H23.9662L24.2207 25.53L23.2955 25.1506ZM32.5284 2.63636V1.63636H31.8577L31.6032 2.25693L32.5284 2.63636ZM43.4126 2.63636H44.4126V1.63636H43.4126V2.63636ZM43.4126 39V40H44.4126V39H43.4126ZM34.8544 39H33.8544V40H34.8544V39ZM34.8544 16.6634H35.8544V15.6634H34.8544V16.6634ZM34.5526 16.6634V15.6634H33.8725L33.6225 16.2958L34.5526 16.6634ZM25.8168 38.7692V39.7692H26.4968L26.7468 39.1367L25.8168 38.7692ZM20.348 38.7692L19.4173 39.1349L19.6665 39.7692H20.348V38.7692ZM11.6122 16.5391L12.5429 16.1733L12.2937 15.5391H11.6122V16.5391ZM11.3104 16.5391V15.5391H10.3104V16.5391H11.3104ZM11.3104 39V40H12.3104V39H11.3104ZM2.75213 39H1.75213V40H2.75213V39ZM2.75213 2.63636V3.63636H13.6364V2.63636V1.63636H2.75213V2.63636ZM13.6364 2.63636L12.7111 3.01579L21.9441 25.53L22.8693 25.1506L23.7945 24.7711L14.5616 2.25693L13.6364 2.63636ZM22.8693 25.1506V26.1506H23.2955V25.1506V24.1506H22.8693V25.1506ZM23.2955 25.1506L24.2207 25.53L33.4536 3.01579L32.5284 2.63636L31.6032 2.25693L22.3702 24.7711L23.2955 25.1506ZM32.5284 2.63636V3.63636H43.4126V2.63636V1.63636H32.5284V2.63636ZM43.4126 2.63636H42.4126V39H43.4126H44.4126V2.63636H43.4126ZM43.4126 39V38H34.8544V39V40H43.4126V39ZM34.8544 39H35.8544V16.6634H34.8544H33.8544V39H34.8544ZM34.8544 16.6634V15.6634H34.5526V16.6634V17.6634H34.8544V16.6634ZM34.5526 16.6634L33.6225 16.2958L24.8867 38.4017L25.8168 38.7692L26.7468 39.1367L35.4826 17.0309L34.5526 16.6634ZM25.8168 38.7692V37.7692H20.348V38.7692V39.7692H25.8168V38.7692ZM20.348 38.7692L21.2787 38.4034L12.5429 16.1733L11.6122 16.5391L10.6815 16.9048L19.4173 39.1349L20.348 38.7692ZM11.6122 16.5391V15.5391H11.3104V16.5391V17.5391H11.6122V16.5391ZM11.3104 16.5391H10.3104V39H11.3104H12.3104V16.5391H11.3104ZM11.3104 39V38H2.75213V39V40H11.3104V39ZM2.75213 39H3.75213V2.63636H2.75213H1.75213V39H2.75213ZM48.8947 39H47.8947V40H48.8947V39ZM48.8947 2.63636V1.63636H47.8947V2.63636H48.8947ZM74.2498 2.63636H75.2498V1.63636H74.2498V2.63636ZM74.2498 9.77415V10.7741H75.2498V9.77415H74.2498ZM57.6838 9.77415V8.77415H56.6838V9.77415H57.6838ZM57.6838 17.2315H56.6838V18.2315H57.6838V17.2315ZM72.9537 17.2315H73.9537V16.2315H72.9537V17.2315ZM72.9537 24.3871V25.3871H73.9537V24.3871H72.9537ZM57.6838 24.3871V23.3871H56.6838V24.3871H57.6838ZM57.6838 31.8622H56.6838V32.8622H57.6838V31.8622ZM74.2498 31.8622H75.2498V30.8622H74.2498V31.8622ZM74.2498 39V40H75.2498V39H74.2498ZM48.8947 39H49.8947V2.63636H48.8947H47.8947V39H48.8947ZM48.8947 2.63636V3.63636H74.2498V2.63636V1.63636H48.8947V2.63636ZM74.2498 2.63636H73.2498V9.77415H74.2498H75.2498V2.63636H74.2498ZM74.2498 9.77415V8.77415H57.6838V9.77415V10.7741H74.2498V9.77415ZM57.6838 9.77415H56.6838V17.2315H57.6838H58.6838V9.77415H57.6838ZM57.6838 17.2315V18.2315H72.9537V17.2315V16.2315H57.6838V17.2315ZM72.9537 17.2315H71.9537V24.3871H72.9537H73.9537V17.2315H72.9537ZM72.9537 24.3871V23.3871H57.6838V24.3871V25.3871H72.9537V24.3871ZM57.6838 24.3871H56.6838V31.8622H57.6838H58.6838V24.3871H57.6838ZM57.6838 31.8622V32.8622H74.2498V31.8622V30.8622H57.6838V31.8622ZM74.2498 31.8622H73.2498V39H74.2498H75.2498V31.8622H74.2498ZM74.2498 39V38H48.8947V39V40H74.2498V39ZM79.7541 39H78.7541V40H79.7541V39ZM79.7541 2.63636V1.63636H78.7541V2.63636H79.7541ZM102.748 4.82031L102.27 5.69867L102.274 5.70116L102.748 4.82031ZM108.962 11.0703L108.08 11.5419L108.081 11.5435L108.962 11.0703ZM108.962 30.5661L108.08 30.0945L108.079 30.0975L108.962 30.5661ZM102.765 36.8338L103.239 37.7147L103.242 37.713L102.765 36.8338ZM88.5431 31.5071H87.5431V32.5071H88.5431V31.5071ZM98.0247 30.4773L98.4628 31.3762L98.4659 31.3747L98.0247 30.4773ZM101.238 27.0859L100.332 26.6634L100.331 26.6664L101.238 27.0859ZM101.238 14.5504L100.333 14.9756L100.335 14.9782L101.238 14.5504ZM97.9892 11.1768L97.5479 12.0743L97.5569 12.0786L97.9892 11.1768ZM88.5431 10.1293V9.12926H87.5431V10.1293H88.5431ZM93.1951 39V38H79.7541V39V40H93.1951V39ZM79.7541 39H80.7541V2.63636H79.7541H78.7541V39H79.7541ZM79.7541 2.63636V3.63636H93.1774V2.63636V1.63636H79.7541V2.63636ZM93.1774 2.63636V3.63636C96.7513 3.63636 99.7697 4.33806 102.27 5.69865L102.748 4.82031L103.226 3.94197C100.375 2.39063 97.0135 1.63636 93.1774 1.63636V2.63636ZM102.748 4.82031L102.274 5.70116C104.786 7.05086 106.716 8.99078 108.08 11.5419L108.962 11.0703L109.844 10.5987C108.296 7.70477 106.084 5.47802 103.221 3.93947L102.748 4.82031ZM108.962 11.0703L108.081 11.5435C109.443 14.0792 110.146 17.1525 110.146 20.8004H111.146H112.146C112.146 16.8963 111.393 13.4828 109.843 10.5971L108.962 11.0703ZM111.146 20.8004H110.146C110.146 24.4607 109.443 27.5464 108.08 30.0945L108.962 30.5661L109.844 31.0376C111.393 28.1407 112.146 24.716 112.146 20.8004H111.146ZM108.962 30.5661L108.079 30.0975C106.726 32.6476 104.801 34.5933 102.289 35.9546L102.765 36.8338L103.242 37.713C106.104 36.1624 108.31 33.9296 109.846 31.0346L108.962 30.5661ZM102.765 36.8338L102.292 35.953C99.7782 37.304 96.7576 38 93.1951 38V39V40C97.019 40 100.379 39.2519 103.239 37.7147L102.765 36.8338ZM88.5431 31.5071V32.5071H92.8578V31.5071V30.5071H88.5431V31.5071ZM92.8578 31.5071V32.5071C95.0018 32.5071 96.8832 32.1461 98.4628 31.3762L98.0247 30.4773L97.5866 29.5784C96.3489 30.1816 94.7857 30.5071 92.8578 30.5071V31.5071ZM98.0247 30.4773L98.4659 31.3747C100.11 30.5661 101.337 29.2565 102.146 27.5054L101.238 27.0859L100.331 26.6664C99.6958 28.0403 98.7798 28.9917 97.5835 29.5799L98.0247 30.4773ZM101.238 27.0859L102.145 27.5084C102.964 25.752 103.339 23.4952 103.339 20.8004H102.339H101.339C101.339 23.3377 100.981 25.2712 100.332 26.6634L101.238 27.0859ZM102.339 20.8004H103.339C103.339 18.1069 102.964 15.8587 102.142 14.1226L101.238 14.5504L100.335 14.9782C100.981 16.3435 101.339 18.262 101.339 20.8004H102.339ZM101.238 14.5504L102.144 14.1253C101.321 12.3736 100.08 11.0702 98.4214 10.2751L97.9892 11.1768L97.5569 12.0786C98.7628 12.6566 99.6883 13.6023 100.333 14.9756L101.238 14.5504ZM97.9892 11.1768L98.4304 10.2794C96.8363 9.4957 94.9234 9.12926 92.7335 9.12926V10.1293V11.1293C94.7102 11.1293 96.3011 11.4612 97.548 12.0742L97.9892 11.1768ZM92.7335 10.1293V9.12926H88.5431V10.1293V11.1293H92.7335V10.1293ZM88.5431 10.1293H87.5431V31.5071H88.5431H89.5431V10.1293H88.5431ZM125.067 2.63636H126.067V1.63636H125.067V2.63636ZM125.067 39V40H126.067V39H125.067ZM116.278 39H115.278V40H116.278V39ZM116.278 2.63636V1.63636H115.278V2.63636H116.278ZM125.067 2.63636H124.067V39H125.067H126.067V2.63636H125.067ZM125.067 39V38H116.278V39V40H125.067V39ZM116.278 39H117.278V2.63636H116.278H115.278V39H116.278ZM116.278 2.63636V3.63636H125.067V2.63636V1.63636H116.278V2.63636ZM138.45 39V40H139.185L139.404 39.299L138.45 39ZM129.004 39L128.056 38.6803L127.611 40H129.004V39ZM141.273 2.63636V1.63636H140.555L140.326 2.31667L141.273 2.63636ZM152.974 2.63636L153.922 2.31667L153.692 1.63636H152.974V2.63636ZM165.243 39V40H166.636L166.191 38.6803L165.243 39ZM155.797 39L154.843 39.2996L155.063 40H155.797V39ZM147.257 11.7983L148.211 11.4987L147.991 10.7983H147.257V11.7983ZM146.973 11.7983V10.7983H146.238L146.018 11.4993L146.973 11.7983ZM137.189 24.6889V23.6889H136.189V24.6889H137.189ZM156.934 24.6889H157.934V23.6889H156.934V24.6889ZM156.934 31.3651V32.3651H157.934V31.3651H156.934ZM137.189 31.3651H136.189V32.3651H137.189V31.3651ZM138.45 39V38H129.004V39V40H138.45V39ZM129.004 39L129.951 39.3197L142.221 2.95606L141.273 2.63636L140.326 2.31667L128.056 38.6803L129.004 39ZM141.273 2.63636V3.63636H152.974V2.63636V1.63636H141.273V2.63636ZM152.974 2.63636L152.027 2.95606L164.296 39.3197L165.243 39L166.191 38.6803L153.922 2.31667L152.974 2.63636ZM165.243 39V38H155.797V39V40H165.243V39ZM155.797 39L156.751 38.7004L148.211 11.4987L147.257 11.7983L146.303 12.0978L154.843 39.2996L155.797 39ZM147.257 11.7983V10.7983H146.973V11.7983V12.7983H147.257V11.7983ZM146.973 11.7983L146.018 11.4993L137.496 38.701L138.45 39L139.404 39.299L147.927 12.0973L146.973 11.7983ZM137.189 24.6889V25.6889H156.934V24.6889V23.6889H137.189V24.6889ZM156.934 24.6889H155.934V31.3651H156.934H157.934V24.6889H156.934ZM156.934 31.3651V30.3651H137.189V31.3651V32.3651H156.934V31.3651ZM137.189 31.3651H138.189V24.6889H137.189H136.189V31.3651H137.189ZM211.914 30.9922L211.039 30.5081L211.914 30.9922ZM205.664 37.331L205.182 36.4546L205.181 36.4555L205.664 37.331ZM188.033 37.3132L188.519 36.4394L188.033 37.3132ZM181.8 30.9744L180.924 31.4556L180.926 31.4601L181.8 30.9744ZM181.8 10.6442L180.925 10.1601L180.924 10.163L181.8 10.6442ZM188.033 4.3054L188.516 5.18086L188.033 4.3054ZM205.664 4.3054L205.181 5.18086L205.182 5.18178L205.664 4.3054ZM211.914 10.6442L211.039 11.1282L211.914 10.6442ZM204.226 14.8168L203.299 15.1928L203.302 15.1985L204.226 14.8168ZM201.349 11.1058L200.789 11.9342L200.793 11.9367L201.349 11.1058ZM192.365 11.1058L192.922 11.9367L192.365 11.1058ZM189.471 14.8168L188.547 14.435L188.544 14.4407L189.471 14.8168ZM189.471 26.8196L188.544 27.1956L188.547 27.2014L189.471 26.8196ZM192.365 30.5305L192.922 29.6997L192.365 30.5305ZM201.349 30.5305L200.793 29.6997L200.789 29.7021L201.349 30.5305ZM204.226 26.8196L203.302 26.4378L203.299 26.4436L204.226 26.8196ZM214.222 20.8182H213.222C213.222 24.6928 212.477 27.9081 211.039 30.5081L211.914 30.9922L212.789 31.4762C214.428 28.5128 215.222 24.9455 215.222 20.8182H214.222ZM211.914 30.9922L211.039 30.5081C209.586 33.1349 207.635 35.107 205.182 36.4546L205.664 37.331L206.146 38.2073C208.949 36.6667 211.165 34.4129 212.789 31.4762L211.914 30.9922ZM205.664 37.331L205.181 36.4555C202.726 37.8108 199.959 38.4972 196.857 38.4972V39.4972V40.4972C200.266 40.4972 203.37 39.7394 206.147 38.2064L205.664 37.331ZM196.857 39.4972V38.4972C193.744 38.4972 190.973 37.8052 188.519 36.4394L188.033 37.3132L187.546 38.187C190.324 39.7332 193.436 40.4972 196.857 40.4972V39.4972ZM188.033 37.3132L188.519 36.4394C186.076 35.0795 184.128 33.1056 182.675 30.4888L181.8 30.9744L180.926 31.4601C182.55 34.383 184.758 36.635 187.546 38.187L188.033 37.3132ZM181.8 30.9744L182.677 30.4932C181.249 27.8922 180.51 24.6815 180.51 20.8182H179.51H178.51C178.51 24.933 179.298 28.4932 180.924 31.4556L181.8 30.9744ZM179.51 20.8182H180.51C180.51 16.9424 181.249 13.726 182.677 11.1254L181.8 10.6442L180.924 10.163C179.297 13.1258 178.51 16.6921 178.51 20.8182H179.51ZM181.8 10.6442L182.675 11.1282C184.129 8.50026 186.075 6.52811 188.516 5.18086L188.033 4.3054L187.549 3.42993C184.758 4.97094 182.549 7.22464 180.925 10.1601L181.8 10.6442ZM188.033 4.3054L188.516 5.18086C190.97 3.8259 193.743 3.1392 196.857 3.1392V2.1392V1.1392C193.437 1.1392 190.327 1.89664 187.549 3.42993L188.033 4.3054ZM196.857 2.1392V3.1392C199.959 3.1392 202.726 3.8256 205.181 5.18086L205.664 4.3054L206.147 3.42993C203.37 1.89694 200.266 1.1392 196.857 1.1392V2.1392ZM205.664 4.3054L205.182 5.18178C207.635 6.52936 209.586 8.50141 211.039 11.1282L211.914 10.6442L212.789 10.1601C211.165 7.22349 208.949 4.9697 206.146 3.42901L205.664 4.3054ZM211.914 10.6442L211.039 11.1282C212.477 13.7282 213.222 16.9436 213.222 20.8182H214.222H215.222C215.222 16.6909 214.428 13.1236 212.789 10.1601L211.914 10.6442ZM205.238 20.8182H206.238C206.238 18.3617 205.889 16.2231 205.15 14.435L204.226 14.8168L203.302 15.1985C203.912 16.6774 204.238 18.5398 204.238 20.8182H205.238ZM204.226 14.8168L205.152 14.4407C204.427 12.6538 203.353 11.2443 201.906 10.275L201.349 11.1058L200.793 11.9367C201.855 12.6482 202.699 13.7127 203.299 15.1928L204.226 14.8168ZM201.349 11.1058L201.91 10.2774C200.475 9.30737 198.774 8.84517 196.857 8.84517V9.84517V10.8452C198.444 10.8452 199.738 11.2234 200.789 11.9342L201.349 11.1058ZM196.857 9.84517V8.84517C194.95 8.84517 193.252 9.30819 191.809 10.275L192.365 11.1058L192.922 11.9367C193.988 11.2226 195.284 10.8452 196.857 10.8452V9.84517ZM192.365 11.1058L191.809 10.275C190.363 11.2432 189.284 12.6506 188.547 14.435L189.471 14.8168L190.395 15.1985C191.008 13.7159 191.858 12.6493 192.922 11.9367L192.365 11.1058ZM189.471 14.8168L188.544 14.4407C187.819 16.227 187.477 18.3635 187.477 20.8182H188.477H189.477C189.477 18.538 189.797 16.6735 190.397 15.1928L189.471 14.8168ZM188.477 20.8182H187.477C187.477 23.2729 187.819 25.4093 188.544 27.1956L189.471 26.8196L190.397 26.4436C189.797 24.9628 189.477 23.0983 189.477 20.8182H188.477ZM189.471 26.8196L188.547 27.2014C189.284 28.9858 190.363 30.3932 191.809 31.3614L192.365 30.5305L192.922 29.6997C191.858 28.987 191.008 27.9204 190.395 26.4378L189.471 26.8196ZM192.365 30.5305L191.809 31.3614C193.252 32.3282 194.95 32.7912 196.857 32.7912V31.7912V30.7912C195.284 30.7912 193.988 30.4138 192.922 29.6997L192.365 30.5305ZM196.857 31.7912V32.7912C198.774 32.7912 200.475 32.329 201.91 31.3589L201.349 30.5305L200.789 29.7021C199.738 30.413 198.444 30.7912 196.857 30.7912V31.7912ZM201.349 30.5305L201.906 31.3614C203.353 30.3921 204.427 28.9826 205.152 27.1956L204.226 26.8196L203.299 26.4436C202.699 27.9237 201.855 28.9881 200.793 29.6997L201.349 30.5305ZM204.226 26.8196L205.15 27.2014C205.889 25.4132 206.238 23.2746 206.238 20.8182H205.238H204.238C204.238 23.0966 203.912 24.9589 203.302 26.4378L204.226 26.8196ZM241.353 2.63636V1.63636H240.353V2.63636H241.353ZM250.124 2.63636H251.124V1.63636H250.124V2.63636ZM248.189 33.1761L249.029 33.7182L249.031 33.7159L248.189 33.1761ZM242.791 37.8281L243.218 38.7325L243.222 38.7307L242.791 37.8281ZM226.651 37.8281L226.221 38.7307L226.225 38.7325L226.651 37.8281ZM221.271 33.1761L220.427 33.7124L220.429 33.7146L221.271 33.1761ZM219.354 2.63636V1.63636H218.354V2.63636H219.354ZM228.143 2.63636H229.143V1.63636H228.143V2.63636ZM228.96 28.6839L228.085 29.1687L228.089 29.1767L228.96 28.6839ZM231.286 30.9922L231.774 30.1195L231.286 30.9922ZM238.192 30.9922L237.704 30.1195L237.7 30.122L238.192 30.9922ZM241.353 2.63636V3.63636H250.124V2.63636V1.63636H241.353V2.63636ZM250.124 2.63636H249.124V26.0916H250.124H251.124V2.63636H250.124ZM250.124 26.0916H249.124C249.124 28.6373 248.521 30.806 247.347 32.6364L248.189 33.1761L249.031 33.7159C250.438 31.5217 251.124 28.9673 251.124 26.0916H250.124ZM248.189 33.1761L247.349 32.6341C246.166 34.4671 244.514 35.8983 242.361 36.9255L242.791 37.8281L243.222 38.7307C245.684 37.5562 247.631 35.8861 249.029 33.7182L248.189 33.1761ZM242.791 37.8281L242.365 36.9237C240.213 37.9386 237.683 38.4616 234.748 38.4616V39.4616V40.4616C237.921 40.4616 240.753 39.8957 243.218 38.7325L242.791 37.8281ZM234.748 39.4616V38.4616C231.775 38.4616 229.228 37.9379 227.078 36.9237L226.651 37.8281L226.225 38.7325C228.691 39.8963 231.541 40.4616 234.748 40.4616V39.4616ZM226.651 37.8281L227.082 36.9255C224.929 35.8987 223.284 34.4684 222.114 32.6376L221.271 33.1761L220.429 33.7146C221.816 35.8848 223.757 37.5559 226.221 38.7307L226.651 37.8281ZM221.271 33.1761L222.115 32.6399C220.952 30.8091 220.354 28.6391 220.354 26.0916H219.354H218.354C218.354 28.9655 219.034 31.5186 220.427 33.7124L221.271 33.1761ZM219.354 26.0916H220.354V2.63636H219.354H218.354V26.0916H219.354ZM219.354 2.63636V3.63636H228.143V2.63636V1.63636H219.354V2.63636ZM228.143 2.63636H227.143V25.3281H228.143H229.143V2.63636H228.143ZM228.143 25.3281H227.143C227.143 26.7322 227.449 28.0211 228.085 29.1687L228.96 28.6839L229.834 28.1992C229.381 27.3818 229.143 26.4335 229.143 25.3281H228.143ZM228.96 28.6839L228.089 29.1767C228.737 30.3199 229.645 31.2201 230.797 31.8649L231.286 30.9922L231.774 30.1195C230.938 29.6516 230.295 29.013 229.83 28.1912L228.96 28.6839ZM231.286 30.9922L230.797 31.8649C231.962 32.5167 233.289 32.8267 234.748 32.8267V31.8267V30.8267C233.578 30.8267 232.597 30.5803 231.774 30.1195L231.286 30.9922ZM234.748 31.8267V32.8267C236.206 32.8267 237.529 32.5168 238.685 31.8624L238.192 30.9922L237.7 30.122C236.891 30.5802 235.918 30.8267 234.748 30.8267V31.8267ZM238.192 30.9922L238.681 31.8649C239.833 31.2201 240.741 30.3199 241.389 29.1767L240.518 28.6839L239.648 28.1912C239.183 29.013 238.54 29.6516 237.704 30.1195L238.192 30.9922ZM240.518 28.6839L241.389 29.1767C242.039 28.0277 242.353 26.7359 242.353 25.3281H241.353H240.353C240.353 26.4298 240.11 27.3752 239.648 28.1912L240.518 28.6839ZM241.353 25.3281H242.353V2.63636H241.353H240.353V25.3281H241.353ZM254.443 9.77415H253.443V10.7741H254.443V9.77415ZM254.443 2.63636V1.63636H253.443V2.63636H254.443ZM285.178 2.63636H286.178V1.63636H285.178V2.63636ZM285.178 9.77415V10.7741H286.178V9.77415H285.178ZM274.152 9.77415V8.77415H273.152V9.77415H274.152ZM274.152 39V40H275.152V39H274.152ZM265.487 39H264.487V40H265.487V39ZM265.487 9.77415H266.487V8.77415H265.487V9.77415ZM254.443 9.77415H255.443V2.63636H254.443H253.443V9.77415H254.443ZM254.443 2.63636V3.63636H285.178V2.63636V1.63636H254.443V2.63636ZM285.178 2.63636H284.178V9.77415H285.178H286.178V2.63636H285.178ZM285.178 9.77415V8.77415H274.152V9.77415V10.7741H285.178V9.77415ZM274.152 9.77415H273.152V39H274.152H275.152V9.77415H274.152ZM274.152 39V38H265.487V39V40H274.152V39ZM265.487 39H266.487V9.77415H265.487H264.487V39H265.487ZM265.487 9.77415V8.77415H254.443V9.77415V10.7741H265.487V9.77415ZM289.471 39H288.471V40H289.471V39ZM289.471 2.63636V1.63636H288.471V2.63636H289.471ZM311.541 4.11008L311.096 5.0056L311.103 5.00875L311.541 4.11008ZM316.14 8.30042L315.279 8.80916L315.28 8.81161L316.14 8.30042ZM316.104 21.1733L316.951 21.7054L316.953 21.7028L316.104 21.1733ZM311.417 25.1861L311.827 26.0979L311.832 26.0959L311.417 25.1861ZM294.727 26.5533H293.727V27.5533H294.727V26.5533ZM294.727 19.6285V18.6285H293.727V19.6285H294.727ZM305.913 19.1136L306.273 20.0464L306.28 20.0438L305.913 19.1136ZM307.955 17.5156L308.793 18.0606L308.797 18.0543L307.955 17.5156ZM307.955 11.9581L307.104 12.4845L307.108 12.4905L307.955 11.9581ZM305.913 10.2891L305.525 11.2108L305.535 11.215L305.913 10.2891ZM298.26 9.72088V8.72088H297.26V9.72088H298.26ZM298.26 39V40H299.26V39H298.26ZM309.943 22.3807L310.821 21.9022L310.537 21.3807H309.943V22.3807ZM318.999 39V40H320.682L319.877 38.5215L318.999 39ZM309.411 39L308.528 39.4712L308.811 40H309.411V39ZM300.533 22.3807V21.3807H298.865L299.651 22.8519L300.533 22.3807ZM289.471 39H290.471V2.63636H289.471H288.471V39H289.471ZM289.471 2.63636V3.63636H304.492V2.63636V1.63636H289.471V2.63636ZM304.492 2.63636V3.63636C307.096 3.63636 309.286 4.106 311.096 5.00558L311.541 4.11008L311.986 3.21459C309.843 2.1492 307.334 1.63636 304.492 1.63636V2.63636ZM311.541 4.11008L311.103 5.00875C312.924 5.89763 314.306 7.16258 315.279 8.80915L316.14 8.30042L317.001 7.7917C315.819 5.79243 314.136 4.26383 311.98 3.21142L311.541 4.11008ZM316.14 8.30042L315.28 8.81161C316.25 10.4422 316.756 12.4073 316.756 14.7457H317.756H318.756C318.756 12.1126 318.184 9.78078 316.999 7.78924L316.14 8.30042ZM317.756 14.7457H316.756C316.756 17.1198 316.239 19.0697 315.256 20.6438L316.104 21.1733L316.953 21.7028C318.172 19.7494 318.756 17.4142 318.756 14.7457H317.756ZM316.104 21.1733L315.258 20.6412C314.269 22.2152 312.862 23.4276 311.002 24.2763L311.417 25.1861L311.832 26.0959C314.02 25.0979 315.738 23.6352 316.951 21.7053L316.104 21.1733ZM311.417 25.1861L311.006 24.2743C309.139 25.1151 306.888 25.5533 304.226 25.5533V26.5533V27.5533C307.103 27.5533 309.646 27.08 311.827 26.0979L311.417 25.1861ZM304.226 26.5533V25.5533H294.727V26.5533V27.5533H304.226V26.5533ZM294.727 26.5533H295.727V19.6285H294.727H293.727V26.5533H294.727ZM294.727 19.6285V20.6285H302.592V19.6285V18.6285H294.727V19.6285ZM302.592 19.6285V20.6285C303.996 20.6285 305.235 20.4478 306.273 20.0463L305.913 19.1136L305.552 18.1809C304.815 18.466 303.84 18.6285 302.592 18.6285V19.6285ZM305.913 19.1136L306.28 20.0438C307.344 19.6236 308.202 18.9691 308.793 18.0606L307.955 17.5156L307.116 16.9706C306.783 17.4826 306.28 17.8934 305.545 18.1835L305.913 19.1136ZM307.955 17.5156L308.797 18.0543C309.389 17.1283 309.647 16.0027 309.647 14.7457H308.647H307.647C307.647 15.7378 307.443 16.4588 307.112 16.977L307.955 17.5156ZM308.647 14.7457H309.647C309.647 13.4879 309.389 12.36 308.801 11.4256L307.955 11.9581L307.108 12.4905C307.444 13.024 307.647 13.7546 307.647 14.7457H308.647ZM307.955 11.9581L308.805 11.4317C308.22 10.4869 307.364 9.80091 306.29 9.36313L305.913 10.2891L305.535 11.215C306.261 11.5111 306.766 11.9378 307.104 12.4845L307.955 11.9581ZM305.913 10.2891L306.301 9.36743C305.244 8.92236 303.996 8.72088 302.592 8.72088V9.72088V10.7209C303.816 10.7209 304.782 10.8982 305.525 11.2107L305.913 10.2891ZM302.592 9.72088V8.72088H298.26V9.72088V10.7209H302.592V9.72088ZM298.26 9.72088H297.26V39H298.26H299.26V9.72088H298.26ZM298.26 39V38H289.471V39V40H298.26V39ZM309.943 22.3807L309.065 22.8591L318.12 39.4785L318.999 39L319.877 38.5215L310.821 21.9022L309.943 22.3807ZM318.999 39V38H309.411V39V40H318.999V39ZM309.411 39L310.293 38.5288L301.415 21.9095L300.533 22.3807L299.651 22.8519L308.528 39.4712L309.411 39ZM300.533 22.3807V23.3807H309.943V22.3807V21.3807H300.533V22.3807ZM322.576 39H321.576V40H322.576V39ZM322.576 2.63636V1.63636H321.576V2.63636H322.576ZM347.931 2.63636H348.931V1.63636H347.931V2.63636ZM347.931 9.77415V10.7741H348.931V9.77415H347.931ZM331.365 9.77415V8.77415H330.365V9.77415H331.365ZM331.365 17.2315H330.365V18.2315H331.365V17.2315ZM346.635 17.2315H347.635V16.2315H346.635V17.2315ZM346.635 24.3871V25.3871H347.635V24.3871H346.635ZM331.365 24.3871V23.3871H330.365V24.3871H331.365ZM331.365 31.8622H330.365V32.8622H331.365V31.8622ZM347.931 31.8622H348.931V30.8622H347.931V31.8622ZM347.931 39V40H348.931V39H347.931ZM322.576 39H323.576V2.63636H322.576H321.576V39H322.576ZM322.576 2.63636V3.63636H347.931V2.63636V1.63636H322.576V2.63636ZM347.931 2.63636H346.931V9.77415H347.931H348.931V2.63636H347.931ZM347.931 9.77415V8.77415H331.365V9.77415V10.7741H347.931V9.77415ZM331.365 9.77415H330.365V17.2315H331.365H332.365V9.77415H331.365ZM331.365 17.2315V18.2315H346.635V17.2315V16.2315H331.365V17.2315ZM346.635 17.2315H345.635V24.3871H346.635H347.635V17.2315H346.635ZM346.635 24.3871V23.3871H331.365V24.3871V25.3871H346.635V24.3871ZM331.365 24.3871H330.365V31.8622H331.365H332.365V24.3871H331.365ZM331.365 31.8622V32.8622H347.931V31.8622V30.8622H331.365V31.8622ZM347.931 31.8622H346.931V39H347.931H348.931V31.8622H347.931ZM347.931 39V38H322.576V39V40H347.931V39ZM361.301 39V40H362.036L362.256 39.299L361.301 39ZM351.855 39L350.908 38.6803L350.463 40H351.855V39ZM364.125 2.63636V1.63636H363.407L363.177 2.31667L364.125 2.63636ZM375.826 2.63636L376.773 2.31667L376.544 1.63636H375.826V2.63636ZM388.095 39V40H389.488L389.042 38.6803L388.095 39ZM378.649 39L377.695 39.2996L377.915 40H378.649V39ZM370.108 11.7983L371.062 11.4987L370.842 10.7983H370.108V11.7983ZM369.824 11.7983V10.7983H369.09L368.87 11.4993L369.824 11.7983ZM360.041 24.6889V23.6889H359.041V24.6889H360.041ZM379.785 24.6889H380.785V23.6889H379.785V24.6889ZM379.785 31.3651V32.3651H380.785V31.3651H379.785ZM360.041 31.3651H359.041V32.3651H360.041V31.3651ZM361.301 39V38H351.855V39V40H361.301V39ZM351.855 39L352.803 39.3197L365.072 2.95606L364.125 2.63636L363.177 2.31667L350.908 38.6803L351.855 39ZM364.125 2.63636V3.63636H375.826V2.63636V1.63636H364.125V2.63636ZM375.826 2.63636L374.878 2.95606L387.147 39.3197L388.095 39L389.042 38.6803L376.773 2.31667L375.826 2.63636ZM388.095 39V38H378.649V39V40H388.095V39ZM378.649 39L379.603 38.7004L371.062 11.4987L370.108 11.7983L369.154 12.0978L377.695 39.2996L378.649 39ZM370.108 11.7983V10.7983H369.824V11.7983V12.7983H370.108V11.7983ZM369.824 11.7983L368.87 11.4993L360.347 38.701L361.301 39L362.256 39.299L370.778 12.0973L369.824 11.7983ZM360.041 24.6889V25.6889H379.785V24.6889V23.6889H360.041V24.6889ZM379.785 24.6889H378.785V31.3651H379.785H380.785V24.6889H379.785ZM379.785 31.3651V30.3651H360.041V31.3651V32.3651H379.785V31.3651ZM360.041 31.3651H361.041V24.6889H360.041H359.041V31.3651H360.041ZM423.309 15.8111V16.8111H424.411L424.304 15.7137L423.309 15.8111ZM414.431 15.8111L413.439 15.9399L413.552 16.8111H414.431V15.8111ZM413.703 13.343L412.809 13.7903V13.7903L413.703 13.343ZM412.247 11.4609L412.9 10.7038L412.247 11.4609ZM410.099 10.2713L409.77 11.2158L409.778 11.2186L409.786 11.2213L410.099 10.2713ZM402.819 11.1413L402.259 10.3128L402.255 10.3153L402.819 11.1413ZM399.889 14.8878L398.967 14.5003L398.965 14.506L399.889 14.8878ZM399.907 26.8906L398.985 27.2781L398.988 27.2862L399.907 26.8906ZM402.836 30.5661L402.285 31.4006L402.295 31.4065L402.836 30.5661ZM409.974 31.4183L409.679 30.4628L409.675 30.4641L409.974 31.4183ZM412.087 30.3352L412.704 31.1221L412.706 31.1205L412.087 30.3352ZM413.596 28.5774L412.73 28.0781L412.727 28.0829L413.596 28.5774ZM414.431 26.2159L414.437 25.2159L413.592 25.2109L413.446 26.0429L414.431 26.2159ZM423.309 26.2692L424.304 26.3643L424.408 25.2758L423.315 25.2692L423.309 26.2692ZM421.906 31.0277L421.012 30.5805L421.009 30.5859L421.906 31.0277ZM418.728 35.3068L419.416 36.0328L419.419 36.0296L418.728 35.3068ZM413.792 38.3608L413.428 37.4292L413.426 37.43L413.792 38.3608ZM398.309 37.331L397.819 38.2029L397.824 38.2055L398.309 37.331ZM392.165 30.9744L393.045 30.499L392.165 30.9744ZM392.201 10.6442L391.324 10.163V10.163L392.201 10.6442ZM413.259 3.0625L412.946 4.01239L412.952 4.01415L413.259 3.0625ZM418.195 5.72585L417.559 6.49723L417.563 6.50038L418.195 5.72585ZM423.309 15.8111V14.8111H414.431V15.8111V16.8111H423.309V15.8111ZM414.431 15.8111L415.423 15.6823C415.292 14.6732 415.02 13.7409 414.597 12.8958L413.703 13.343L412.809 13.7903C413.12 14.4129 413.334 15.126 413.439 15.9399L414.431 15.8111ZM413.703 13.343L414.597 12.8958C414.173 12.0472 413.607 11.3135 412.9 10.7038L412.247 11.4609L411.594 12.2181C412.094 12.65 412.499 13.1711 412.809 13.7903L413.703 13.343ZM412.247 11.4609L412.9 10.7038C412.188 10.089 411.353 9.63081 410.411 9.32127L410.099 10.2713L409.786 11.2213C410.502 11.4563 411.099 11.7912 411.594 12.2181L412.247 11.4609ZM410.099 10.2713L410.427 9.32681C409.49 9.00093 408.472 8.84517 407.382 8.84517V9.84517V10.8452C408.281 10.8452 409.073 10.9735 409.77 11.2158L410.099 10.2713ZM407.382 9.84517V8.84517C405.448 8.84517 403.725 9.32153 402.259 10.3128L402.819 11.1413L403.379 11.9698C404.469 11.2329 405.788 10.8452 407.382 10.8452V9.84517ZM402.819 11.1413L402.255 10.3153C400.806 11.3041 399.716 12.7174 398.967 14.5003L399.889 14.8878L400.811 15.2752C401.435 13.7911 402.299 12.7068 403.382 11.9674L402.819 11.1413ZM399.889 14.8878L398.965 14.506C398.227 16.292 397.877 18.406 397.877 20.8182H398.877H399.877C399.877 18.5902 400.202 16.7506 400.813 15.2695L399.889 14.8878ZM398.877 20.8182H397.877C397.877 23.3207 398.232 25.4861 398.985 27.2781L399.907 26.8906L400.829 26.5032C400.209 25.0281 399.877 23.1452 399.877 20.8182H398.877ZM399.907 26.8906L398.988 27.2862C399.75 29.055 400.841 30.4469 402.285 31.4005L402.836 30.5661L403.388 29.7316C402.322 29.028 401.46 27.9696 400.825 26.4951L399.907 26.8906ZM402.836 30.5661L402.295 31.4065C403.745 32.342 405.437 32.7912 407.329 32.7912V31.7912V30.7912C405.764 30.7912 404.461 30.4236 403.378 29.7256L402.836 30.5661ZM407.329 31.7912V32.7912C408.384 32.7912 409.369 32.6561 410.273 32.3726L409.974 31.4183L409.675 30.4641C408.994 30.6777 408.214 30.7912 407.329 30.7912V31.7912ZM409.974 31.4183L410.269 32.3738C411.18 32.0927 411.995 31.678 412.704 31.1221L412.087 30.3352L411.47 29.5484C410.971 29.9394 410.379 30.2468 409.679 30.4628L409.974 31.4183ZM412.087 30.3352L412.706 31.1205C413.424 30.5547 414.012 29.8697 414.466 29.0719L413.596 28.5774L412.727 28.0829C412.4 28.6582 411.981 29.1451 411.468 29.55L412.087 30.3352ZM413.596 28.5774L414.463 29.0767C414.929 28.2674 415.244 27.3679 415.416 26.3889L414.431 26.2159L413.446 26.0429C413.31 26.8158 413.069 27.4907 412.73 28.0781L413.596 28.5774ZM414.431 26.2159L414.425 27.2159L423.303 27.2692L423.309 26.2692L423.315 25.2692L414.437 25.2159L414.431 26.2159ZM423.309 26.2692L422.313 26.174C422.172 27.6518 421.742 29.1192 421.012 30.5805L421.906 31.0277L422.801 31.4749C423.632 29.8112 424.138 28.1063 424.304 26.3643L423.309 26.2692ZM421.906 31.0277L421.009 30.5859C420.295 32.0361 419.308 33.3688 418.037 34.584L418.728 35.3068L419.419 36.0296C420.847 34.6643 421.978 33.1443 422.803 31.4695L421.906 31.0277ZM418.728 35.3068L418.04 34.5809C416.795 35.7603 415.264 36.7129 413.428 37.4292L413.792 38.3608L414.155 39.2924C416.202 38.4935 417.962 37.4101 419.416 36.0328L418.728 35.3068ZM413.792 38.3608L413.426 37.43C411.634 38.1335 409.549 38.4972 407.151 38.4972V39.4972V40.4972C409.749 40.4972 412.09 40.1032 414.157 39.2916L413.792 38.3608ZM407.151 39.4972V38.4972C404.012 38.4972 401.234 37.8099 398.794 36.4564L398.309 37.331L397.824 38.2055C400.592 39.7403 403.709 40.4972 407.151 40.4972V39.4972ZM398.309 37.331L398.798 36.4591C396.382 35.1017 394.464 33.1254 393.045 30.499L392.165 30.9744L391.286 31.4499C392.873 34.3869 395.051 36.6483 397.819 38.2029L398.309 37.331ZM392.165 30.9744L393.045 30.499C391.639 27.8966 390.91 24.6838 390.91 20.8182H389.91H388.91C388.91 24.9308 389.685 28.4888 391.286 31.4499L392.165 30.9744ZM389.91 20.8182H390.91C390.91 16.9424 391.65 13.726 393.077 11.1254L392.201 10.6442L391.324 10.163C389.698 13.1258 388.91 16.6921 388.91 20.8182H389.91ZM392.201 10.6442L393.077 11.1254C394.52 8.49775 396.454 6.52645 398.883 5.17993L398.398 4.3054L397.913 3.43087C395.132 4.9726 392.936 7.22716 391.324 10.163L392.201 10.6442ZM398.398 4.3054L398.883 5.17993C401.326 3.82501 404.074 3.1392 407.151 3.1392V2.1392V1.1392C403.765 1.1392 400.678 1.89753 397.913 3.43087L398.398 4.3054ZM407.151 2.1392V3.1392C409.259 3.1392 411.188 3.43372 412.946 4.01238L413.259 3.0625L413.572 2.11262C411.589 1.46022 409.447 1.1392 407.151 1.1392V2.1392ZM413.259 3.0625L412.952 4.01415C414.71 4.5817 416.242 5.41096 417.559 6.49722L418.195 5.72585L418.832 4.95448C417.307 3.69699 415.548 2.75068 413.566 2.11085L413.259 3.0625ZM418.195 5.72585L417.563 6.50038C418.874 7.57158 419.944 8.89094 420.772 10.4694L421.658 10.005L422.543 9.5405C421.595 7.73359 420.357 6.2002 418.828 4.95132L418.195 5.72585ZM421.658 10.005L420.772 10.4694C421.592 12.0327 422.111 13.8403 422.314 15.9084L423.309 15.8111L424.304 15.7137C424.08 13.4258 423.499 11.3627 422.543 9.5405L421.658 10.005ZM428.338 39H427.338V40H428.338V39ZM428.338 2.63636V1.63636H427.338V2.63636H428.338ZM437.127 2.63636H438.127V1.63636H437.127V2.63636ZM437.127 17.2315H436.127V18.2315H437.127V17.2315ZM451.456 17.2315V18.2315H452.456V17.2315H451.456ZM451.456 2.63636V1.63636H450.456V2.63636H451.456ZM460.227 2.63636H461.227V1.63636H460.227V2.63636ZM460.227 39V40H461.227V39H460.227ZM451.456 39H450.456V40H451.456V39ZM451.456 24.3871H452.456V23.3871H451.456V24.3871ZM437.127 24.3871V23.3871H436.127V24.3871H437.127ZM437.127 39V40H438.127V39H437.127ZM428.338 39H429.338V2.63636H428.338H427.338V39H428.338ZM428.338 2.63636V3.63636H437.127V2.63636V1.63636H428.338V2.63636ZM437.127 2.63636H436.127V17.2315H437.127H438.127V2.63636H437.127ZM437.127 17.2315V18.2315H451.456V17.2315V16.2315H437.127V17.2315ZM451.456 17.2315H452.456V2.63636H451.456H450.456V17.2315H451.456ZM451.456 2.63636V3.63636H460.227V2.63636V1.63636H451.456V2.63636ZM460.227 2.63636H459.227V39H460.227H461.227V2.63636H460.227ZM460.227 39V38H451.456V39V40H460.227V39ZM451.456 39H452.456V24.3871H451.456H450.456V39H451.456ZM451.456 24.3871V23.3871H437.127V24.3871V25.3871H451.456V24.3871ZM437.127 24.3871H436.127V39H437.127H438.127V24.3871H437.127ZM437.127 39V38H428.338V39V40H437.127V39Z" fill="#DD6408" fill-opacity="0.48" mask="url(#path-1-outside-1_176_235)"/>
</g>
<defs>
<filter id="filter0_g_176_235" x="0.751953" y="0.139191" width="461.476" height="41.358" filterUnits="userSpaceOnUse" color-interpolation-filters="sRGB">
<feFlood flood-opacity="0" result="BackgroundImageFix"/>
<feBlend mode="normal" in="SourceGraphic" in2="BackgroundImageFix" result="shape"/>
<feTurbulence type="fractalNoise" baseFrequency="0.5 0.5" numOctaves="3" seed="3418" />
<feDisplacementMap in="shape" scale="2" xChannelSelector="R" yChannelSelector="G" result="displacedImage" width="100%" height="100%" />
<feMerge result="effect1_texture_176_235">
<feMergeNode in="displacedImage"/>
</feMerge>
</filter>
</defs>
</svg>
