<svg width="371" height="55" viewBox="0 0 371 55" fill="none" xmlns="http://www.w3.org/2000/svg">
<g filter="url(#filter0_ddn_111_463)">
<mask id="path-1-outside-1_111_463" maskUnits="userSpaceOnUse" x="4" y="0" width="363" height="47" fill="black">
<rect fill="white" x="4" width="363" height="47"/>
<path d="M29.2246 33.6621C29.2246 32.998 29.127 32.4023 28.9316 31.875C28.7363 31.3281 28.375 30.8203 27.8477 30.3516C27.3203 29.8828 26.5586 29.4141 25.5625 28.9453C24.5859 28.457 23.2969 27.9492 21.6953 27.4219C19.8203 26.7969 18.0137 26.0938 16.2754 25.3125C14.5371 24.5117 12.9844 23.584 11.6172 22.5293C10.25 21.4551 9.16602 20.2051 8.36523 18.7793C7.56445 17.334 7.16406 15.6543 7.16406 13.7402C7.16406 11.9043 7.57422 10.2539 8.39453 8.78906C9.21484 7.30469 10.3574 6.04492 11.8223 5.00977C13.3066 3.95508 15.0449 3.1543 17.0371 2.60742C19.0293 2.04102 21.207 1.75781 23.5703 1.75781C26.6953 1.75781 29.4492 2.30469 31.832 3.39844C34.2344 4.47266 36.1094 6.00586 37.457 7.99805C38.8242 9.9707 39.5078 12.3047 39.5078 15H29.2832C29.2832 13.9258 29.0586 12.9785 28.6094 12.1582C28.1797 11.3379 27.5254 10.6934 26.6465 10.2246C25.7676 9.75586 24.6641 9.52148 23.3359 9.52148C22.0469 9.52148 20.9629 9.7168 20.084 10.1074C19.2051 10.498 18.541 11.0254 18.0918 11.6895C17.6426 12.334 17.418 13.0469 17.418 13.8281C17.418 14.4727 17.5938 15.0586 17.9453 15.5859C18.3164 16.0938 18.834 16.5723 19.498 17.0215C20.1816 17.4707 21.002 17.9004 21.959 18.3105C22.9355 18.7207 24.0293 19.1211 25.2402 19.5117C27.5059 20.2344 29.5176 21.0449 31.2754 21.9434C33.0527 22.8223 34.5469 23.8281 35.7578 24.9609C36.9883 26.0742 37.916 27.3438 38.541 28.7695C39.1855 30.1953 39.5078 31.8066 39.5078 33.6035C39.5078 35.5176 39.1367 37.2168 38.3945 38.7012C37.6523 40.1855 36.5879 41.4453 35.2012 42.4805C33.8145 43.4961 32.1543 44.2676 30.2207 44.7949C28.2871 45.3223 26.1289 45.5859 23.7461 45.5859C21.5586 45.5859 19.4004 45.3125 17.2715 44.7656C15.1621 44.1992 13.248 43.3398 11.5293 42.1875C9.81055 41.0156 8.43359 39.5215 7.39844 37.7051C6.38281 35.8691 5.875 33.6914 5.875 31.1719H16.1875C16.1875 32.4219 16.3535 33.4766 16.6855 34.3359C17.0176 35.1953 17.5059 35.8887 18.1504 36.416C18.7949 36.9238 19.5859 37.2949 20.5234 37.5293C21.4609 37.7441 22.5352 37.8516 23.7461 37.8516C25.0547 37.8516 26.1094 37.666 26.9102 37.2949C27.7109 36.9043 28.2969 36.3965 28.668 35.7715C29.0391 35.127 29.2246 34.4238 29.2246 33.6621ZM67.9551 2.34375H78.2383V30.2051C78.2383 33.5254 77.5449 36.3379 76.1582 38.6426C74.7715 40.9277 72.8281 42.6562 70.3281 43.8281C67.8281 45 64.8887 45.5859 61.5098 45.5859C58.1699 45.5859 55.2305 45 52.6914 43.8281C50.1719 42.6562 48.1992 40.9277 46.7734 38.6426C45.3672 36.3379 44.6641 33.5254 44.6641 30.2051V2.34375H54.9766V30.2051C54.9766 31.9629 55.2305 33.3984 55.7383 34.5117C56.2461 35.6055 56.9883 36.4062 57.9648 36.9141C58.9414 37.4219 60.123 37.6758 61.5098 37.6758C62.916 37.6758 64.0977 37.4219 65.0547 36.9141C66.0117 36.4062 66.7344 35.6055 67.2227 34.5117C67.7109 33.3984 67.9551 31.9629 67.9551 30.2051V2.34375ZM101.734 30.5273H91.1289V22.5879H101.734C103.18 22.5879 104.352 22.3438 105.25 21.8555C106.148 21.3672 106.803 20.6934 107.213 19.834C107.643 18.9551 107.857 17.9688 107.857 16.875C107.857 15.7031 107.643 14.6191 107.213 13.623C106.803 12.627 106.148 11.8262 105.25 11.2207C104.352 10.5957 103.18 10.2832 101.734 10.2832H94.9961V45H84.7129V2.34375H101.734C105.152 2.34375 108.092 2.96875 110.553 4.21875C113.033 5.46875 114.938 7.1875 116.266 9.375C117.594 11.543 118.258 14.0234 118.258 16.8164C118.258 19.5703 117.594 21.9727 116.266 24.0234C114.938 26.0742 113.033 27.6758 110.553 28.8281C108.092 29.9609 105.152 30.5273 101.734 30.5273ZM140.816 30.5273H130.211V22.5879H140.816C142.262 22.5879 143.434 22.3438 144.332 21.8555C145.23 21.3672 145.885 20.6934 146.295 19.834C146.725 18.9551 146.939 17.9688 146.939 16.875C146.939 15.7031 146.725 14.6191 146.295 13.623C145.885 12.627 145.23 11.8262 144.332 11.2207C143.434 10.5957 142.262 10.2832 140.816 10.2832H134.078V45H123.795V2.34375H140.816C144.234 2.34375 147.174 2.96875 149.635 4.21875C152.115 5.46875 154.02 7.1875 155.348 9.375C156.676 11.543 157.34 14.0234 157.34 16.8164C157.34 19.5703 156.676 21.9727 155.348 24.0234C154.02 26.0742 152.115 27.6758 149.635 28.8281C147.174 29.9609 144.234 30.5273 140.816 30.5273ZM198.971 22.8223V24.5508C198.971 27.8125 198.512 30.7422 197.594 33.3398C196.695 35.918 195.416 38.125 193.756 39.9609C192.096 41.7773 190.133 43.1738 187.867 44.1504C185.602 45.1074 183.102 45.5859 180.367 45.5859C177.613 45.5859 175.094 45.1074 172.809 44.1504C170.543 43.1738 168.57 41.7773 166.891 39.9609C165.23 38.125 163.941 35.918 163.023 33.3398C162.125 30.7422 161.676 27.8125 161.676 24.5508V22.8223C161.676 19.5605 162.125 16.6309 163.023 14.0332C163.941 11.4355 165.221 9.22852 166.861 7.41211C168.521 5.57617 170.484 4.17969 172.75 3.22266C175.035 2.24609 177.555 1.75781 180.309 1.75781C183.043 1.75781 185.543 2.24609 187.809 3.22266C190.094 4.17969 192.066 5.57617 193.727 7.41211C195.387 9.22852 196.676 11.4355 197.594 14.0332C198.512 16.6309 198.971 19.5605 198.971 22.8223ZM188.541 24.5508V22.7637C188.541 20.6543 188.355 18.7988 187.984 17.1973C187.633 15.5762 187.105 14.2187 186.402 13.125C185.699 12.0313 184.83 11.2109 183.795 10.6641C182.779 10.0977 181.617 9.81445 180.309 9.81445C178.941 9.81445 177.75 10.0977 176.734 10.6641C175.719 11.2109 174.869 12.0313 174.186 13.125C173.502 14.2187 172.984 15.5762 172.633 17.1973C172.301 18.7988 172.135 20.6543 172.135 22.7637V24.5508C172.135 26.6406 172.301 28.4961 172.633 30.1172C172.984 31.7188 173.502 33.0762 174.186 34.1895C174.889 35.3027 175.748 36.1426 176.764 36.709C177.799 37.2754 179 37.5586 180.367 37.5586C181.676 37.5586 182.838 37.2754 183.854 36.709C184.869 36.1426 185.719 35.3027 186.402 34.1895C187.105 33.0762 187.633 31.7188 187.984 30.1172C188.355 28.4961 188.541 26.6406 188.541 24.5508ZM204.303 2.34375H221.09C224.371 2.34375 227.223 2.83203 229.645 3.80859C232.066 4.78516 233.932 6.23047 235.24 8.14453C236.568 10.0586 237.232 12.4219 237.232 15.2344C237.232 17.6758 236.852 19.7168 236.09 21.3574C235.328 22.998 234.264 24.3555 232.896 25.4297C231.549 26.4844 229.977 27.3535 228.18 28.0371L224.811 29.9414H210.719L210.66 22.002H221.09C222.398 22.002 223.482 21.7676 224.342 21.2988C225.201 20.8301 225.846 20.166 226.275 19.3066C226.725 18.4277 226.949 17.3828 226.949 16.1719C226.949 14.9414 226.725 13.8867 226.275 13.0078C225.826 12.1289 225.162 11.4551 224.283 10.9863C223.424 10.5176 222.359 10.2832 221.09 10.2832H214.586V45H204.303V2.34375ZM227.652 45L218.219 26.1328L229.117 26.0742L238.668 44.5605V45H227.652ZM262.633 2.34375V45H252.35V2.34375H262.633ZM275.465 2.34375V10.2832H239.811V2.34375H275.465ZM316.158 2.34375H326.441V30.2051C326.441 33.5254 325.748 36.3379 324.361 38.6426C322.975 40.9277 321.031 42.6562 318.531 43.8281C316.031 45 313.092 45.5859 309.713 45.5859C306.373 45.5859 303.434 45 300.895 43.8281C298.375 42.6562 296.402 40.9277 294.977 38.6426C293.57 36.3379 292.867 33.5254 292.867 30.2051V2.34375H303.18V30.2051C303.18 31.9629 303.434 33.3984 303.941 34.5117C304.449 35.6055 305.191 36.4062 306.168 36.9141C307.145 37.4219 308.326 37.6758 309.713 37.6758C311.119 37.6758 312.301 37.4219 313.258 36.9141C314.215 36.4062 314.938 35.6055 315.426 34.5117C315.914 33.3984 316.158 31.9629 316.158 30.2051V2.34375ZM354.889 33.6621C354.889 32.998 354.791 32.4023 354.596 31.875C354.4 31.3281 354.039 30.8203 353.512 30.3516C352.984 29.8828 352.223 29.4141 351.227 28.9453C350.25 28.457 348.961 27.9492 347.359 27.4219C345.484 26.7969 343.678 26.0938 341.939 25.3125C340.201 24.5117 338.648 23.584 337.281 22.5293C335.914 21.4551 334.83 20.2051 334.029 18.7793C333.229 17.334 332.828 15.6543 332.828 13.7402C332.828 11.9043 333.238 10.2539 334.059 8.78906C334.879 7.30469 336.021 6.04492 337.486 5.00977C338.971 3.95508 340.709 3.1543 342.701 2.60742C344.693 2.04102 346.871 1.75781 349.234 1.75781C352.359 1.75781 355.113 2.30469 357.496 3.39844C359.898 4.47266 361.773 6.00586 363.121 7.99805C364.488 9.9707 365.172 12.3047 365.172 15H354.947C354.947 13.9258 354.723 12.9785 354.273 12.1582C353.844 11.3379 353.189 10.6934 352.311 10.2246C351.432 9.75586 350.328 9.52148 349 9.52148C347.711 9.52148 346.627 9.7168 345.748 10.1074C344.869 10.498 344.205 11.0254 343.756 11.6895C343.307 12.334 343.082 13.0469 343.082 13.8281C343.082 14.4727 343.258 15.0586 343.609 15.5859C343.98 16.0938 344.498 16.5723 345.162 17.0215C345.846 17.4707 346.666 17.9004 347.623 18.3105C348.6 18.7207 349.693 19.1211 350.904 19.5117C353.17 20.2344 355.182 21.0449 356.939 21.9434C358.717 22.8223 360.211 23.8281 361.422 24.9609C362.652 26.0742 363.58 27.3438 364.205 28.7695C364.85 30.1953 365.172 31.8066 365.172 33.6035C365.172 35.5176 364.801 37.2168 364.059 38.7012C363.316 40.1855 362.252 41.4453 360.865 42.4805C359.479 43.4961 357.818 44.2676 355.885 44.7949C353.951 45.3223 351.793 45.5859 349.41 45.5859C347.223 45.5859 345.064 45.3125 342.936 44.7656C340.826 44.1992 338.912 43.3398 337.193 42.1875C335.475 41.0156 334.098 39.5215 333.062 37.7051C332.047 35.8691 331.539 33.6914 331.539 31.1719H341.852C341.852 32.4219 342.018 33.4766 342.35 34.3359C342.682 35.1953 343.17 35.8887 343.814 36.416C344.459 36.9238 345.25 37.2949 346.188 37.5293C347.125 37.7441 348.199 37.8516 349.41 37.8516C350.719 37.8516 351.773 37.666 352.574 37.2949C353.375 36.9043 353.961 36.3965 354.332 35.7715C354.703 35.127 354.889 34.4238 354.889 33.6621Z"/>
</mask>
<path d="M29.2246 33.6621C29.2246 32.998 29.127 32.4023 28.9316 31.875C28.7363 31.3281 28.375 30.8203 27.8477 30.3516C27.3203 29.8828 26.5586 29.4141 25.5625 28.9453C24.5859 28.457 23.2969 27.9492 21.6953 27.4219C19.8203 26.7969 18.0137 26.0938 16.2754 25.3125C14.5371 24.5117 12.9844 23.584 11.6172 22.5293C10.25 21.4551 9.16602 20.2051 8.36523 18.7793C7.56445 17.334 7.16406 15.6543 7.16406 13.7402C7.16406 11.9043 7.57422 10.2539 8.39453 8.78906C9.21484 7.30469 10.3574 6.04492 11.8223 5.00977C13.3066 3.95508 15.0449 3.1543 17.0371 2.60742C19.0293 2.04102 21.207 1.75781 23.5703 1.75781C26.6953 1.75781 29.4492 2.30469 31.832 3.39844C34.2344 4.47266 36.1094 6.00586 37.457 7.99805C38.8242 9.9707 39.5078 12.3047 39.5078 15H29.2832C29.2832 13.9258 29.0586 12.9785 28.6094 12.1582C28.1797 11.3379 27.5254 10.6934 26.6465 10.2246C25.7676 9.75586 24.6641 9.52148 23.3359 9.52148C22.0469 9.52148 20.9629 9.7168 20.084 10.1074C19.2051 10.498 18.541 11.0254 18.0918 11.6895C17.6426 12.334 17.418 13.0469 17.418 13.8281C17.418 14.4727 17.5938 15.0586 17.9453 15.5859C18.3164 16.0938 18.834 16.5723 19.498 17.0215C20.1816 17.4707 21.002 17.9004 21.959 18.3105C22.9355 18.7207 24.0293 19.1211 25.2402 19.5117C27.5059 20.2344 29.5176 21.0449 31.2754 21.9434C33.0527 22.8223 34.5469 23.8281 35.7578 24.9609C36.9883 26.0742 37.916 27.3438 38.541 28.7695C39.1855 30.1953 39.5078 31.8066 39.5078 33.6035C39.5078 35.5176 39.1367 37.2168 38.3945 38.7012C37.6523 40.1855 36.5879 41.4453 35.2012 42.4805C33.8145 43.4961 32.1543 44.2676 30.2207 44.7949C28.2871 45.3223 26.1289 45.5859 23.7461 45.5859C21.5586 45.5859 19.4004 45.3125 17.2715 44.7656C15.1621 44.1992 13.248 43.3398 11.5293 42.1875C9.81055 41.0156 8.43359 39.5215 7.39844 37.7051C6.38281 35.8691 5.875 33.6914 5.875 31.1719H16.1875C16.1875 32.4219 16.3535 33.4766 16.6855 34.3359C17.0176 35.1953 17.5059 35.8887 18.1504 36.416C18.7949 36.9238 19.5859 37.2949 20.5234 37.5293C21.4609 37.7441 22.5352 37.8516 23.7461 37.8516C25.0547 37.8516 26.1094 37.666 26.9102 37.2949C27.7109 36.9043 28.2969 36.3965 28.668 35.7715C29.0391 35.127 29.2246 34.4238 29.2246 33.6621ZM67.9551 2.34375H78.2383V30.2051C78.2383 33.5254 77.5449 36.3379 76.1582 38.6426C74.7715 40.9277 72.8281 42.6562 70.3281 43.8281C67.8281 45 64.8887 45.5859 61.5098 45.5859C58.1699 45.5859 55.2305 45 52.6914 43.8281C50.1719 42.6562 48.1992 40.9277 46.7734 38.6426C45.3672 36.3379 44.6641 33.5254 44.6641 30.2051V2.34375H54.9766V30.2051C54.9766 31.9629 55.2305 33.3984 55.7383 34.5117C56.2461 35.6055 56.9883 36.4062 57.9648 36.9141C58.9414 37.4219 60.123 37.6758 61.5098 37.6758C62.916 37.6758 64.0977 37.4219 65.0547 36.9141C66.0117 36.4062 66.7344 35.6055 67.2227 34.5117C67.7109 33.3984 67.9551 31.9629 67.9551 30.2051V2.34375ZM101.734 30.5273H91.1289V22.5879H101.734C103.18 22.5879 104.352 22.3438 105.25 21.8555C106.148 21.3672 106.803 20.6934 107.213 19.834C107.643 18.9551 107.857 17.9688 107.857 16.875C107.857 15.7031 107.643 14.6191 107.213 13.623C106.803 12.627 106.148 11.8262 105.25 11.2207C104.352 10.5957 103.18 10.2832 101.734 10.2832H94.9961V45H84.7129V2.34375H101.734C105.152 2.34375 108.092 2.96875 110.553 4.21875C113.033 5.46875 114.938 7.1875 116.266 9.375C117.594 11.543 118.258 14.0234 118.258 16.8164C118.258 19.5703 117.594 21.9727 116.266 24.0234C114.938 26.0742 113.033 27.6758 110.553 28.8281C108.092 29.9609 105.152 30.5273 101.734 30.5273ZM140.816 30.5273H130.211V22.5879H140.816C142.262 22.5879 143.434 22.3438 144.332 21.8555C145.23 21.3672 145.885 20.6934 146.295 19.834C146.725 18.9551 146.939 17.9688 146.939 16.875C146.939 15.7031 146.725 14.6191 146.295 13.623C145.885 12.627 145.23 11.8262 144.332 11.2207C143.434 10.5957 142.262 10.2832 140.816 10.2832H134.078V45H123.795V2.34375H140.816C144.234 2.34375 147.174 2.96875 149.635 4.21875C152.115 5.46875 154.02 7.1875 155.348 9.375C156.676 11.543 157.34 14.0234 157.34 16.8164C157.34 19.5703 156.676 21.9727 155.348 24.0234C154.02 26.0742 152.115 27.6758 149.635 28.8281C147.174 29.9609 144.234 30.5273 140.816 30.5273ZM198.971 22.8223V24.5508C198.971 27.8125 198.512 30.7422 197.594 33.3398C196.695 35.918 195.416 38.125 193.756 39.9609C192.096 41.7773 190.133 43.1738 187.867 44.1504C185.602 45.1074 183.102 45.5859 180.367 45.5859C177.613 45.5859 175.094 45.1074 172.809 44.1504C170.543 43.1738 168.57 41.7773 166.891 39.9609C165.23 38.125 163.941 35.918 163.023 33.3398C162.125 30.7422 161.676 27.8125 161.676 24.5508V22.8223C161.676 19.5605 162.125 16.6309 163.023 14.0332C163.941 11.4355 165.221 9.22852 166.861 7.41211C168.521 5.57617 170.484 4.17969 172.75 3.22266C175.035 2.24609 177.555 1.75781 180.309 1.75781C183.043 1.75781 185.543 2.24609 187.809 3.22266C190.094 4.17969 192.066 5.57617 193.727 7.41211C195.387 9.22852 196.676 11.4355 197.594 14.0332C198.512 16.6309 198.971 19.5605 198.971 22.8223ZM188.541 24.5508V22.7637C188.541 20.6543 188.355 18.7988 187.984 17.1973C187.633 15.5762 187.105 14.2187 186.402 13.125C185.699 12.0313 184.83 11.2109 183.795 10.6641C182.779 10.0977 181.617 9.81445 180.309 9.81445C178.941 9.81445 177.75 10.0977 176.734 10.6641C175.719 11.2109 174.869 12.0313 174.186 13.125C173.502 14.2187 172.984 15.5762 172.633 17.1973C172.301 18.7988 172.135 20.6543 172.135 22.7637V24.5508C172.135 26.6406 172.301 28.4961 172.633 30.1172C172.984 31.7188 173.502 33.0762 174.186 34.1895C174.889 35.3027 175.748 36.1426 176.764 36.709C177.799 37.2754 179 37.5586 180.367 37.5586C181.676 37.5586 182.838 37.2754 183.854 36.709C184.869 36.1426 185.719 35.3027 186.402 34.1895C187.105 33.0762 187.633 31.7188 187.984 30.1172C188.355 28.4961 188.541 26.6406 188.541 24.5508ZM204.303 2.34375H221.09C224.371 2.34375 227.223 2.83203 229.645 3.80859C232.066 4.78516 233.932 6.23047 235.24 8.14453C236.568 10.0586 237.232 12.4219 237.232 15.2344C237.232 17.6758 236.852 19.7168 236.09 21.3574C235.328 22.998 234.264 24.3555 232.896 25.4297C231.549 26.4844 229.977 27.3535 228.18 28.0371L224.811 29.9414H210.719L210.66 22.002H221.09C222.398 22.002 223.482 21.7676 224.342 21.2988C225.201 20.8301 225.846 20.166 226.275 19.3066C226.725 18.4277 226.949 17.3828 226.949 16.1719C226.949 14.9414 226.725 13.8867 226.275 13.0078C225.826 12.1289 225.162 11.4551 224.283 10.9863C223.424 10.5176 222.359 10.2832 221.09 10.2832H214.586V45H204.303V2.34375ZM227.652 45L218.219 26.1328L229.117 26.0742L238.668 44.5605V45H227.652ZM262.633 2.34375V45H252.35V2.34375H262.633ZM275.465 2.34375V10.2832H239.811V2.34375H275.465ZM316.158 2.34375H326.441V30.2051C326.441 33.5254 325.748 36.3379 324.361 38.6426C322.975 40.9277 321.031 42.6562 318.531 43.8281C316.031 45 313.092 45.5859 309.713 45.5859C306.373 45.5859 303.434 45 300.895 43.8281C298.375 42.6562 296.402 40.9277 294.977 38.6426C293.57 36.3379 292.867 33.5254 292.867 30.2051V2.34375H303.18V30.2051C303.18 31.9629 303.434 33.3984 303.941 34.5117C304.449 35.6055 305.191 36.4062 306.168 36.9141C307.145 37.4219 308.326 37.6758 309.713 37.6758C311.119 37.6758 312.301 37.4219 313.258 36.9141C314.215 36.4062 314.938 35.6055 315.426 34.5117C315.914 33.3984 316.158 31.9629 316.158 30.2051V2.34375ZM354.889 33.6621C354.889 32.998 354.791 32.4023 354.596 31.875C354.4 31.3281 354.039 30.8203 353.512 30.3516C352.984 29.8828 352.223 29.4141 351.227 28.9453C350.25 28.457 348.961 27.9492 347.359 27.4219C345.484 26.7969 343.678 26.0938 341.939 25.3125C340.201 24.5117 338.648 23.584 337.281 22.5293C335.914 21.4551 334.83 20.2051 334.029 18.7793C333.229 17.334 332.828 15.6543 332.828 13.7402C332.828 11.9043 333.238 10.2539 334.059 8.78906C334.879 7.30469 336.021 6.04492 337.486 5.00977C338.971 3.95508 340.709 3.1543 342.701 2.60742C344.693 2.04102 346.871 1.75781 349.234 1.75781C352.359 1.75781 355.113 2.30469 357.496 3.39844C359.898 4.47266 361.773 6.00586 363.121 7.99805C364.488 9.9707 365.172 12.3047 365.172 15H354.947C354.947 13.9258 354.723 12.9785 354.273 12.1582C353.844 11.3379 353.189 10.6934 352.311 10.2246C351.432 9.75586 350.328 9.52148 349 9.52148C347.711 9.52148 346.627 9.7168 345.748 10.1074C344.869 10.498 344.205 11.0254 343.756 11.6895C343.307 12.334 343.082 13.0469 343.082 13.8281C343.082 14.4727 343.258 15.0586 343.609 15.5859C343.98 16.0938 344.498 16.5723 345.162 17.0215C345.846 17.4707 346.666 17.9004 347.623 18.3105C348.6 18.7207 349.693 19.1211 350.904 19.5117C353.17 20.2344 355.182 21.0449 356.939 21.9434C358.717 22.8223 360.211 23.8281 361.422 24.9609C362.652 26.0742 363.58 27.3438 364.205 28.7695C364.85 30.1953 365.172 31.8066 365.172 33.6035C365.172 35.5176 364.801 37.2168 364.059 38.7012C363.316 40.1855 362.252 41.4453 360.865 42.4805C359.479 43.4961 357.818 44.2676 355.885 44.7949C353.951 45.3223 351.793 45.5859 349.41 45.5859C347.223 45.5859 345.064 45.3125 342.936 44.7656C340.826 44.1992 338.912 43.3398 337.193 42.1875C335.475 41.0156 334.098 39.5215 333.062 37.7051C332.047 35.8691 331.539 33.6914 331.539 31.1719H341.852C341.852 32.4219 342.018 33.4766 342.35 34.3359C342.682 35.1953 343.17 35.8887 343.814 36.416C344.459 36.9238 345.25 37.2949 346.188 37.5293C347.125 37.7441 348.199 37.8516 349.41 37.8516C350.719 37.8516 351.773 37.666 352.574 37.2949C353.375 36.9043 353.961 36.3965 354.332 35.7715C354.703 35.127 354.889 34.4238 354.889 33.6621Z" fill="black"/>
<path d="M28.9316 31.875L27.9898 32.2114L27.9939 32.2223L28.9316 31.875ZM25.5625 28.9453L25.1153 29.8397L25.1259 29.8451L25.1367 29.8501L25.5625 28.9453ZM21.6953 27.4219L21.3791 28.3706L21.3826 28.3717L21.6953 27.4219ZM16.2754 25.3125L15.857 26.2208L15.8655 26.2246L16.2754 25.3125ZM11.6172 22.5293L10.9993 23.3156L11.0064 23.3211L11.6172 22.5293ZM8.36523 18.7793L7.49051 19.2639L7.49334 19.269L8.36523 18.7793ZM8.39453 8.78906L9.26705 9.27767L9.26977 9.27275L8.39453 8.78906ZM11.8223 5.00977L12.3994 5.82644L12.4015 5.82495L11.8223 5.00977ZM17.0371 2.60742L17.3018 3.57179L17.3106 3.5693L17.0371 2.60742ZM31.832 3.39844L31.4148 4.30731L31.4238 4.31133L31.832 3.39844ZM37.457 7.99805L36.6287 8.55839L36.6351 8.56768L37.457 7.99805ZM39.5078 15V16H40.5078V15H39.5078ZM29.2832 15H28.2832V16H29.2832V15ZM28.6094 12.1582L27.7235 12.6222L27.7278 12.6304L27.7323 12.6385L28.6094 12.1582ZM18.0918 11.6895L18.9123 12.2613L18.9201 12.2498L18.0918 11.6895ZM17.9453 15.5859L17.1133 16.1406L17.1252 16.1586L17.1379 16.176L17.9453 15.5859ZM19.498 17.0215L18.9377 17.8498L18.9489 17.8572L19.498 17.0215ZM21.959 18.3105L21.5651 19.2297L21.5718 19.2325L21.959 18.3105ZM25.2402 19.5117L24.9332 20.4634L24.9364 20.4644L25.2402 19.5117ZM31.2754 21.9434L30.8202 22.8339L30.8321 22.8397L31.2754 21.9434ZM35.7578 24.9609L35.0747 25.6912L35.0807 25.6969L35.0869 25.7025L35.7578 24.9609ZM38.541 28.7695L37.6251 29.171L37.6298 29.1815L38.541 28.7695ZM35.2012 42.4805L35.7921 43.2873L35.7994 43.2818L35.2012 42.4805ZM17.2715 44.7656L17.0121 45.7315L17.0227 45.7342L17.2715 44.7656ZM11.5293 42.1875L10.9659 43.0138L10.9724 43.0181L11.5293 42.1875ZM7.39844 37.7051L6.52333 38.1892L6.52962 38.2002L7.39844 37.7051ZM5.875 31.1719V30.1719H4.875V31.1719H5.875ZM16.1875 31.1719H17.1875V30.1719H16.1875V31.1719ZM18.1504 36.416L17.5172 37.19L17.5243 37.1958L17.5315 37.2015L18.1504 36.416ZM20.5234 37.5293L20.2809 38.4994L20.2905 38.5018L20.3001 38.504L20.5234 37.5293ZM26.9102 37.2949L27.3306 38.2022L27.3396 38.1981L27.3486 38.1937L26.9102 37.2949ZM28.668 35.7715L29.5279 36.2821L29.5346 36.2705L28.668 35.7715ZM29.2246 33.6621H30.2246C30.2246 32.9005 30.1126 32.1843 29.8694 31.5277L28.9316 31.875L27.9939 32.2223C28.1413 32.6204 28.2246 33.0956 28.2246 33.6621H29.2246ZM28.9316 31.875L29.8734 31.5387C29.6107 30.803 29.1381 30.1607 28.512 29.6042L27.8477 30.3516L27.1833 31.099C27.6119 31.48 27.862 31.8532 27.9899 32.2113L28.9316 31.875ZM27.8477 30.3516L28.512 29.6042C27.8848 29.0466 27.0283 28.5299 25.9883 28.0405L25.5625 28.9453L25.1367 29.8501C26.0889 30.2982 26.7558 30.719 27.1833 31.099L27.8477 30.3516ZM25.5625 28.9453L26.0097 28.0509C24.9731 27.5326 23.6338 27.0073 22.0081 26.472L21.6953 27.4219L21.3826 28.3717C22.9599 28.8911 24.1988 29.3815 25.1153 29.8397L25.5625 28.9453ZM21.6953 27.4219L22.0115 26.4732C20.1672 25.8584 18.3919 25.1674 16.6853 24.4004L16.2754 25.3125L15.8655 26.2246C17.6354 27.0201 19.4734 27.7353 21.3791 28.3706L21.6953 27.4219ZM16.2754 25.3125L16.6938 24.4042C15.0166 23.6316 13.5296 22.7416 12.228 21.7375L11.6172 22.5293L11.0064 23.3211C12.4391 24.4263 14.0577 25.3919 15.857 26.2208L16.2754 25.3125ZM11.6172 22.5293L12.235 21.743C10.9646 20.7448 9.96954 19.5936 9.23713 18.2896L8.36523 18.7793L7.49334 19.269C8.36249 20.8165 9.53544 22.1654 10.9994 23.3156L11.6172 22.5293ZM8.36523 18.7793L9.23995 18.2947C8.53354 17.0197 8.16406 15.5118 8.16406 13.7402H7.16406H6.16406C6.16406 15.7968 6.59537 17.6483 7.49052 19.2639L8.36523 18.7793ZM7.16406 13.7402H8.16406C8.16406 12.059 8.53799 10.5795 9.26704 9.27767L8.39453 8.78906L7.52203 8.30046C6.61044 9.92829 6.16406 11.7496 6.16406 13.7402H7.16406ZM8.39453 8.78906L9.26977 9.27275C10.0129 7.92802 11.0505 6.77965 12.3994 5.82643L11.8223 5.00977L11.2452 4.1931C9.66436 5.3102 8.41677 6.68136 7.51929 8.30538L8.39453 8.78906ZM11.8223 5.00977L12.4015 5.82495C13.7786 4.84644 15.4074 4.09179 17.3018 3.57175L17.0371 2.60742L16.7724 1.6431C14.6825 2.2168 12.8346 3.06372 11.2431 4.19458L11.8223 5.00977ZM17.0371 2.60742L17.3106 3.5693C19.2023 3.03146 21.2867 2.75781 23.5703 2.75781V1.75781V0.757812C21.1273 0.757812 18.8563 1.05058 16.7636 1.64554L17.0371 2.60742ZM23.5703 1.75781V2.75781C26.5786 2.75781 29.1856 3.284 31.4149 4.30727L31.832 3.39844L32.2492 2.48961C29.7128 1.32537 26.8121 0.757812 23.5703 0.757812V1.75781ZM31.832 3.39844L31.4238 4.31133C33.6726 5.31688 35.3953 6.73493 36.6287 8.55836L37.457 7.99805L38.2853 7.43774C36.8235 5.27678 34.7961 3.62843 32.2402 2.48555L31.832 3.39844ZM37.457 7.99805L36.6351 8.56768C37.8724 10.3528 38.5078 12.4822 38.5078 15H39.5078H40.5078C40.5078 12.1271 39.7761 9.58858 38.2789 7.42841L37.457 7.99805ZM39.5078 15V14H29.2832V15V16H39.5078V15ZM29.2832 15H30.2832C30.2832 13.7831 30.0276 12.6661 29.4865 11.6779L28.6094 12.1582L27.7323 12.6385C28.0896 13.291 28.2832 14.0685 28.2832 15H29.2832ZM28.6094 12.1582L29.4952 11.6942C28.9651 10.6822 28.1592 9.89805 27.1171 9.34226L26.6465 10.2246L26.1759 11.107C26.8916 11.4887 27.3942 11.9935 27.7235 12.6222L28.6094 12.1582ZM26.6465 10.2246L27.1171 9.34226C26.0531 8.77483 24.7756 8.52148 23.3359 8.52148V9.52148V10.5215C24.5525 10.5215 25.482 10.7369 26.1759 11.107L26.6465 10.2246ZM23.3359 9.52148V8.52148C21.952 8.52148 20.7202 8.73033 19.6778 9.19361L20.084 10.1074L20.4901 11.0212C21.2055 10.7033 22.1417 10.5215 23.3359 10.5215V9.52148ZM20.084 10.1074L19.6778 9.19361C18.6623 9.64495 17.8369 10.2816 17.2635 11.1291L18.0918 11.6895L18.9201 12.2498C19.2452 11.7692 19.7478 11.3511 20.4901 11.0212L20.084 10.1074ZM18.0918 11.6895L17.2714 11.1177C16.706 11.9289 16.418 12.8412 16.418 13.8281H17.418H18.418C18.418 13.2526 18.5792 12.739 18.9122 12.2612L18.0918 11.6895ZM17.418 13.8281H16.418C16.418 14.6665 16.6502 15.4461 17.1133 16.1406L17.9453 15.5859L18.7774 15.0312C18.5373 14.6711 18.418 14.2788 18.418 13.8281H17.418ZM17.9453 15.5859L17.1379 16.176C17.5928 16.7984 18.2032 17.3529 18.9377 17.8498L19.498 17.0215L20.0584 16.1932C19.4648 15.7917 19.04 15.3891 18.7527 14.9959L17.9453 15.5859ZM19.498 17.0215L18.9489 17.8572C19.6928 18.3461 20.5678 18.8023 21.5651 19.2297L21.959 18.3105L22.3529 17.3914C21.4361 16.9985 20.6705 16.5953 20.0472 16.1858L19.498 17.0215ZM21.959 18.3105L21.5718 19.2325C22.5792 19.6557 23.7003 20.0657 24.9332 20.4634L25.2402 19.5117L25.5472 18.56C24.3583 18.1765 23.2919 17.7857 22.3462 17.3886L21.959 18.3105ZM25.2402 19.5117L24.9364 20.4644C27.1601 21.1737 29.1197 21.9646 30.8203 22.8338L31.2754 21.9434L31.7305 21.0529C29.9154 20.1252 27.8516 19.295 25.5441 18.559L25.2402 19.5117ZM31.2754 21.9434L30.8321 22.8397C32.5384 23.6835 33.9475 24.6368 35.0747 25.6912L35.7578 24.9609L36.441 24.2307C35.1463 23.0195 33.5671 21.961 31.7187 21.047L31.2754 21.9434ZM35.7578 24.9609L35.0869 25.7025C36.2196 26.7273 37.0605 27.883 37.6251 29.171L38.541 28.7695L39.4569 28.3681C38.7715 26.8045 37.7569 25.4211 36.4287 24.2194L35.7578 24.9609ZM38.541 28.7695L37.6298 29.1815C38.2077 30.4599 38.5078 31.9277 38.5078 33.6035H39.5078H40.5078C40.5078 31.6856 40.1634 29.9307 39.4522 28.3576L38.541 28.7695ZM39.5078 33.6035H38.5078C38.5078 35.3862 38.1629 36.9283 37.5001 38.254L38.3945 38.7012L39.289 39.1484C40.1105 37.5053 40.5078 35.649 40.5078 33.6035H39.5078ZM38.3945 38.7012L37.5001 38.254C36.8307 39.5928 35.8702 40.7332 34.603 41.6791L35.2012 42.4805L35.7994 43.2818C37.3056 42.1575 38.474 40.7783 39.289 39.1484L38.3945 38.7012ZM35.2012 42.4805L34.6103 41.6737C33.3372 42.6061 31.7924 43.3297 29.9576 43.8302L30.2207 44.7949L30.4838 45.7597C32.5161 45.2054 34.2917 44.3861 35.792 43.2872L35.2012 42.4805ZM30.2207 44.7949L29.9576 43.8302C28.1241 44.3302 26.0562 44.5859 23.7461 44.5859V45.5859V46.5859C26.2016 46.5859 28.4501 46.3143 30.4838 45.7597L30.2207 44.7949ZM23.7461 45.5859V44.5859C21.6429 44.5859 19.5683 44.3232 17.5203 43.7971L17.2715 44.7656L17.0227 45.7342C19.2325 46.3018 21.4743 46.5859 23.7461 46.5859V45.5859ZM17.2715 44.7656L17.5308 43.7998C15.5215 43.2603 13.7089 42.4449 12.0862 41.3569L11.5293 42.1875L10.9724 43.0181C12.7872 44.2348 14.8028 45.1382 17.0122 45.7314L17.2715 44.7656ZM11.5293 42.1875L12.0926 41.3613C10.5002 40.2755 9.22748 38.8949 8.26725 37.2099L7.39844 37.7051L6.52962 38.2002C7.6397 40.1481 9.12087 41.7557 10.966 43.0137L11.5293 42.1875ZM7.39844 37.7051L8.27347 37.221C7.3548 35.5603 6.875 33.556 6.875 31.1719H5.875H4.875C4.875 33.8268 5.41083 36.1779 6.5234 38.1891L7.39844 37.7051ZM5.875 31.1719V32.1719H16.1875V31.1719V30.1719H5.875V31.1719ZM16.1875 31.1719H15.1875C15.1875 32.504 15.3635 33.689 15.7527 34.6963L16.6855 34.3359L17.6183 33.9755C17.3435 33.2641 17.1875 32.3398 17.1875 31.1719H16.1875ZM16.6855 34.3359L15.7527 34.6963C16.1404 35.6996 16.7248 36.5417 17.5172 37.19L18.1504 36.416L18.7836 35.6421C18.2869 35.2357 17.8948 34.691 17.6183 33.9755L16.6855 34.3359ZM18.1504 36.416L17.5315 37.2015C18.305 37.8109 19.2304 38.2368 20.2809 38.4994L20.5234 37.5293L20.766 36.5592C19.9415 36.353 19.2848 36.0367 18.7693 35.6305L18.1504 36.416ZM20.5234 37.5293L20.3001 38.504C21.3268 38.7393 22.4784 38.8516 23.7461 38.8516V37.8516V36.8516C22.5919 36.8516 21.5951 36.749 20.7468 36.5546L20.5234 37.5293ZM23.7461 37.8516V38.8516C25.1358 38.8516 26.3502 38.6566 27.3306 38.2022L26.9102 37.2949L26.4897 36.3876C25.8686 36.6755 24.9736 36.8516 23.7461 36.8516V37.8516ZM26.9102 37.2949L27.3486 38.1937C28.2849 37.737 29.0367 37.1092 29.5278 36.282L28.668 35.7715L27.8081 35.2609C27.5571 35.6838 27.137 36.0716 26.4717 36.3962L26.9102 37.2949ZM28.668 35.7715L29.5346 36.2705C29.9953 35.4703 30.2246 34.5945 30.2246 33.6621H29.2246H28.2246C28.2246 34.2531 28.0829 34.7836 27.8013 35.2725L28.668 35.7715ZM67.9551 2.34375V1.34375H66.9551V2.34375H67.9551ZM78.2383 2.34375H79.2383V1.34375H78.2383V2.34375ZM76.1582 38.6426L77.0131 39.1614L77.0151 39.1581L76.1582 38.6426ZM52.6914 43.8281L52.2697 44.7349L52.2723 44.7361L52.6914 43.8281ZM46.7734 38.6426L45.9198 39.1635L45.925 39.1719L46.7734 38.6426ZM44.6641 2.34375V1.34375H43.6641V2.34375H44.6641ZM54.9766 2.34375H55.9766V1.34375H54.9766V2.34375ZM55.7383 34.5117L54.8284 34.9267L54.8313 34.9328L55.7383 34.5117ZM65.0547 36.9141L65.5234 37.7974L65.0547 36.9141ZM67.2227 34.5117L68.1358 34.9194L68.1384 34.9134L67.2227 34.5117ZM67.9551 2.34375V3.34375H78.2383V2.34375V1.34375H67.9551V2.34375ZM78.2383 2.34375H77.2383V30.2051H78.2383H79.2383V2.34375H78.2383ZM78.2383 30.2051H77.2383C77.2383 33.3861 76.5747 36.0107 75.3014 38.127L76.1582 38.6426L77.0151 39.1581C78.5151 36.6651 79.2383 33.6646 79.2383 30.2051H78.2383ZM76.1582 38.6426L75.3033 38.1238C74.0223 40.2347 72.2315 41.8315 69.9037 42.9227L70.3281 43.8281L70.7526 44.7336C73.4248 43.481 75.5206 41.6208 77.0131 39.1614L76.1582 38.6426ZM70.3281 43.8281L69.9037 42.9227C67.5628 44.0199 64.7741 44.5859 61.5098 44.5859V45.5859V46.5859C65.0032 46.5859 68.0934 45.9801 70.7526 44.7336L70.3281 43.8281ZM61.5098 45.5859V44.5859C58.2869 44.5859 55.4951 44.0208 53.1105 42.9202L52.6914 43.8281L52.2723 44.7361C54.9658 45.9792 58.0529 46.5859 61.5098 46.5859V45.5859ZM52.6914 43.8281L53.1131 42.9214C50.7635 41.8286 48.9416 40.2285 47.6218 38.1132L46.7734 38.6426L45.925 39.1719C47.4568 41.627 49.5802 43.4839 52.2697 44.7348L52.6914 43.8281ZM46.7734 38.6426L47.6271 38.1217C46.3364 36.0064 45.6641 33.3838 45.6641 30.2051H44.6641H43.6641C43.6641 33.667 44.398 36.6694 45.9198 39.1634L46.7734 38.6426ZM44.6641 30.2051H45.6641V2.34375H44.6641H43.6641V30.2051H44.6641ZM44.6641 2.34375V3.34375H54.9766V2.34375V1.34375H44.6641V2.34375ZM54.9766 2.34375H53.9766V30.2051H54.9766H55.9766V2.34375H54.9766ZM54.9766 30.2051H53.9766C53.9766 32.0483 54.2412 33.6392 54.8285 34.9267L55.7383 34.5117L56.6481 34.0967C56.2198 33.1577 55.9766 31.8775 55.9766 30.2051H54.9766ZM55.7383 34.5117L54.8313 34.9328C55.4227 36.2066 56.312 37.1817 57.5035 37.8013L57.9648 36.9141L58.4262 36.0268C57.6645 35.6308 57.0695 35.0043 56.6453 34.0906L55.7383 34.5117ZM57.9648 36.9141L57.5035 37.8013C58.6548 38.4 60.0032 38.6758 61.5098 38.6758V37.6758V36.6758C60.2429 36.6758 59.228 36.4438 58.4262 36.0268L57.9648 36.9141ZM61.5098 37.6758V38.6758C63.0322 38.6758 64.3854 38.4012 65.5234 37.7974L65.0547 36.9141L64.586 36.0307C63.8099 36.4425 62.7998 36.6758 61.5098 36.6758V37.6758ZM65.0547 36.9141L65.5234 37.7974C66.6984 37.1739 67.5667 36.194 68.1358 34.9194L67.2227 34.5117L66.3095 34.1041C65.902 35.0169 65.325 35.6386 64.586 36.0307L65.0547 36.9141ZM67.2227 34.5117L68.1384 34.9134C68.7013 33.6302 68.9551 32.0444 68.9551 30.2051H67.9551H66.9551C66.9551 31.8814 66.7206 33.1667 66.3069 34.1101L67.2227 34.5117ZM67.9551 30.2051H68.9551V2.34375H67.9551H66.9551V30.2051H67.9551ZM91.1289 30.5273H90.1289V31.5273H91.1289V30.5273ZM91.1289 22.5879V21.5879H90.1289V22.5879H91.1289ZM107.213 19.834L106.314 19.3948L106.31 19.4033L107.213 19.834ZM107.213 13.623L106.288 14.0038L106.291 14.0115L106.295 14.0191L107.213 13.623ZM105.25 11.2207L104.679 12.0416L104.685 12.0458L104.691 12.05L105.25 11.2207ZM94.9961 10.2832V9.2832H93.9961V10.2832H94.9961ZM94.9961 45V46H95.9961V45H94.9961ZM84.7129 45H83.7129V46H84.7129V45ZM84.7129 2.34375V1.34375H83.7129V2.34375H84.7129ZM110.553 4.21875L110.1 5.11033L110.103 5.11177L110.553 4.21875ZM116.266 9.375L115.411 9.89398L115.413 9.89738L116.266 9.375ZM110.553 28.8281L110.971 29.7365L110.974 29.735L110.553 28.8281ZM101.734 30.5273V29.5273H91.1289V30.5273V31.5273H101.734V30.5273ZM91.1289 30.5273H92.1289V22.5879H91.1289H90.1289V30.5273H91.1289ZM91.1289 22.5879V23.5879H101.734V22.5879V21.5879H91.1289V22.5879ZM101.734 22.5879V23.5879C103.282 23.5879 104.634 23.3282 105.728 22.7341L105.25 21.8555L104.772 20.9768C104.069 21.3593 103.078 21.5879 101.734 21.5879V22.5879ZM105.25 21.8555L105.728 22.7341C106.797 22.153 107.607 21.3288 108.115 20.2647L107.213 19.834L106.31 19.4033C105.998 20.0579 105.5 20.5814 104.772 20.9768L105.25 21.8555ZM107.213 19.834L108.111 20.2732C108.615 19.2421 108.857 18.1028 108.857 16.875H107.857H106.857C106.857 17.8347 106.67 18.668 106.315 19.3948L107.213 19.834ZM107.857 16.875H108.857C108.857 15.578 108.619 14.3579 108.131 13.227L107.213 13.623L106.295 14.0191C106.666 14.8804 106.857 15.8283 106.857 16.875H107.857ZM107.213 13.623L108.138 13.2423C107.652 12.0628 106.87 11.1064 105.809 10.3914L105.25 11.2207L104.691 12.05C105.427 12.5459 105.954 13.1911 106.288 14.0038L107.213 13.623ZM105.25 11.2207L105.821 10.3998C104.709 9.62605 103.319 9.2832 101.734 9.2832V10.2832V11.2832C103.04 11.2832 103.994 11.5654 104.679 12.0416L105.25 11.2207ZM101.734 10.2832V9.2832H94.9961V10.2832V11.2832H101.734V10.2832ZM94.9961 10.2832H93.9961V45H94.9961H95.9961V10.2832H94.9961ZM94.9961 45V44H84.7129V45V46H94.9961V45ZM84.7129 45H85.7129V2.34375H84.7129H83.7129V45H84.7129ZM84.7129 2.34375V3.34375H101.734V2.34375V1.34375H84.7129V2.34375ZM101.734 2.34375V3.34375C105.032 3.34375 107.809 3.94658 110.1 5.11033L110.553 4.21875L111.006 3.32717C108.375 1.99092 105.273 1.34375 101.734 1.34375V2.34375ZM110.553 4.21875L110.103 5.11177C112.431 6.28494 114.188 7.88024 115.411 9.89398L116.266 9.375L117.12 8.85602C115.687 6.49476 113.636 4.65256 111.003 3.32573L110.553 4.21875ZM116.266 9.375L115.413 9.89738C116.635 11.8929 117.258 14.189 117.258 16.8164H118.258H119.258C119.258 13.8578 118.552 11.1931 117.118 8.85262L116.266 9.375ZM118.258 16.8164H117.258C117.258 19.4027 116.637 21.611 115.426 23.4799L116.266 24.0234L117.105 24.567C118.551 22.3343 119.258 19.7379 119.258 16.8164H118.258ZM116.266 24.0234L115.426 23.4799C114.212 25.3542 112.462 26.8384 110.131 27.9212L110.553 28.8281L110.974 29.735C113.604 28.5131 115.663 26.7942 117.105 24.567L116.266 24.0234ZM110.553 28.8281L110.135 27.9197C107.834 28.9786 105.045 29.5273 101.734 29.5273V30.5273V31.5273C105.26 31.5273 108.349 30.9433 110.971 29.7365L110.553 28.8281ZM130.211 30.5273H129.211V31.5273H130.211V30.5273ZM130.211 22.5879V21.5879H129.211V22.5879H130.211ZM146.295 19.834L145.396 19.3948L145.392 19.4033L146.295 19.834ZM146.295 13.623L145.37 14.0038L145.373 14.0115L145.377 14.0191L146.295 13.623ZM144.332 11.2207L143.761 12.0416L143.767 12.0458L143.773 12.05L144.332 11.2207ZM134.078 10.2832V9.2832H133.078V10.2832H134.078ZM134.078 45V46H135.078V45H134.078ZM123.795 45H122.795V46H123.795V45ZM123.795 2.34375V1.34375H122.795V2.34375H123.795ZM149.635 4.21875L149.182 5.11033L149.185 5.11177L149.635 4.21875ZM155.348 9.375L154.493 9.89398L154.495 9.89738L155.348 9.375ZM149.635 28.8281L150.053 29.7365L150.056 29.735L149.635 28.8281ZM140.816 30.5273V29.5273H130.211V30.5273V31.5273H140.816V30.5273ZM130.211 30.5273H131.211V22.5879H130.211H129.211V30.5273H130.211ZM130.211 22.5879V23.5879H140.816V22.5879V21.5879H130.211V22.5879ZM140.816 22.5879V23.5879C142.364 23.5879 143.716 23.3282 144.81 22.7341L144.332 21.8555L143.855 20.9768C143.151 21.3593 142.16 21.5879 140.816 21.5879V22.5879ZM144.332 21.8555L144.81 22.7341C145.879 22.153 146.69 21.3288 147.197 20.2647L146.295 19.834L145.392 19.4033C145.08 20.0579 144.582 20.5814 143.855 20.9768L144.332 21.8555ZM146.295 19.834L147.193 20.2732C147.697 19.2421 147.939 18.1028 147.939 16.875H146.939H145.939C145.939 17.8347 145.752 18.668 145.397 19.3948L146.295 19.834ZM146.939 16.875H147.939C147.939 15.578 147.701 14.3579 147.213 13.227L146.295 13.623L145.377 14.0191C145.748 14.8804 145.939 15.8283 145.939 16.875H146.939ZM146.295 13.623L147.22 13.2423C146.734 12.0628 145.952 11.1064 144.891 10.3914L144.332 11.2207L143.773 12.05C144.509 12.5459 145.036 13.1911 145.37 14.0038L146.295 13.623ZM144.332 11.2207L144.903 10.3998C143.791 9.62605 142.401 9.2832 140.816 9.2832V10.2832V11.2832C142.122 11.2832 143.076 11.5654 143.761 12.0416L144.332 11.2207ZM140.816 10.2832V9.2832H134.078V10.2832V11.2832H140.816V10.2832ZM134.078 10.2832H133.078V45H134.078H135.078V10.2832H134.078ZM134.078 45V44H123.795V45V46H134.078V45ZM123.795 45H124.795V2.34375H123.795H122.795V45H123.795ZM123.795 2.34375V3.34375H140.816V2.34375V1.34375H123.795V2.34375ZM140.816 2.34375V3.34375C144.114 3.34375 146.891 3.94658 149.182 5.11033L149.635 4.21875L150.088 3.32717C147.457 1.99092 144.355 1.34375 140.816 1.34375V2.34375ZM149.635 4.21875L149.185 5.11177C151.513 6.28494 153.27 7.88024 154.493 9.89398L155.348 9.375L156.202 8.85602C154.769 6.49476 152.718 4.65256 150.085 3.32573L149.635 4.21875ZM155.348 9.375L154.495 9.89738C155.717 11.8929 156.34 14.189 156.34 16.8164H157.34H158.34C158.34 13.8578 157.634 11.1931 156.2 8.85262L155.348 9.375ZM157.34 16.8164H156.34C156.34 19.4027 155.719 21.611 154.508 23.4799L155.348 24.0234L156.187 24.567C157.633 22.3343 158.34 19.7379 158.34 16.8164H157.34ZM155.348 24.0234L154.508 23.4799C153.294 25.3542 151.544 26.8384 149.213 27.9212L149.635 28.8281L150.056 29.735C152.686 28.5131 154.745 26.7942 156.187 24.567L155.348 24.0234ZM149.635 28.8281L149.217 27.9197C146.916 28.9786 144.127 29.5273 140.816 29.5273V30.5273V31.5273C144.342 31.5273 147.431 30.9433 150.053 29.7365L149.635 28.8281ZM197.594 33.3398L196.651 33.0066L196.649 33.0108L197.594 33.3398ZM193.756 39.9609L194.494 40.6356L194.498 40.6316L193.756 39.9609ZM187.867 44.1504L188.256 45.0716L188.263 45.0687L187.867 44.1504ZM172.809 44.1504L172.413 45.0688L172.422 45.0728L172.809 44.1504ZM166.891 39.9609L166.149 40.6317L166.156 40.6399L166.891 39.9609ZM163.023 33.3398L162.078 33.6667L162.081 33.6753L163.023 33.3398ZM163.023 14.0332L162.081 13.7L162.078 13.7063L163.023 14.0332ZM166.861 7.41211L166.12 6.7414L166.119 6.74182L166.861 7.41211ZM172.75 3.22266L173.139 4.14385L173.143 4.14221L172.75 3.22266ZM187.809 3.22266L187.413 4.14103L187.422 4.14503L187.809 3.22266ZM193.727 7.41211L192.985 8.08282L192.988 8.08676L193.727 7.41211ZM187.984 17.1973L187.007 17.4092L187.01 17.423L187.984 17.1973ZM186.402 13.125L185.561 13.6658L186.402 13.125ZM183.795 10.6641L183.308 11.5374L183.318 11.543L183.328 11.5483L183.795 10.6641ZM176.734 10.6641L177.208 11.5445L177.215 11.541L177.221 11.5374L176.734 10.6641ZM172.633 17.1973L171.655 16.9853L171.654 16.9943L172.633 17.1973ZM172.633 30.1172L171.653 30.3179L171.656 30.3316L172.633 30.1172ZM174.186 34.1895L173.333 34.7128L173.34 34.7234L174.186 34.1895ZM176.764 36.709L176.277 37.5824L176.284 37.5862L176.764 36.709ZM183.854 36.709L184.341 37.5823L183.854 36.709ZM186.402 34.1895L185.557 33.6554L185.55 33.6662L186.402 34.1895ZM187.984 30.1172L187.01 29.894L187.008 29.9028L187.984 30.1172ZM198.971 22.8223H197.971V24.5508H198.971H199.971V22.8223H198.971ZM198.971 24.5508H197.971C197.971 27.7194 197.525 30.5337 196.651 33.0067L197.594 33.3398L198.537 33.673C199.499 30.9507 199.971 27.9056 199.971 24.5508H198.971ZM197.594 33.3398L196.649 33.0108C195.79 35.4757 194.576 37.5632 193.014 39.2902L193.756 39.9609L194.498 40.6316C196.256 38.6868 197.6 36.3603 198.538 33.6689L197.594 33.3398ZM193.756 39.9609L193.018 39.2863C191.453 40.9979 189.607 42.3114 187.471 43.2321L187.867 44.1504L188.263 45.0687C190.658 44.0362 192.738 42.5568 194.494 40.6356L193.756 39.9609ZM187.867 44.1504L187.478 43.2292C185.349 44.1287 182.983 44.5859 180.367 44.5859V45.5859V46.5859C183.22 46.5859 185.854 46.0861 188.256 45.0716L187.867 44.1504ZM180.367 45.5859V44.5859C177.731 44.5859 175.345 44.1284 173.195 43.228L172.809 44.1504L172.422 45.0728C174.843 46.0865 177.495 46.5859 180.367 46.5859V45.5859ZM172.809 44.1504L173.204 43.2321C171.067 42.311 169.21 40.9962 167.625 39.282L166.891 39.9609L166.156 40.6399C167.931 42.5585 170.018 44.0367 172.413 45.0687L172.809 44.1504ZM166.891 39.9609L167.632 39.2902C166.069 37.5616 164.844 35.4718 163.965 33.0044L163.023 33.3398L162.081 33.6753C163.039 36.3641 164.392 38.6884 166.149 40.6316L166.891 39.9609ZM163.023 33.3398L163.969 33.013C163.113 30.538 162.676 27.7215 162.676 24.5508H161.676H160.676C160.676 27.9035 161.137 30.9464 162.078 33.6667L163.023 33.3398ZM161.676 24.5508H162.676V22.8223H161.676H160.676V24.5508H161.676ZM161.676 22.8223H162.676C162.676 19.6516 163.113 16.835 163.969 14.3601L163.023 14.0332L162.078 13.7063C161.137 16.4267 160.676 19.4695 160.676 22.8223H161.676ZM163.023 14.0332L163.966 14.3664C164.846 11.8777 166.062 9.78922 167.603 8.0824L166.861 7.41211L166.119 6.74182C164.38 8.66781 163.037 10.9934 162.081 13.7L163.023 14.0332ZM166.861 7.41211L167.603 8.08282C169.166 6.35438 171.009 5.04373 173.139 4.14384L172.75 3.22266L172.361 2.30147C169.96 3.31565 167.877 4.79797 166.12 6.7414L166.861 7.41211ZM172.75 3.22266L173.143 4.14221C175.291 3.2242 177.675 2.75781 180.309 2.75781V1.75781V0.757812C177.434 0.757812 174.779 1.26799 172.357 2.30311L172.75 3.22266ZM180.309 1.75781V2.75781C182.922 2.75781 185.285 3.22387 187.413 4.14098L187.809 3.22266L188.204 2.30433C185.801 1.26832 183.164 0.757812 180.309 0.757812V1.75781ZM187.809 3.22266L187.422 4.14503C189.572 5.04536 191.423 6.35596 192.985 8.08282L193.727 7.41211L194.468 6.7414C192.709 4.79638 190.615 3.31402 188.195 2.30028L187.809 3.22266ZM193.727 7.41211L192.988 8.08676C194.548 9.79303 195.772 11.88 196.651 14.3664L197.594 14.0332L198.537 13.7C197.579 10.9911 196.226 8.664 194.465 6.73746L193.727 7.41211ZM197.594 14.0332L196.651 14.3664C197.525 16.8394 197.971 19.6537 197.971 22.8223H198.971H199.971C199.971 19.4674 199.499 16.4223 198.537 13.7L197.594 14.0332ZM188.541 24.5508H189.541V22.7637H188.541H187.541V24.5508H188.541ZM188.541 22.7637H189.541C189.541 20.5985 189.351 18.6645 188.959 16.9715L187.984 17.1973L187.01 17.423C187.36 18.9332 187.541 20.7101 187.541 22.7637H188.541ZM187.984 17.1973L188.962 16.9853C188.591 15.2781 188.026 13.802 187.244 12.5842L186.402 13.125L185.561 13.6658C186.185 14.6355 186.674 15.8742 187.007 17.4092L187.984 17.1973ZM186.402 13.125L187.244 12.5842C186.458 11.3621 185.466 10.4158 184.262 9.77987L183.795 10.6641L183.328 11.5483C184.194 12.0061 184.941 12.7004 185.561 13.6658L186.402 13.125ZM183.795 10.6641L184.282 9.7907C183.1 9.13127 181.766 8.81445 180.309 8.81445V9.81445V10.8145C181.468 10.8145 182.459 11.064 183.308 11.5374L183.795 10.6641ZM180.309 9.81445V8.81445C178.801 8.81445 177.436 9.12773 176.247 9.7907L176.734 10.6641L177.221 11.5374C178.064 11.0676 179.082 10.8145 180.309 10.8145V9.81445ZM176.734 10.6641L176.26 9.78359C175.074 10.4222 174.102 11.3717 173.338 12.595L174.186 13.125L175.034 13.655C175.636 12.6908 176.363 11.9996 177.208 11.5445L176.734 10.6641ZM174.186 13.125L173.338 12.595C172.578 13.81 172.025 15.2822 171.656 16.9853L172.633 17.1973L173.61 17.4092C173.944 15.8702 174.426 14.6275 175.034 13.655L174.186 13.125ZM172.633 17.1973L171.654 16.9943C171.304 18.6786 171.135 20.6046 171.135 22.7637H172.135H173.135C173.135 20.704 173.297 18.9191 173.612 17.4003L172.633 17.1973ZM172.135 22.7637H171.135V24.5508H172.135H173.135V22.7637H172.135ZM172.135 24.5508H171.135C171.135 26.6913 171.305 28.6162 171.653 30.3178L172.633 30.1172L173.612 29.9165C173.297 28.376 173.135 26.5899 173.135 24.5508H172.135ZM172.633 30.1172L171.656 30.3316C172.026 32.0157 172.579 33.4834 173.333 34.7127L174.186 34.1895L175.038 33.6662C174.425 32.6689 173.943 31.4218 173.61 29.9028L172.633 30.1172ZM174.186 34.1895L173.34 34.7234C174.12 35.9591 175.097 36.9243 176.277 37.5823L176.764 36.709L177.251 35.8356C176.399 35.3609 175.657 34.6464 175.031 33.6555L174.186 34.1895ZM176.764 36.709L176.284 37.5862C177.488 38.2451 178.859 38.5586 180.367 38.5586V37.5586V36.5586C179.141 36.5586 178.11 36.3056 177.244 35.8317L176.764 36.709ZM180.367 37.5586V38.5586C181.825 38.5586 183.158 38.2418 184.341 37.5823L183.854 36.709L183.366 35.8356C182.518 36.309 181.527 36.5586 180.367 36.5586V37.5586ZM183.854 36.709L184.341 37.5823C185.524 36.9226 186.493 35.9537 187.255 34.7127L186.402 34.1895L185.55 33.6662C184.945 34.6518 184.215 35.3626 183.366 35.8356L183.854 36.709ZM186.402 34.1895L187.248 34.7234C188.026 33.4913 188.591 32.0198 188.961 30.3316L187.984 30.1172L187.008 29.9028C186.675 31.4177 186.185 32.661 185.557 33.6555L186.402 34.1895ZM187.984 30.1172L188.959 30.3403C189.351 28.6302 189.541 26.6975 189.541 24.5508H188.541H187.541C187.541 26.5838 187.36 28.362 187.01 29.894L187.984 30.1172ZM204.303 2.34375V1.34375H203.303V2.34375H204.303ZM229.645 3.80859L229.271 4.73604L229.645 3.80859ZM235.24 8.14453L234.415 8.70893L234.419 8.71461L235.24 8.14453ZM232.896 25.4297L233.513 26.2172L233.514 26.216L232.896 25.4297ZM228.18 28.0371L227.824 27.1025L227.753 27.1293L227.688 27.1665L228.18 28.0371ZM224.811 29.9414V30.9414H225.074L225.303 30.812L224.811 29.9414ZM210.719 29.9414L209.719 29.9488L209.726 30.9414H210.719V29.9414ZM210.66 22.002V21.002H209.653L209.66 22.0093L210.66 22.002ZM226.275 19.3066L225.385 18.8515L225.381 18.8594L226.275 19.3066ZM224.283 10.9863L223.804 11.8643L223.813 11.8687L224.283 10.9863ZM214.586 10.2832V9.2832H213.586V10.2832H214.586ZM214.586 45V46H215.586V45H214.586ZM204.303 45H203.303V46H204.303V45ZM227.652 45L226.758 45.4472L227.034 46H227.652V45ZM218.219 26.1328L218.213 25.1328L216.605 25.1415L217.324 26.58L218.219 26.1328ZM229.117 26.0742L230.006 25.6152L229.724 25.0709L229.112 25.0742L229.117 26.0742ZM238.668 44.5605H239.668V44.3175L239.556 44.1015L238.668 44.5605ZM238.668 45V46H239.668V45H238.668ZM204.303 2.34375V3.34375H221.09V2.34375V1.34375H204.303V2.34375ZM221.09 2.34375V3.34375C224.275 3.34375 226.994 3.81796 229.271 4.73604L229.645 3.80859L230.018 2.88115C227.452 1.8461 224.468 1.34375 221.09 1.34375V2.34375ZM229.645 3.80859L229.271 4.73604C231.533 5.64843 233.231 6.97783 234.415 8.70891L235.24 8.14453L236.066 7.58015C234.632 5.48311 232.6 3.92188 230.018 2.88115L229.645 3.80859ZM235.24 8.14453L234.419 8.71461C235.608 10.4291 236.232 12.5827 236.232 15.2344H237.232H238.232C238.232 12.2611 237.528 9.68806 236.062 7.57445L235.24 8.14453ZM237.232 15.2344H236.232C236.232 17.5785 235.866 19.4653 235.183 20.9363L236.09 21.3574L236.997 21.7785C237.837 19.9683 238.232 17.7731 238.232 15.2344H237.232ZM236.09 21.3574L235.183 20.9363C234.485 22.4401 233.517 23.6704 232.279 24.6434L232.896 25.4297L233.514 26.216C235.01 25.0405 236.172 23.556 236.997 21.7785L236.09 21.3574ZM232.896 25.4297L232.28 24.6422C231.021 25.6279 229.539 26.4502 227.824 27.1025L228.18 28.0371L228.535 28.9718C230.415 28.2568 232.077 27.3408 233.513 26.2172L232.896 25.4297ZM228.18 28.0371L227.688 27.1665L224.318 29.0708L224.811 29.9414L225.303 30.812L228.672 28.9077L228.18 28.0371ZM224.811 29.9414V28.9414H210.719V29.9414V30.9414H224.811V29.9414ZM210.719 29.9414L211.719 29.934L211.66 21.9946L210.66 22.002L209.66 22.0093L209.719 29.9488L210.719 29.9414ZM210.66 22.002V23.002H221.09V22.002V21.002H210.66V22.002ZM221.09 22.002V23.002C222.512 23.002 223.773 22.7481 224.821 22.1767L224.342 21.2988L223.863 20.4209C223.192 20.7871 222.285 21.002 221.09 21.002V22.002ZM224.342 21.2988L224.821 22.1767C225.856 21.6122 226.647 20.7995 227.17 19.7539L226.275 19.3066L225.381 18.8594C225.044 19.5325 224.547 20.048 223.863 20.4209L224.342 21.2988ZM226.275 19.3066L227.166 19.7618C227.702 18.7135 227.949 17.5057 227.949 16.1719H226.949H225.949C225.949 17.2599 225.748 18.1419 225.385 18.8515L226.275 19.3066ZM226.949 16.1719H227.949C227.949 14.8214 227.703 13.603 227.166 12.5527L226.275 13.0078L225.385 13.4629C225.747 14.1704 225.949 15.0614 225.949 16.1719H226.949ZM226.275 13.0078L227.166 12.5527C226.623 11.4901 225.811 10.668 224.754 10.104L224.283 10.9863L223.813 11.8687C224.513 12.2422 225.03 12.7678 225.385 13.4629L226.275 13.0078ZM224.283 10.9863L224.762 10.1084C223.719 9.53926 222.478 9.2832 221.09 9.2832V10.2832V11.2832C222.24 11.2832 223.129 11.4959 223.804 11.8642L224.283 10.9863ZM221.09 10.2832V9.2832H214.586V10.2832V11.2832H221.09V10.2832ZM214.586 10.2832H213.586V45H214.586H215.586V10.2832H214.586ZM214.586 45V44H204.303V45V46H214.586V45ZM204.303 45H205.303V2.34375H204.303H203.303V45H204.303ZM227.652 45L228.547 44.5528L219.113 25.6856L218.219 26.1328L217.324 26.58L226.758 45.4472L227.652 45ZM218.219 26.1328L218.224 27.1328L229.123 27.0742L229.117 26.0742L229.112 25.0742L218.213 25.1328L218.219 26.1328ZM229.117 26.0742L228.229 26.5332L237.78 45.0195L238.668 44.5605L239.556 44.1015L230.006 25.6152L229.117 26.0742ZM238.668 44.5605H237.668V45H238.668H239.668V44.5605H238.668ZM238.668 45V44H227.652V45V46H238.668V45ZM262.633 2.34375H263.633V1.34375H262.633V2.34375ZM262.633 45V46H263.633V45H262.633ZM252.35 45H251.35V46H252.35V45ZM252.35 2.34375V1.34375H251.35V2.34375H252.35ZM275.465 2.34375H276.465V1.34375H275.465V2.34375ZM275.465 10.2832V11.2832H276.465V10.2832H275.465ZM239.811 10.2832H238.811V11.2832H239.811V10.2832ZM239.811 2.34375V1.34375H238.811V2.34375H239.811ZM262.633 2.34375H261.633V45H262.633H263.633V2.34375H262.633ZM262.633 45V44H252.35V45V46H262.633V45ZM252.35 45H253.35V2.34375H252.35H251.35V45H252.35ZM252.35 2.34375V3.34375H262.633V2.34375V1.34375H252.35V2.34375ZM275.465 2.34375H274.465V10.2832H275.465H276.465V2.34375H275.465ZM275.465 10.2832V9.2832H239.811V10.2832V11.2832H275.465V10.2832ZM239.811 10.2832H240.811V2.34375H239.811H238.811V10.2832H239.811ZM239.811 2.34375V3.34375H275.465V2.34375V1.34375H239.811V2.34375ZM316.158 2.34375V1.34375H315.158V2.34375H316.158ZM326.441 2.34375H327.441V1.34375H326.441V2.34375ZM324.361 38.6426L325.216 39.1614L325.218 39.1581L324.361 38.6426ZM300.895 43.8281L300.473 44.7349L300.475 44.7361L300.895 43.8281ZM294.977 38.6426L294.123 39.1635L294.128 39.1719L294.977 38.6426ZM292.867 2.34375V1.34375H291.867V2.34375H292.867ZM303.18 2.34375H304.18V1.34375H303.18V2.34375ZM303.941 34.5117L303.032 34.9267L303.034 34.9328L303.941 34.5117ZM313.258 36.9141L313.727 37.7974L313.258 36.9141ZM315.426 34.5117L316.339 34.9194L316.342 34.9134L315.426 34.5117ZM316.158 2.34375V3.34375H326.441V2.34375V1.34375H316.158V2.34375ZM326.441 2.34375H325.441V30.2051H326.441H327.441V2.34375H326.441ZM326.441 30.2051H325.441C325.441 33.3861 324.778 36.0107 323.504 38.127L324.361 38.6426L325.218 39.1581C326.718 36.6651 327.441 33.6646 327.441 30.2051H326.441ZM324.361 38.6426L323.506 38.1238C322.225 40.2347 320.435 41.8315 318.107 42.9227L318.531 43.8281L318.956 44.7336C321.628 43.481 323.724 41.6208 325.216 39.1614L324.361 38.6426ZM318.531 43.8281L318.107 42.9227C315.766 44.0199 312.977 44.5859 309.713 44.5859V45.5859V46.5859C313.206 46.5859 316.297 45.9801 318.956 44.7336L318.531 43.8281ZM309.713 45.5859V44.5859C306.49 44.5859 303.698 44.0208 301.314 42.9202L300.895 43.8281L300.475 44.7361C303.169 45.9792 306.256 46.5859 309.713 46.5859V45.5859ZM300.895 43.8281L301.316 42.9214C298.967 41.8286 297.145 40.2285 295.825 38.1132L294.977 38.6426L294.128 39.1719C295.66 41.627 297.783 43.4839 300.473 44.7348L300.895 43.8281ZM294.977 38.6426L295.83 38.1217C294.539 36.0064 293.867 33.3838 293.867 30.2051H292.867H291.867C291.867 33.667 292.601 36.6694 294.123 39.1634L294.977 38.6426ZM292.867 30.2051H293.867V2.34375H292.867H291.867V30.2051H292.867ZM292.867 2.34375V3.34375H303.18V2.34375V1.34375H292.867V2.34375ZM303.18 2.34375H302.18V30.2051H303.18H304.18V2.34375H303.18ZM303.18 30.2051H302.18C302.18 32.0483 302.444 33.6392 303.032 34.9267L303.941 34.5117L304.851 34.0967C304.423 33.1577 304.18 31.8775 304.18 30.2051H303.18ZM303.941 34.5117L303.034 34.9328C303.626 36.2066 304.515 37.1817 305.707 37.8013L306.168 36.9141L306.629 36.0268C305.868 35.6308 305.273 35.0043 304.848 34.0906L303.941 34.5117ZM306.168 36.9141L305.707 37.8013C306.858 38.4 308.206 38.6758 309.713 38.6758V37.6758V36.6758C308.446 36.6758 307.431 36.4438 306.629 36.0268L306.168 36.9141ZM309.713 37.6758V38.6758C311.235 38.6758 312.589 38.4012 313.727 37.7974L313.258 36.9141L312.789 36.0307C312.013 36.4425 311.003 36.6758 309.713 36.6758V37.6758ZM313.258 36.9141L313.727 37.7974C314.902 37.1739 315.77 36.194 316.339 34.9194L315.426 34.5117L314.513 34.1041C314.105 35.0169 313.528 35.6386 312.789 36.0307L313.258 36.9141ZM315.426 34.5117L316.342 34.9134C316.904 33.6302 317.158 32.0444 317.158 30.2051H316.158H315.158C315.158 31.8814 314.924 33.1667 314.51 34.1101L315.426 34.5117ZM316.158 30.2051H317.158V2.34375H316.158H315.158V30.2051H316.158ZM354.596 31.875L353.654 32.2114L353.658 32.2223L354.596 31.875ZM351.227 28.9453L350.779 29.8397L350.79 29.8451L350.801 29.8501L351.227 28.9453ZM347.359 27.4219L347.043 28.3706L347.047 28.3717L347.359 27.4219ZM341.939 25.3125L341.521 26.2208L341.53 26.2246L341.939 25.3125ZM337.281 22.5293L336.663 23.3156L336.67 23.3211L337.281 22.5293ZM334.029 18.7793L333.155 19.2639L333.157 19.269L334.029 18.7793ZM334.059 8.78906L334.931 9.27767L334.934 9.27275L334.059 8.78906ZM337.486 5.00977L338.063 5.82644L338.066 5.82495L337.486 5.00977ZM342.701 2.60742L342.966 3.57179L342.975 3.5693L342.701 2.60742ZM357.496 3.39844L357.079 4.30731L357.088 4.31133L357.496 3.39844ZM363.121 7.99805L362.293 8.55839L362.299 8.56768L363.121 7.99805ZM365.172 15V16H366.172V15H365.172ZM354.947 15H353.947V16H354.947V15ZM354.273 12.1582L353.388 12.6222L353.392 12.6304L353.396 12.6385L354.273 12.1582ZM343.756 11.6895L344.576 12.2613L344.584 12.2498L343.756 11.6895ZM343.609 15.5859L342.777 16.1406L342.789 16.1586L342.802 16.176L343.609 15.5859ZM345.162 17.0215L344.602 17.8498L344.613 17.8572L345.162 17.0215ZM347.623 18.3105L347.229 19.2297L347.236 19.2325L347.623 18.3105ZM350.904 19.5117L350.597 20.4634L350.6 20.4644L350.904 19.5117ZM356.939 21.9434L356.484 22.8339L356.496 22.8397L356.939 21.9434ZM361.422 24.9609L360.739 25.6912L360.745 25.6969L360.751 25.7025L361.422 24.9609ZM364.205 28.7695L363.289 29.171L363.294 29.1815L364.205 28.7695ZM360.865 42.4805L361.456 43.2873L361.463 43.2818L360.865 42.4805ZM342.936 44.7656L342.676 45.7315L342.687 45.7342L342.936 44.7656ZM337.193 42.1875L336.63 43.0138L336.636 43.0181L337.193 42.1875ZM333.062 37.7051L332.187 38.1892L332.194 38.2002L333.062 37.7051ZM331.539 31.1719V30.1719H330.539V31.1719H331.539ZM341.852 31.1719H342.852V30.1719H341.852V31.1719ZM343.814 36.416L343.181 37.19L343.188 37.1958L343.196 37.2015L343.814 36.416ZM346.188 37.5293L345.945 38.4994L345.955 38.5018L345.964 38.504L346.188 37.5293ZM352.574 37.2949L352.995 38.2022L353.004 38.1981L353.013 38.1937L352.574 37.2949ZM354.332 35.7715L355.192 36.2821L355.199 36.2705L354.332 35.7715ZM354.889 33.6621H355.889C355.889 32.9005 355.777 32.1843 355.533 31.5277L354.596 31.875L353.658 32.2223C353.805 32.6204 353.889 33.0956 353.889 33.6621H354.889ZM354.596 31.875L355.537 31.5387C355.275 30.803 354.802 30.1607 354.176 29.6042L353.512 30.3516L352.847 31.099C353.276 31.48 353.526 31.8532 353.654 32.2113L354.596 31.875ZM353.512 30.3516L354.176 29.6042C353.549 29.0466 352.692 28.5299 351.652 28.0405L351.227 28.9453L350.801 29.8501C351.753 30.2982 352.42 30.719 352.847 31.099L353.512 30.3516ZM351.227 28.9453L351.674 28.0509C350.637 27.5326 349.298 27.0073 347.672 26.472L347.359 27.4219L347.047 28.3717C348.624 28.8911 349.863 29.3815 350.779 29.8397L351.227 28.9453ZM347.359 27.4219L347.676 26.4732C345.831 25.8584 344.056 25.1674 342.349 24.4004L341.939 25.3125L341.53 26.2246C343.299 27.0201 345.137 27.7353 347.043 28.3706L347.359 27.4219ZM341.939 25.3125L342.358 24.4042C340.681 23.6316 339.194 22.7416 337.892 21.7375L337.281 22.5293L336.67 23.3211C338.103 24.4263 339.722 25.3919 341.521 26.2208L341.939 25.3125ZM337.281 22.5293L337.899 21.743C336.629 20.7448 335.634 19.5936 334.901 18.2896L334.029 18.7793L333.157 19.269C334.027 20.8165 335.199 22.1654 336.663 23.3156L337.281 22.5293ZM334.029 18.7793L334.904 18.2947C334.198 17.0197 333.828 15.5118 333.828 13.7402H332.828H331.828C331.828 15.7968 332.259 17.6483 333.155 19.2639L334.029 18.7793ZM332.828 13.7402H333.828C333.828 12.059 334.202 10.5795 334.931 9.27767L334.059 8.78906L333.186 8.30046C332.275 9.92829 331.828 11.7496 331.828 13.7402H332.828ZM334.059 8.78906L334.934 9.27275C335.677 7.92802 336.715 6.77965 338.063 5.82643L337.486 5.00977L336.909 4.1931C335.328 5.3102 334.081 6.68136 333.183 8.30538L334.059 8.78906ZM337.486 5.00977L338.066 5.82495C339.443 4.84644 341.071 4.09179 342.966 3.57175L342.701 2.60742L342.436 1.6431C340.347 2.2168 338.499 3.06372 336.907 4.19458L337.486 5.00977ZM342.701 2.60742L342.975 3.5693C344.866 3.03146 346.951 2.75781 349.234 2.75781V1.75781V0.757812C346.791 0.757812 344.52 1.05058 342.428 1.64554L342.701 2.60742ZM349.234 1.75781V2.75781C352.243 2.75781 354.85 3.284 357.079 4.30727L357.496 3.39844L357.913 2.48961C355.377 1.32537 352.476 0.757812 349.234 0.757812V1.75781ZM357.496 3.39844L357.088 4.31133C359.337 5.31688 361.059 6.73493 362.293 8.55836L363.121 7.99805L363.949 7.43774C362.488 5.27678 360.46 3.62843 357.904 2.48555L357.496 3.39844ZM363.121 7.99805L362.299 8.56768C363.536 10.3528 364.172 12.4822 364.172 15H365.172H366.172C366.172 12.1271 365.44 9.58858 363.943 7.42841L363.121 7.99805ZM365.172 15V14H354.947V15V16H365.172V15ZM354.947 15H355.947C355.947 13.7831 355.692 12.6661 355.151 11.6779L354.273 12.1582L353.396 12.6385C353.754 13.291 353.947 14.0685 353.947 15H354.947ZM354.273 12.1582L355.159 11.6942C354.629 10.6822 353.823 9.89805 352.781 9.34226L352.311 10.2246L351.84 11.107C352.556 11.4887 353.058 11.9935 353.388 12.6222L354.273 12.1582ZM352.311 10.2246L352.781 9.34226C351.717 8.77483 350.44 8.52148 349 8.52148V9.52148V10.5215C350.217 10.5215 351.146 10.7369 351.84 11.107L352.311 10.2246ZM349 9.52148V8.52148C347.616 8.52148 346.384 8.73033 345.342 9.19361L345.748 10.1074L346.154 11.0212C346.87 10.7033 347.806 10.5215 349 10.5215V9.52148ZM345.748 10.1074L345.342 9.19361C344.326 9.64495 343.501 10.2816 342.928 11.1291L343.756 11.6895L344.584 12.2498C344.909 11.7692 345.412 11.3511 346.154 11.0212L345.748 10.1074ZM343.756 11.6895L342.935 11.1177C342.37 11.9289 342.082 12.8412 342.082 13.8281H343.082H344.082C344.082 13.2526 344.243 12.739 344.576 12.2612L343.756 11.6895ZM343.082 13.8281H342.082C342.082 14.6665 342.314 15.4461 342.777 16.1406L343.609 15.5859L344.441 15.0312C344.201 14.6711 344.082 14.2788 344.082 13.8281H343.082ZM343.609 15.5859L342.802 16.176C343.257 16.7984 343.867 17.3529 344.602 17.8498L345.162 17.0215L345.722 16.1932C345.129 15.7917 344.704 15.3891 344.417 14.9959L343.609 15.5859ZM345.162 17.0215L344.613 17.8572C345.357 18.3461 346.232 18.8023 347.229 19.2297L347.623 18.3105L348.017 17.3914C347.1 16.9985 346.335 16.5953 345.711 16.1858L345.162 17.0215ZM347.623 18.3105L347.236 19.2325C348.243 19.6557 349.364 20.0657 350.597 20.4634L350.904 19.5117L351.211 18.56C350.022 18.1765 348.956 17.7857 348.01 17.3886L347.623 18.3105ZM350.904 19.5117L350.6 20.4644C352.824 21.1737 354.784 21.9646 356.484 22.8338L356.939 21.9434L357.395 21.0529C355.579 20.1252 353.516 19.295 351.208 18.559L350.904 19.5117ZM356.939 21.9434L356.496 22.8397C358.202 23.6835 359.612 24.6368 360.739 25.6912L361.422 24.9609L362.105 24.2307C360.81 23.0195 359.231 21.961 357.383 21.047L356.939 21.9434ZM361.422 24.9609L360.751 25.7025C361.884 26.7273 362.725 27.883 363.289 29.171L364.205 28.7695L365.121 28.3681C364.436 26.8045 363.421 25.4211 362.093 24.2194L361.422 24.9609ZM364.205 28.7695L363.294 29.1815C363.872 30.4599 364.172 31.9277 364.172 33.6035H365.172H366.172C366.172 31.6856 365.827 29.9307 365.116 28.3576L364.205 28.7695ZM365.172 33.6035H364.172C364.172 35.3862 363.827 36.9283 363.164 38.254L364.059 38.7012L364.953 39.1484C365.775 37.5053 366.172 35.649 366.172 33.6035H365.172ZM364.059 38.7012L363.164 38.254C362.495 39.5928 361.534 40.7332 360.267 41.6791L360.865 42.4805L361.463 43.2818C362.97 42.1575 364.138 40.7783 364.953 39.1484L364.059 38.7012ZM360.865 42.4805L360.274 41.6737C359.001 42.6061 357.457 43.3297 355.622 43.8302L355.885 44.7949L356.148 45.7597C358.18 45.2054 359.956 44.3861 361.456 43.2872L360.865 42.4805ZM355.885 44.7949L355.622 43.8302C353.788 44.3302 351.72 44.5859 349.41 44.5859V45.5859V46.5859C351.866 46.5859 354.114 46.3143 356.148 45.7597L355.885 44.7949ZM349.41 45.5859V44.5859C347.307 44.5859 345.232 44.3232 343.184 43.7971L342.936 44.7656L342.687 45.7342C344.897 46.3018 347.138 46.5859 349.41 46.5859V45.5859ZM342.936 44.7656L343.195 43.7998C341.186 43.2603 339.373 42.4449 337.75 41.3569L337.193 42.1875L336.636 43.0181C338.451 44.2348 340.467 45.1382 342.676 45.7314L342.936 44.7656ZM337.193 42.1875L337.757 41.3613C336.164 40.2755 334.892 38.8949 333.931 37.2099L333.062 37.7051L332.194 38.2002C333.304 40.1481 334.785 41.7557 336.63 43.0137L337.193 42.1875ZM333.062 37.7051L333.938 37.221C333.019 35.5603 332.539 33.556 332.539 31.1719H331.539H330.539C330.539 33.8268 331.075 36.1779 332.187 38.1891L333.062 37.7051ZM331.539 31.1719V32.1719H341.852V31.1719V30.1719H331.539V31.1719ZM341.852 31.1719H340.852C340.852 32.504 341.028 33.689 341.417 34.6963L342.35 34.3359L343.282 33.9755C343.008 33.2641 342.852 32.3398 342.852 31.1719H341.852ZM342.35 34.3359L341.417 34.6963C341.804 35.6996 342.389 36.5417 343.181 37.19L343.814 36.416L344.448 35.6421C343.951 35.2357 343.559 34.691 343.282 33.9755L342.35 34.3359ZM343.814 36.416L343.196 37.2015C343.969 37.8109 344.894 38.2368 345.945 38.4994L346.188 37.5293L346.43 36.5592C345.606 36.353 344.949 36.0367 344.433 35.6305L343.814 36.416ZM346.188 37.5293L345.964 38.504C346.991 38.7393 348.142 38.8516 349.41 38.8516V37.8516V36.8516C348.256 36.8516 347.259 36.749 346.411 36.5546L346.188 37.5293ZM349.41 37.8516V38.8516C350.8 38.8516 352.014 38.6566 352.995 38.2022L352.574 37.2949L352.154 36.3876C351.533 36.6755 350.638 36.8516 349.41 36.8516V37.8516ZM352.574 37.2949L353.013 38.1937C353.949 37.737 354.701 37.1092 355.192 36.282L354.332 35.7715L353.472 35.2609C353.221 35.6838 352.801 36.0716 352.136 36.3962L352.574 37.2949ZM354.332 35.7715L355.199 36.2705C355.659 35.4703 355.889 34.5945 355.889 33.6621H354.889H353.889C353.889 34.2531 353.747 34.7836 353.465 35.2725L354.332 35.7715Z" fill="#DD6408" mask="url(#path-1-outside-1_111_463)"/>
</g>
<defs>
<filter id="filter0_ddn_111_463" x="0.875" y="0.757812" width="369.297" height="53.8281" filterUnits="userSpaceOnUse" color-interpolation-filters="sRGB">
<feFlood flood-opacity="0" result="BackgroundImageFix"/>
<feColorMatrix in="SourceAlpha" type="matrix" values="0 0 0 0 0 0 0 0 0 0 0 0 0 0 0 0 0 0 127 0" result="hardAlpha"/>
<feOffset dy="4"/>
<feGaussianBlur stdDeviation="2"/>
<feComposite in2="hardAlpha" operator="out"/>
<feColorMatrix type="matrix" values="0 0 0 0 0 0 0 0 0 0 0 0 0 0 0 0 0 0 0.25 0"/>
<feBlend mode="normal" in2="BackgroundImageFix" result="effect1_dropShadow_111_463"/>
<feColorMatrix in="SourceAlpha" type="matrix" values="0 0 0 0 0 0 0 0 0 0 0 0 0 0 0 0 0 0 127 0" result="hardAlpha"/>
<feOffset dy="4"/>
<feGaussianBlur stdDeviation="2"/>
<feComposite in2="hardAlpha" operator="out"/>
<feColorMatrix type="matrix" values="0 0 0 0 0 0 0 0 0 0 0 0 0 0 0 0 0 0 0.25 0"/>
<feBlend mode="normal" in2="effect1_dropShadow_111_463" result="effect2_dropShadow_111_463"/>
<feBlend mode="normal" in="SourceGraphic" in2="BackgroundImageFix" result="shape"/>
<feTurbulence type="fractalNoise" baseFrequency="0.02500000037252903 0.02500000037252903" stitchTiles="stitch" numOctaves="3" result="noise" seed="1431" />
<feColorMatrix in="noise" type="luminanceToAlpha" result="alphaNoise" />
<feComponentTransfer in="alphaNoise" result="coloredNoise1">
<feFuncA type="discrete" tableValues="0 0 0 0 0 0 0 0 0 0 0 0 1 1 1 1 1 1 1 1 1 1 1 1 1 1 1 1 1 1 1 1 1 1 1 1 1 1 0 0 0 0 0 0 0 0 0 0 0 0 0 0 0 0 0 0 0 0 0 0 0 0 0 0 0 0 0 0 0 0 0 0 0 0 0 0 0 0 0 0 0 0 0 0 0 0 0 0 0 0 0 0 0 0 0 0 0 0 0 0 "/>
</feComponentTransfer>
<feComposite operator="in" in2="shape" in="coloredNoise1" result="noise1Clipped" />
<feComponentTransfer in="alphaNoise" result="coloredNoise2">
<feFuncA type="discrete" tableValues="0 0 0 0 0 0 0 0 0 0 0 0 0 0 0 0 0 0 0 0 0 0 0 0 0 0 0 0 0 0 0 0 0 0 0 0 0 0 0 0 0 0 0 0 0 0 0 0 0 0 0 0 0 0 0 0 0 0 0 0 0 0 1 1 1 1 1 1 1 1 1 1 1 1 1 1 1 1 1 1 1 1 1 1 1 1 1 1 0 0 0 0 0 0 0 0 0 0 0 0 "/>
</feComponentTransfer>
<feComposite operator="in" in2="shape" in="coloredNoise2" result="noise2Clipped" />
<feFlood flood-color="rgba(0, 0, 0, 0.25)" result="color1Flood" />
<feComposite operator="in" in2="noise1Clipped" in="color1Flood" result="color1" />
<feFlood flood-color="rgba(255, 255, 255, 0.25)" result="color2Flood" />
<feComposite operator="in" in2="noise2Clipped" in="color2Flood" result="color2" />
<feMerge result="effect3_noise_111_463">
<feMergeNode in="shape" />
<feMergeNode in="color1" />
<feMergeNode in="color2" />
</feMerge>
<feBlend mode="normal" in="effect3_noise_111_463" in2="effect2_dropShadow_111_463" result="effect3_noise_111_463"/>
</filter>
</defs>
</svg>
