                <svg width="364" height="47" viewBox="0 0 364 47" fill="none" xmlns="http://www.w3.org/2000/svg">
                    <g filter="url(#filter0_n_89_86)">
                        <mask id="path-1-outside-1_89_86" maskUnits="userSpaceOnUse" x="0" y="0" width="364" height="47" fill="black">
                            <rect fill="white" width="364" height="47" />
                            <path d="M38.3457 22.8223V24.5508C38.3457 27.8125 37.8867 30.7422 36.9688 33.3398C36.0703 35.918 34.791 38.125 33.1309 39.9609C31.4707 41.7773 29.5078 43.1738 27.2422 44.1504C24.9766 45.1074 22.4766 45.5859 19.7422 45.5859C16.9883 45.5859 14.4688 45.1074 12.1836 44.1504C9.91797 43.1738 7.94531 41.7773 6.26562 39.9609C4.60547 38.125 3.31641 35.918 2.39844 33.3398C1.5 30.7422 1.05078 27.8125 1.05078 24.5508V22.8223C1.05078 19.5605 1.5 16.6309 2.39844 14.0332C3.31641 11.4355 4.5957 9.22852 6.23633 7.41211C7.89648 5.57617 9.85938 4.17969 12.125 3.22266C14.4102 2.24609 16.9297 1.75781 19.6836 1.75781C22.418 1.75781 24.918 2.24609 27.1836 3.22266C29.4688 4.17969 31.4414 5.57617 33.1016 7.41211C34.7617 9.22852 36.0508 11.4355 36.9688 14.0332C37.8867 16.6309 38.3457 19.5605 38.3457 22.8223ZM27.916 24.5508V22.7637C27.916 20.6543 27.7305 18.7988 27.3594 17.1973C27.0078 15.5762 26.4805 14.2187 25.7773 13.125C25.0742 12.0313 24.2051 11.2109 23.1699 10.6641C22.1543 10.0977 20.9922 9.81445 19.6836 9.81445C18.3164 9.81445 17.125 10.0977 16.1094 10.6641C15.0938 11.2109 14.2441 12.0313 13.5605 13.125C12.877 14.2187 12.3594 15.5762 12.0078 17.1973C11.6758 18.7988 11.5098 20.6543 11.5098 22.7637V24.5508C11.5098 26.6406 11.6758 28.4961 12.0078 30.1172C12.3594 31.7188 12.877 33.0762 13.5605 34.1895C14.2637 35.3027 15.123 36.1426 16.1387 36.709C17.1738 37.2754 18.375 37.5586 19.7422 37.5586C21.0508 37.5586 22.2129 37.2754 23.2285 36.709C24.2441 36.1426 25.0938 35.3027 25.7773 34.1895C26.4805 33.0762 27.0078 31.7188 27.3594 30.1172C27.7305 28.4961 27.916 26.6406 27.916 24.5508ZM66.8223 2.34375H77.1055V30.2051C77.1055 33.5254 76.4121 36.3379 75.0254 38.6426C73.6387 40.9277 71.6953 42.6562 69.1953 43.8281C66.6953 45 63.7559 45.5859 60.377 45.5859C57.0371 45.5859 54.0977 45 51.5586 43.8281C49.0391 42.6562 47.0664 40.9277 45.6406 38.6426C44.2344 36.3379 43.5312 33.5254 43.5312 30.2051V2.34375H53.8438V30.2051C53.8438 31.9629 54.0977 33.3984 54.6055 34.5117C55.1133 35.6055 55.8555 36.4062 56.832 36.9141C57.8086 37.4219 58.9902 37.6758 60.377 37.6758C61.7832 37.6758 62.9648 37.4219 63.9219 36.9141C64.8789 36.4062 65.6016 35.6055 66.0898 34.5117C66.5781 33.3984 66.8223 31.9629 66.8223 30.2051V2.34375ZM83.5801 2.34375H100.367C103.648 2.34375 106.5 2.83203 108.922 3.80859C111.344 4.78516 113.209 6.23047 114.518 8.14453C115.846 10.0586 116.51 12.4219 116.51 15.2344C116.51 17.6758 116.129 19.7168 115.367 21.3574C114.605 22.998 113.541 24.3555 112.174 25.4297C110.826 26.4844 109.254 27.3535 107.457 28.0371L104.088 29.9414H89.9961L89.9375 22.002H100.367C101.676 22.002 102.76 21.7676 103.619 21.2988C104.479 20.8301 105.123 20.166 105.553 19.3066C106.002 18.4277 106.227 17.3828 106.227 16.1719C106.227 14.9414 106.002 13.8867 105.553 13.0078C105.104 12.1289 104.439 11.4551 103.561 10.9863C102.701 10.5176 101.637 10.2832 100.367 10.2832H93.8633V45H83.5801V2.34375ZM106.93 45L97.4961 26.1328L108.395 26.0742L117.945 44.5605V45H106.93Z" />
                            <path d="M137.662 2.34375H154.449C157.73 2.34375 160.582 2.83203 163.004 3.80859C165.426 4.78516 167.291 6.23047 168.6 8.14453C169.928 10.0586 170.592 12.4219 170.592 15.2344C170.592 17.6758 170.211 19.7168 169.449 21.3574C168.688 22.998 167.623 24.3555 166.256 25.4297C164.908 26.4844 163.336 27.3535 161.539 28.0371L158.17 29.9414H144.078L144.02 22.002H154.449C155.758 22.002 156.842 21.7676 157.701 21.2988C158.561 20.8301 159.205 20.166 159.635 19.3066C160.084 18.4277 160.309 17.3828 160.309 16.1719C160.309 14.9414 160.084 13.8867 159.635 13.0078C159.186 12.1289 158.521 11.4551 157.643 10.9863C156.783 10.5176 155.719 10.2832 154.449 10.2832H147.945V45H137.662V2.34375ZM161.012 45L151.578 26.1328L162.477 26.0742L172.027 44.5605V45H161.012ZM212.896 22.8223V24.5508C212.896 27.8125 212.438 30.7422 211.52 33.3398C210.621 35.918 209.342 38.125 207.682 39.9609C206.021 41.7773 204.059 43.1738 201.793 44.1504C199.527 45.1074 197.027 45.5859 194.293 45.5859C191.539 45.5859 189.02 45.1074 186.734 44.1504C184.469 43.1738 182.496 41.7773 180.816 39.9609C179.156 38.125 177.867 35.918 176.949 33.3398C176.051 30.7422 175.602 27.8125 175.602 24.5508V22.8223C175.602 19.5605 176.051 16.6309 176.949 14.0332C177.867 11.4355 179.146 9.22852 180.787 7.41211C182.447 5.57617 184.41 4.17969 186.676 3.22266C188.961 2.24609 191.48 1.75781 194.234 1.75781C196.969 1.75781 199.469 2.24609 201.734 3.22266C204.02 4.17969 205.992 5.57617 207.652 7.41211C209.312 9.22852 210.602 11.4355 211.52 14.0332C212.438 16.6309 212.896 19.5605 212.896 22.8223ZM202.467 24.5508V22.7637C202.467 20.6543 202.281 18.7988 201.91 17.1973C201.559 15.5762 201.031 14.2187 200.328 13.125C199.625 12.0313 198.756 11.2109 197.721 10.6641C196.705 10.0977 195.543 9.81445 194.234 9.81445C192.867 9.81445 191.676 10.0977 190.66 10.6641C189.645 11.2109 188.795 12.0313 188.111 13.125C187.428 14.2187 186.91 15.5762 186.559 17.1973C186.227 18.7988 186.061 20.6543 186.061 22.7637V24.5508C186.061 26.6406 186.227 28.4961 186.559 30.1172C186.91 31.7188 187.428 33.0762 188.111 34.1895C188.814 35.3027 189.674 36.1426 190.689 36.709C191.725 37.2754 192.926 37.5586 194.293 37.5586C195.602 37.5586 196.764 37.2754 197.779 36.709C198.795 36.1426 199.645 35.3027 200.328 34.1895C201.031 33.0762 201.559 31.7188 201.91 30.1172C202.281 28.4961 202.467 26.6406 202.467 24.5508ZM233.727 34.9512L242.604 2.34375H254.117L239.732 45H232.291L233.727 34.9512ZM225.67 2.34375L234.547 34.9512L236.041 45H228.512L214.215 2.34375H225.67ZM286.607 37.0898V45H263.873V37.0898H286.607ZM267.535 2.34375V45H257.252V2.34375H267.535ZM283.678 19.2773V26.9238H263.873V19.2773H283.678ZM286.695 2.34375V10.2832H263.873V2.34375H286.695ZM290.826 2.34375H307.613C310.895 2.34375 313.746 2.83203 316.168 3.80859C318.59 4.78516 320.455 6.23047 321.764 8.14453C323.092 10.0586 323.756 12.4219 323.756 15.2344C323.756 17.6758 323.375 19.7168 322.613 21.3574C321.852 22.998 320.787 24.3555 319.42 25.4297C318.072 26.4844 316.5 27.3535 314.703 28.0371L311.334 29.9414H297.242L297.184 22.002H307.613C308.922 22.002 310.006 21.7676 310.865 21.2988C311.725 20.8301 312.369 20.166 312.799 19.3066C313.248 18.4277 313.473 17.3828 313.473 16.1719C313.473 14.9414 313.248 13.8867 312.799 13.0078C312.35 12.1289 311.686 11.4551 310.807 10.9863C309.947 10.5176 308.883 10.2832 307.613 10.2832H301.109V45H290.826V2.34375ZM314.176 45L304.742 26.1328L315.641 26.0742L325.191 44.5605V45H314.176ZM351.939 33.6621C351.939 32.998 351.842 32.4023 351.646 31.875C351.451 31.3281 351.09 30.8203 350.562 30.3516C350.035 29.8828 349.273 29.4141 348.277 28.9453C347.301 28.457 346.012 27.9492 344.41 27.4219C342.535 26.7969 340.729 26.0938 338.99 25.3125C337.252 24.5117 335.699 23.584 334.332 22.5293C332.965 21.4551 331.881 20.2051 331.08 18.7793C330.279 17.334 329.879 15.6543 329.879 13.7402C329.879 11.9043 330.289 10.2539 331.109 8.78906C331.93 7.30469 333.072 6.04492 334.537 5.00977C336.021 3.95508 337.76 3.1543 339.752 2.60742C341.744 2.04102 343.922 1.75781 346.285 1.75781C349.41 1.75781 352.164 2.30469 354.547 3.39844C356.949 4.47266 358.824 6.00586 360.172 7.99805C361.539 9.9707 362.223 12.3047 362.223 15H351.998C351.998 13.9258 351.773 12.9785 351.324 12.1582C350.895 11.3379 350.24 10.6934 349.361 10.2246C348.482 9.75586 347.379 9.52148 346.051 9.52148C344.762 9.52148 343.678 9.7168 342.799 10.1074C341.92 10.498 341.256 11.0254 340.807 11.6895C340.357 12.334 340.133 13.0469 340.133 13.8281C340.133 14.4727 340.309 15.0586 340.66 15.5859C341.031 16.0938 341.549 16.5723 342.213 17.0215C342.896 17.4707 343.717 17.9004 344.674 18.3105C345.65 18.7207 346.744 19.1211 347.955 19.5117C350.221 20.2344 352.232 21.0449 353.99 21.9434C355.768 22.8223 357.262 23.8281 358.473 24.9609C359.703 26.0742 360.631 27.3438 361.256 28.7695C361.9 30.1953 362.223 31.8066 362.223 33.6035C362.223 35.5176 361.852 37.2168 361.109 38.7012C360.367 40.1855 359.303 41.4453 357.916 42.4805C356.529 43.4961 354.869 44.2676 352.936 44.7949C351.002 45.3223 348.844 45.5859 346.461 45.5859C344.273 45.5859 342.115 45.3125 339.986 44.7656C337.877 44.1992 335.963 43.3398 334.244 42.1875C332.525 41.0156 331.148 39.5215 330.113 37.7051C329.098 35.8691 328.59 33.6914 328.59 31.1719H338.902C338.902 32.4219 339.068 33.4766 339.4 34.3359C339.732 35.1953 340.221 35.8887 340.865 36.416C341.51 36.9238 342.301 37.2949 343.238 37.5293C344.176 37.7441 345.25 37.8516 346.461 37.8516C347.77 37.8516 348.824 37.666 349.625 37.2949C350.426 36.9043 351.012 36.3965 351.383 35.7715C351.754 35.127 351.939 34.4238 351.939 33.6621Z" />
                        </mask>
                        <path d="M38.3457 22.8223V24.5508C38.3457 27.8125 37.8867 30.7422 36.9688 33.3398C36.0703 35.918 34.791 38.125 33.1309 39.9609C31.4707 41.7773 29.5078 43.1738 27.2422 44.1504C24.9766 45.1074 22.4766 45.5859 19.7422 45.5859C16.9883 45.5859 14.4688 45.1074 12.1836 44.1504C9.91797 43.1738 7.94531 41.7773 6.26562 39.9609C4.60547 38.125 3.31641 35.918 2.39844 33.3398C1.5 30.7422 1.05078 27.8125 1.05078 24.5508V22.8223C1.05078 19.5605 1.5 16.6309 2.39844 14.0332C3.31641 11.4355 4.5957 9.22852 6.23633 7.41211C7.89648 5.57617 9.85938 4.17969 12.125 3.22266C14.4102 2.24609 16.9297 1.75781 19.6836 1.75781C22.418 1.75781 24.918 2.24609 27.1836 3.22266C29.4688 4.17969 31.4414 5.57617 33.1016 7.41211C34.7617 9.22852 36.0508 11.4355 36.9688 14.0332C37.8867 16.6309 38.3457 19.5605 38.3457 22.8223ZM27.916 24.5508V22.7637C27.916 20.6543 27.7305 18.7988 27.3594 17.1973C27.0078 15.5762 26.4805 14.2187 25.7773 13.125C25.0742 12.0313 24.2051 11.2109 23.1699 10.6641C22.1543 10.0977 20.9922 9.81445 19.6836 9.81445C18.3164 9.81445 17.125 10.0977 16.1094 10.6641C15.0938 11.2109 14.2441 12.0313 13.5605 13.125C12.877 14.2187 12.3594 15.5762 12.0078 17.1973C11.6758 18.7988 11.5098 20.6543 11.5098 22.7637V24.5508C11.5098 26.6406 11.6758 28.4961 12.0078 30.1172C12.3594 31.7188 12.877 33.0762 13.5605 34.1895C14.2637 35.3027 15.123 36.1426 16.1387 36.709C17.1738 37.2754 18.375 37.5586 19.7422 37.5586C21.0508 37.5586 22.2129 37.2754 23.2285 36.709C24.2441 36.1426 25.0938 35.3027 25.7773 34.1895C26.4805 33.0762 27.0078 31.7188 27.3594 30.1172C27.7305 28.4961 27.916 26.6406 27.916 24.5508ZM66.8223 2.34375H77.1055V30.2051C77.1055 33.5254 76.4121 36.3379 75.0254 38.6426C73.6387 40.9277 71.6953 42.6562 69.1953 43.8281C66.6953 45 63.7559 45.5859 60.377 45.5859C57.0371 45.5859 54.0977 45 51.5586 43.8281C49.0391 42.6562 47.0664 40.9277 45.6406 38.6426C44.2344 36.3379 43.5312 33.5254 43.5312 30.2051V2.34375H53.8438V30.2051C53.8438 31.9629 54.0977 33.3984 54.6055 34.5117C55.1133 35.6055 55.8555 36.4062 56.832 36.9141C57.8086 37.4219 58.9902 37.6758 60.377 37.6758C61.7832 37.6758 62.9648 37.4219 63.9219 36.9141C64.8789 36.4062 65.6016 35.6055 66.0898 34.5117C66.5781 33.3984 66.8223 31.9629 66.8223 30.2051V2.34375ZM83.5801 2.34375H100.367C103.648 2.34375 106.5 2.83203 108.922 3.80859C111.344 4.78516 113.209 6.23047 114.518 8.14453C115.846 10.0586 116.51 12.4219 116.51 15.2344C116.51 17.6758 116.129 19.7168 115.367 21.3574C114.605 22.998 113.541 24.3555 112.174 25.4297C110.826 26.4844 109.254 27.3535 107.457 28.0371L104.088 29.9414H89.9961L89.9375 22.002H100.367C101.676 22.002 102.76 21.7676 103.619 21.2988C104.479 20.8301 105.123 20.166 105.553 19.3066C106.002 18.4277 106.227 17.3828 106.227 16.1719C106.227 14.9414 106.002 13.8867 105.553 13.0078C105.104 12.1289 104.439 11.4551 103.561 10.9863C102.701 10.5176 101.637 10.2832 100.367 10.2832H93.8633V45H83.5801V2.34375ZM106.93 45L97.4961 26.1328L108.395 26.0742L117.945 44.5605V45H106.93Z" fill="#DD6408" />
                        <path d="M137.662 2.34375H154.449C157.73 2.34375 160.582 2.83203 163.004 3.80859C165.426 4.78516 167.291 6.23047 168.6 8.14453C169.928 10.0586 170.592 12.4219 170.592 15.2344C170.592 17.6758 170.211 19.7168 169.449 21.3574C168.688 22.998 167.623 24.3555 166.256 25.4297C164.908 26.4844 163.336 27.3535 161.539 28.0371L158.17 29.9414H144.078L144.02 22.002H154.449C155.758 22.002 156.842 21.7676 157.701 21.2988C158.561 20.8301 159.205 20.166 159.635 19.3066C160.084 18.4277 160.309 17.3828 160.309 16.1719C160.309 14.9414 160.084 13.8867 159.635 13.0078C159.186 12.1289 158.521 11.4551 157.643 10.9863C156.783 10.5176 155.719 10.2832 154.449 10.2832H147.945V45H137.662V2.34375ZM161.012 45L151.578 26.1328L162.477 26.0742L172.027 44.5605V45H161.012ZM212.896 22.8223V24.5508C212.896 27.8125 212.438 30.7422 211.52 33.3398C210.621 35.918 209.342 38.125 207.682 39.9609C206.021 41.7773 204.059 43.1738 201.793 44.1504C199.527 45.1074 197.027 45.5859 194.293 45.5859C191.539 45.5859 189.02 45.1074 186.734 44.1504C184.469 43.1738 182.496 41.7773 180.816 39.9609C179.156 38.125 177.867 35.918 176.949 33.3398C176.051 30.7422 175.602 27.8125 175.602 24.5508V22.8223C175.602 19.5605 176.051 16.6309 176.949 14.0332C177.867 11.4355 179.146 9.22852 180.787 7.41211C182.447 5.57617 184.41 4.17969 186.676 3.22266C188.961 2.24609 191.48 1.75781 194.234 1.75781C196.969 1.75781 199.469 2.24609 201.734 3.22266C204.02 4.17969 205.992 5.57617 207.652 7.41211C209.312 9.22852 210.602 11.4355 211.52 14.0332C212.438 16.6309 212.896 19.5605 212.896 22.8223ZM202.467 24.5508V22.7637C202.467 20.6543 202.281 18.7988 201.91 17.1973C201.559 15.5762 201.031 14.2187 200.328 13.125C199.625 12.0313 198.756 11.2109 197.721 10.6641C196.705 10.0977 195.543 9.81445 194.234 9.81445C192.867 9.81445 191.676 10.0977 190.66 10.6641C189.645 11.2109 188.795 12.0313 188.111 13.125C187.428 14.2187 186.91 15.5762 186.559 17.1973C186.227 18.7988 186.061 20.6543 186.061 22.7637V24.5508C186.061 26.6406 186.227 28.4961 186.559 30.1172C186.91 31.7188 187.428 33.0762 188.111 34.1895C188.814 35.3027 189.674 36.1426 190.689 36.709C191.725 37.2754 192.926 37.5586 194.293 37.5586C195.602 37.5586 196.764 37.2754 197.779 36.709C198.795 36.1426 199.645 35.3027 200.328 34.1895C201.031 33.0762 201.559 31.7188 201.91 30.1172C202.281 28.4961 202.467 26.6406 202.467 24.5508ZM233.727 34.9512L242.604 2.34375H254.117L239.732 45H232.291L233.727 34.9512ZM225.67 2.34375L234.547 34.9512L236.041 45H228.512L214.215 2.34375H225.67ZM286.607 37.0898V45H263.873V37.0898H286.607ZM267.535 2.34375V45H257.252V2.34375H267.535ZM283.678 19.2773V26.9238H263.873V19.2773H283.678ZM286.695 2.34375V10.2832H263.873V2.34375H286.695ZM290.826 2.34375H307.613C310.895 2.34375 313.746 2.83203 316.168 3.80859C318.59 4.78516 320.455 6.23047 321.764 8.14453C323.092 10.0586 323.756 12.4219 323.756 15.2344C323.756 17.6758 323.375 19.7168 322.613 21.3574C321.852 22.998 320.787 24.3555 319.42 25.4297C318.072 26.4844 316.5 27.3535 314.703 28.0371L311.334 29.9414H297.242L297.184 22.002H307.613C308.922 22.002 310.006 21.7676 310.865 21.2988C311.725 20.8301 312.369 20.166 312.799 19.3066C313.248 18.4277 313.473 17.3828 313.473 16.1719C313.473 14.9414 313.248 13.8867 312.799 13.0078C312.35 12.1289 311.686 11.4551 310.807 10.9863C309.947 10.5176 308.883 10.2832 307.613 10.2832H301.109V45H290.826V2.34375ZM314.176 45L304.742 26.1328L315.641 26.0742L325.191 44.5605V45H314.176ZM351.939 33.6621C351.939 32.998 351.842 32.4023 351.646 31.875C351.451 31.3281 351.09 30.8203 350.562 30.3516C350.035 29.8828 349.273 29.4141 348.277 28.9453C347.301 28.457 346.012 27.9492 344.41 27.4219C342.535 26.7969 340.729 26.0938 338.99 25.3125C337.252 24.5117 335.699 23.584 334.332 22.5293C332.965 21.4551 331.881 20.2051 331.08 18.7793C330.279 17.334 329.879 15.6543 329.879 13.7402C329.879 11.9043 330.289 10.2539 331.109 8.78906C331.93 7.30469 333.072 6.04492 334.537 5.00977C336.021 3.95508 337.76 3.1543 339.752 2.60742C341.744 2.04102 343.922 1.75781 346.285 1.75781C349.41 1.75781 352.164 2.30469 354.547 3.39844C356.949 4.47266 358.824 6.00586 360.172 7.99805C361.539 9.9707 362.223 12.3047 362.223 15H351.998C351.998 13.9258 351.773 12.9785 351.324 12.1582C350.895 11.3379 350.24 10.6934 349.361 10.2246C348.482 9.75586 347.379 9.52148 346.051 9.52148C344.762 9.52148 343.678 9.7168 342.799 10.1074C341.92 10.498 341.256 11.0254 340.807 11.6895C340.357 12.334 340.133 13.0469 340.133 13.8281C340.133 14.4727 340.309 15.0586 340.66 15.5859C341.031 16.0938 341.549 16.5723 342.213 17.0215C342.896 17.4707 343.717 17.9004 344.674 18.3105C345.65 18.7207 346.744 19.1211 347.955 19.5117C350.221 20.2344 352.232 21.0449 353.99 21.9434C355.768 22.8223 357.262 23.8281 358.473 24.9609C359.703 26.0742 360.631 27.3438 361.256 28.7695C361.9 30.1953 362.223 31.8066 362.223 33.6035C362.223 35.5176 361.852 37.2168 361.109 38.7012C360.367 40.1855 359.303 41.4453 357.916 42.4805C356.529 43.4961 354.869 44.2676 352.936 44.7949C351.002 45.3223 348.844 45.5859 346.461 45.5859C344.273 45.5859 342.115 45.3125 339.986 44.7656C337.877 44.1992 335.963 43.3398 334.244 42.1875C332.525 41.0156 331.148 39.5215 330.113 37.7051C329.098 35.8691 328.59 33.6914 328.59 31.1719H338.902C338.902 32.4219 339.068 33.4766 339.4 34.3359C339.732 35.1953 340.221 35.8887 340.865 36.416C341.51 36.9238 342.301 37.2949 343.238 37.5293C344.176 37.7441 345.25 37.8516 346.461 37.8516C347.77 37.8516 348.824 37.666 349.625 37.2949C350.426 36.9043 351.012 36.3965 351.383 35.7715C351.754 35.127 351.939 34.4238 351.939 33.6621Z" fill="black" />
                        <path d="M36.9688 33.3398L36.0259 33.0066L36.0244 33.0108L36.9688 33.3398ZM33.1309 39.9609L33.869 40.6356L33.8726 40.6316L33.1309 39.9609ZM27.2422 44.1504L27.6313 45.0716L27.638 45.0687L27.2422 44.1504ZM12.1836 44.1504L11.7877 45.0688L11.7973 45.0728L12.1836 44.1504ZM6.26562 39.9609L5.52386 40.6317L5.53143 40.6399L6.26562 39.9609ZM2.39844 33.3398L1.45333 33.6667L1.45637 33.6753L2.39844 33.3398ZM2.39844 14.0332L1.45556 13.7L1.45337 13.7063L2.39844 14.0332ZM6.23633 7.41211L5.49461 6.7414L5.49423 6.74182L6.23633 7.41211ZM12.125 3.22266L12.5141 4.14385L12.518 4.14221L12.125 3.22266ZM27.1836 3.22266L26.7877 4.14103L26.7973 4.14503L27.1836 3.22266ZM33.1016 7.41211L32.3598 8.08282L32.3634 8.08676L33.1016 7.41211ZM27.3594 17.1973L26.382 17.4092L26.3852 17.423L27.3594 17.1973ZM25.7773 13.125L24.9362 13.6658L25.7773 13.125ZM23.1699 10.6641L22.6829 11.5374L22.6928 11.543L22.7028 11.5483L23.1699 10.6641ZM16.1094 10.6641L16.5835 11.5445L16.59 11.541L16.5964 11.5374L16.1094 10.6641ZM12.0078 17.1973L11.0305 16.9853L11.0286 16.9943L12.0078 17.1973ZM12.0078 30.1172L11.0281 30.3179L11.0311 30.3316L12.0078 30.1172ZM13.5605 34.1895L12.7083 34.7128L12.7151 34.7234L13.5605 34.1895ZM16.1387 36.709L15.6516 37.5824L15.6587 37.5862L16.1387 36.709ZM23.2285 36.709L23.7156 37.5823L23.2285 36.709ZM25.7773 34.1895L24.9318 33.6554L24.9252 33.6662L25.7773 34.1895ZM27.3594 30.1172L26.3846 29.894L26.3826 29.9028L27.3594 30.1172ZM38.3457 22.8223H37.3457V24.5508H38.3457H39.3457V22.8223H38.3457ZM38.3457 24.5508H37.3457C37.3457 27.7194 36.8998 30.5337 36.0259 33.0067L36.9688 33.3398L37.9116 33.673C38.8736 30.9507 39.3457 27.9056 39.3457 24.5508H38.3457ZM36.9688 33.3398L36.0244 33.0108C35.1655 35.4757 33.9508 37.5632 32.3891 39.2902L33.1309 39.9609L33.8726 40.6316C35.6313 38.6868 36.9752 36.3603 37.9131 33.6689L36.9688 33.3398ZM33.1309 39.9609L32.3927 39.2863C30.8284 40.9979 28.9823 42.3114 26.8464 43.2321L27.2422 44.1504L27.638 45.0687C30.0334 44.0362 32.113 42.5568 33.869 40.6356L33.1309 39.9609ZM27.2422 44.1504L26.8531 43.2292C24.7237 44.1287 22.3579 44.5859 19.7422 44.5859V45.5859V46.5859C22.5953 46.5859 25.2295 46.0861 27.6313 45.0716L27.2422 44.1504ZM19.7422 45.5859V44.5859C17.1061 44.5859 14.7197 44.1284 12.5699 43.228L12.1836 44.1504L11.7973 45.0728C14.2178 46.0865 16.8705 46.5859 19.7422 46.5859V45.5859ZM12.1836 44.1504L12.5794 43.2321C10.4424 42.311 8.58495 40.9962 6.99982 39.282L6.26562 39.9609L5.53143 40.6399C7.30567 42.5585 9.3935 44.0367 11.7878 45.0687L12.1836 44.1504ZM6.26562 39.9609L7.00735 39.2902C5.44424 37.5616 4.21905 35.4718 3.3405 33.0044L2.39844 33.3398L1.45637 33.6753C2.41377 36.3641 3.7667 38.6884 5.5239 40.6316L6.26562 39.9609ZM2.39844 33.3398L3.34351 33.013C2.4875 30.538 2.05078 27.7215 2.05078 24.5508H1.05078H0.0507812C0.0507812 27.9035 0.512496 30.9464 1.45337 33.6667L2.39844 33.3398ZM1.05078 24.5508H2.05078V22.8223H1.05078H0.0507812V24.5508H1.05078ZM1.05078 22.8223H2.05078C2.05078 19.6516 2.4875 16.835 3.34351 14.3601L2.39844 14.0332L1.45337 13.7063C0.512496 16.4267 0.0507812 19.4695 0.0507812 22.8223H1.05078ZM2.39844 14.0332L3.3413 14.3664C4.22078 11.8777 5.43678 9.78922 6.97843 8.0824L6.23633 7.41211L5.49423 6.74182C3.75462 8.66781 2.41204 10.9934 1.45558 13.7L2.39844 14.0332ZM6.23633 7.41211L6.97805 8.08282C8.541 6.35438 10.3838 5.04373 12.5141 4.14384L12.125 3.22266L11.7359 2.30147C9.33497 3.31565 7.25197 4.79797 5.49461 6.7414L6.23633 7.41211ZM12.125 3.22266L12.518 4.14221C14.6661 3.2242 17.0501 2.75781 19.6836 2.75781V1.75781V0.757812C16.8093 0.757812 14.1542 1.26799 11.732 2.30311L12.125 3.22266ZM19.6836 1.75781V2.75781C22.2966 2.75781 24.6601 3.22387 26.7878 4.14098L27.1836 3.22266L27.5794 2.30433C25.1759 1.26832 22.5393 0.757812 19.6836 0.757812V1.75781ZM27.1836 3.22266L26.7973 4.14503C28.9471 5.04536 30.7983 6.35596 32.3598 8.08282L33.1016 7.41211L33.8433 6.7414C32.0845 4.79638 29.9904 3.31402 27.5699 2.30028L27.1836 3.22266ZM33.1016 7.41211L32.3634 8.08676C33.9229 9.79303 35.1472 11.88 36.0259 14.3664L36.9688 14.0332L37.9116 13.7C36.9543 10.9911 35.6005 8.664 33.8397 6.73746L33.1016 7.41211ZM36.9688 14.0332L36.0259 14.3664C36.8998 16.8394 37.3457 19.6537 37.3457 22.8223H38.3457H39.3457C39.3457 19.4674 38.8736 16.4223 37.9116 13.7L36.9688 14.0332ZM27.916 24.5508H28.916V22.7637H27.916H26.916V24.5508H27.916ZM27.916 22.7637H28.916C28.916 20.5985 28.7258 18.6645 28.3336 16.9715L27.3594 17.1973L26.3852 17.423C26.7351 18.9332 26.916 20.7101 26.916 22.7637H27.916ZM27.3594 17.1973L28.3367 16.9853C27.9664 15.2781 27.4014 13.802 26.6185 12.5842L25.7773 13.125L24.9362 13.6658C25.5596 14.6355 26.0492 15.8742 26.3821 17.4092L27.3594 17.1973ZM25.7773 13.125L26.6185 12.5842C25.8329 11.3621 24.8407 10.4158 23.637 9.77987L23.1699 10.6641L22.7028 11.5483C23.5695 12.0061 24.3156 12.7004 24.9362 13.6658L25.7773 13.125ZM23.1699 10.6641L23.657 9.7907C22.4746 9.13127 21.1409 8.81445 19.6836 8.81445V9.81445V10.8145C20.8434 10.8145 21.834 11.064 22.6829 11.5374L23.1699 10.6641ZM19.6836 9.81445V8.81445C18.176 8.81445 16.8111 9.12773 15.6223 9.7907L16.1094 10.6641L16.5964 11.5374C17.4389 11.0676 18.4568 10.8145 19.6836 10.8145V9.81445ZM16.1094 10.6641L15.6353 9.78359C14.4492 10.4222 13.4771 11.3717 12.7125 12.595L13.5605 13.125L14.4085 13.655C15.0112 12.6908 15.7383 11.9996 16.5835 11.5445L16.1094 10.6641ZM13.5605 13.125L12.7125 12.595C11.9532 13.81 11.3999 15.2822 11.0305 16.9853L12.0078 17.1973L12.9851 17.4092C13.3189 15.8702 13.8007 14.6275 14.4085 13.655L13.5605 13.125ZM12.0078 17.1973L11.0286 16.9943C10.6795 18.6786 10.5098 20.6046 10.5098 22.7637H11.5098H12.5098C12.5098 20.704 12.6721 18.9191 12.987 17.4003L12.0078 17.1973ZM11.5098 22.7637H10.5098V24.5508H11.5098H12.5098V22.7637H11.5098ZM11.5098 24.5508H10.5098C10.5098 26.6913 10.6796 28.6162 11.0282 30.3178L12.0078 30.1172L12.9875 29.9165C12.672 28.376 12.5098 26.5899 12.5098 24.5508H11.5098ZM12.0078 30.1172L11.0311 30.3316C11.4007 32.0157 11.9535 33.4834 12.7084 34.7127L13.5605 34.1895L14.4127 33.6662C13.8004 32.6689 13.318 31.4218 12.9846 29.9028L12.0078 30.1172ZM13.5605 34.1895L12.7151 34.7234C13.4955 35.9591 14.4716 36.9243 15.6516 37.5823L16.1387 36.709L16.6257 35.8356C15.7745 35.3609 15.0319 34.6464 14.406 33.6555L13.5605 34.1895ZM16.1387 36.709L15.6587 37.5862C16.8628 38.2451 18.234 38.5586 19.7422 38.5586V37.5586V36.5586C18.516 36.5586 17.4848 36.3056 16.6187 35.8317L16.1387 36.709ZM19.7422 37.5586V38.5586C21.1995 38.5586 22.5332 38.2418 23.7156 37.5823L23.2285 36.709L22.7414 35.8356C21.8926 36.309 20.902 36.5586 19.7422 36.5586V37.5586ZM23.2285 36.709L23.7156 37.5823C24.8987 36.9226 25.8675 35.9537 26.6295 34.7127L25.7773 34.1895L24.9252 33.6662C24.32 34.6518 23.5896 35.3626 22.7414 35.8356L23.2285 36.709ZM25.7773 34.1895L26.6228 34.7234C27.401 33.4913 27.9655 32.0198 28.3361 30.3316L27.3594 30.1172L26.3826 29.9028C26.0501 31.4177 25.5599 32.661 24.9319 33.6555L25.7773 34.1895ZM27.3594 30.1172L28.3342 30.3403C28.7256 28.6302 28.916 26.6975 28.916 24.5508H27.916H26.916C26.916 26.5838 26.7353 28.362 26.3846 29.894L27.3594 30.1172ZM66.8223 2.34375V1.34375H65.8223V2.34375H66.8223ZM77.1055 2.34375H78.1055V1.34375H77.1055V2.34375ZM75.0254 38.6426L75.8803 39.1614L75.8822 39.1581L75.0254 38.6426ZM51.5586 43.8281L51.1369 44.7349L51.1395 44.7361L51.5586 43.8281ZM45.6406 38.6426L44.7869 39.1635L44.7922 39.1719L45.6406 38.6426ZM43.5312 2.34375V1.34375H42.5312V2.34375H43.5312ZM53.8438 2.34375H54.8438V1.34375H53.8438V2.34375ZM54.6055 34.5117L53.6956 34.9267L53.6985 34.9328L54.6055 34.5117ZM63.9219 36.9141L64.3906 37.7974L63.9219 36.9141ZM66.0898 34.5117L67.003 34.9194L67.0056 34.9134L66.0898 34.5117ZM66.8223 2.34375V3.34375H77.1055V2.34375V1.34375H66.8223V2.34375ZM77.1055 2.34375H76.1055V30.2051H77.1055H78.1055V2.34375H77.1055ZM77.1055 30.2051H76.1055C76.1055 33.3861 75.4419 36.0107 74.1685 38.127L75.0254 38.6426L75.8822 39.1581C77.3823 36.6651 78.1055 33.6646 78.1055 30.2051H77.1055ZM75.0254 38.6426L74.1705 38.1238C72.8895 40.2347 71.0986 41.8315 68.7709 42.9227L69.1953 43.8281L69.6197 44.7336C72.292 43.481 74.3878 41.6208 75.8803 39.1614L75.0254 38.6426ZM69.1953 43.8281L68.7709 42.9227C66.43 44.0199 63.6413 44.5859 60.377 44.5859V45.5859V46.5859C63.8704 46.5859 66.9606 45.9801 69.6197 44.7336L69.1953 43.8281ZM60.377 45.5859V44.5859C57.1541 44.5859 54.3623 44.0208 51.9777 42.9202L51.5586 43.8281L51.1395 44.7361C53.833 45.9792 56.9201 46.5859 60.377 46.5859V45.5859ZM51.5586 43.8281L51.9803 42.9214C49.6307 41.8286 47.8088 40.2285 46.489 38.1132L45.6406 38.6426L44.7922 39.1719C46.324 41.627 48.4474 43.4839 51.1369 44.7348L51.5586 43.8281ZM45.6406 38.6426L46.4943 38.1217C45.2035 36.0064 44.5312 33.3838 44.5312 30.2051H43.5312H42.5312C42.5312 33.667 43.2652 36.6694 44.787 39.1634L45.6406 38.6426ZM43.5312 30.2051H44.5312V2.34375H43.5312H42.5312V30.2051H43.5312ZM43.5312 2.34375V3.34375H53.8438V2.34375V1.34375H43.5312V2.34375ZM53.8438 2.34375H52.8438V30.2051H53.8438H54.8438V2.34375H53.8438ZM53.8438 30.2051H52.8438C52.8438 32.0483 53.1084 33.6392 53.6956 34.9267L54.6055 34.5117L55.5153 34.0967C55.087 33.1577 54.8438 31.8775 54.8438 30.2051H53.8438ZM54.6055 34.5117L53.6985 34.9328C54.2899 36.2066 55.1792 37.1817 56.3707 37.8013L56.832 36.9141L57.2934 36.0268C56.5317 35.6308 55.9367 35.0043 55.5125 34.0906L54.6055 34.5117ZM56.832 36.9141L56.3707 37.8013C57.522 38.4 58.8704 38.6758 60.377 38.6758V37.6758V36.6758C59.1101 36.6758 58.0952 36.4438 57.2934 36.0268L56.832 36.9141ZM60.377 37.6758V38.6758C61.8994 38.6758 63.2526 38.4012 64.3906 37.7974L63.9219 36.9141L63.4532 36.0307C62.6771 36.4425 61.667 36.6758 60.377 36.6758V37.6758ZM63.9219 36.9141L64.3906 37.7974C65.5656 37.1739 66.4339 36.194 67.003 34.9194L66.0898 34.5117L65.1767 34.1041C64.7692 35.0169 64.1922 35.6386 63.4532 36.0307L63.9219 36.9141ZM66.0898 34.5117L67.0056 34.9134C67.5685 33.6302 67.8223 32.0444 67.8223 30.2051H66.8223H65.8223C65.8223 31.8814 65.5878 33.1667 65.1741 34.1101L66.0898 34.5117ZM66.8223 30.2051H67.8223V2.34375H66.8223H65.8223V30.2051H66.8223ZM83.5801 2.34375V1.34375H82.5801V2.34375H83.5801ZM108.922 3.80859L108.548 4.73604L108.922 3.80859ZM114.518 8.14453L113.692 8.70893L113.696 8.71461L114.518 8.14453ZM112.174 25.4297L112.79 26.2172L112.792 26.216L112.174 25.4297ZM107.457 28.0371L107.101 27.1025L107.031 27.1293L106.965 27.1665L107.457 28.0371ZM104.088 29.9414V30.9414H104.351L104.58 30.812L104.088 29.9414ZM89.9961 29.9414L88.9961 29.9488L89.0034 30.9414H89.9961V29.9414ZM89.9375 22.002V21.002H88.9301L88.9375 22.0093L89.9375 22.002ZM105.553 19.3066L104.662 18.8515L104.658 18.8594L105.553 19.3066ZM103.561 10.9863L103.082 11.8643L103.09 11.8687L103.561 10.9863ZM93.8633 10.2832V9.2832H92.8633V10.2832H93.8633ZM93.8633 45V46H94.8633V45H93.8633ZM83.5801 45H82.5801V46H83.5801V45ZM106.93 45L106.035 45.4472L106.312 46H106.93V45ZM97.4961 26.1328L97.4907 25.1328L95.8824 25.1415L96.6017 26.58L97.4961 26.1328ZM108.395 26.0742L109.283 25.6152L109.002 25.0709L108.389 25.0742L108.395 26.0742ZM117.945 44.5605H118.945V44.3175L118.834 44.1015L117.945 44.5605ZM117.945 45V46H118.945V45H117.945ZM83.5801 2.34375V3.34375H100.367V2.34375V1.34375H83.5801V2.34375ZM100.367 2.34375V3.34375C103.552 3.34375 106.271 3.81796 108.548 4.73604L108.922 3.80859L109.296 2.88115C106.729 1.8461 103.745 1.34375 100.367 1.34375V2.34375ZM108.922 3.80859L108.548 4.73604C110.811 5.64843 112.509 6.97783 113.692 8.70891L114.518 8.14453L115.343 7.58015C113.909 5.48311 111.877 3.92188 109.296 2.88115L108.922 3.80859ZM114.518 8.14453L113.696 8.71461C114.886 10.4291 115.51 12.5827 115.51 15.2344H116.51H117.51C117.51 12.2611 116.806 9.68806 115.339 7.57445L114.518 8.14453ZM116.51 15.2344H115.51C115.51 17.5785 115.143 19.4653 114.46 20.9363L115.367 21.3574L116.274 21.7785C117.115 19.9683 117.51 17.7731 117.51 15.2344H116.51ZM115.367 21.3574L114.46 20.9363C113.762 22.4401 112.794 23.6704 111.556 24.6434L112.174 25.4297L112.792 26.216C114.288 25.0405 115.449 23.556 116.274 21.7785L115.367 21.3574ZM112.174 25.4297L111.558 24.6422C110.298 25.6279 108.816 26.4502 107.101 27.1025L107.457 28.0371L107.813 28.9718C109.692 28.2568 111.354 27.3408 112.79 26.2172L112.174 25.4297ZM107.457 28.0371L106.965 27.1665L103.596 29.0708L104.088 29.9414L104.58 30.812L107.949 28.9077L107.457 28.0371ZM104.088 29.9414V28.9414H89.9961V29.9414V30.9414H104.088V29.9414ZM89.9961 29.9414L90.9961 29.934L90.9375 21.9946L89.9375 22.002L88.9375 22.0093L88.9961 29.9488L89.9961 29.9414ZM89.9375 22.002V23.002H100.367V22.002V21.002H89.9375V22.002ZM100.367 22.002V23.002C101.789 23.002 103.051 22.7481 104.098 22.1767L103.619 21.2988L103.14 20.4209C102.469 20.7871 101.563 21.002 100.367 21.002V22.002ZM103.619 21.2988L104.098 22.1767C105.133 21.6122 105.924 20.7995 106.447 19.7539L105.553 19.3066L104.658 18.8594C104.322 19.5325 103.824 20.048 103.14 20.4209L103.619 21.2988ZM105.553 19.3066L106.443 19.7618C106.979 18.7135 107.227 17.5057 107.227 16.1719H106.227H105.227C105.227 17.2599 105.025 18.1419 104.662 18.8515L105.553 19.3066ZM106.227 16.1719H107.227C107.227 14.8214 106.98 13.603 106.443 12.5527L105.553 13.0078L104.662 13.4629C105.024 14.1704 105.227 15.0614 105.227 16.1719H106.227ZM105.553 13.0078L106.443 12.5527C105.9 11.4901 105.089 10.668 104.031 10.104L103.561 10.9863L103.09 11.8687C103.79 12.2422 104.307 12.7678 104.662 13.4629L105.553 13.0078ZM103.561 10.9863L104.039 10.1084C102.996 9.53926 101.756 9.2832 100.367 9.2832V10.2832V11.2832C101.518 11.2832 102.406 11.4959 103.082 11.8642L103.561 10.9863ZM100.367 10.2832V9.2832H93.8633V10.2832V11.2832H100.367V10.2832ZM93.8633 10.2832H92.8633V45H93.8633H94.8633V10.2832H93.8633ZM93.8633 45V44H83.5801V45V46H93.8633V45ZM83.5801 45H84.5801V2.34375H83.5801H82.5801V45H83.5801ZM106.93 45L107.824 44.5528L98.3905 25.6856L97.4961 26.1328L96.6017 26.58L106.035 45.4472L106.93 45ZM97.4961 26.1328L97.5015 27.1328L108.4 27.0742L108.395 26.0742L108.389 25.0742L97.4907 25.1328L97.4961 26.1328ZM108.395 26.0742L107.506 26.5332L117.057 45.0195L117.945 44.5605L118.834 44.1015L109.283 25.6152L108.395 26.0742ZM117.945 44.5605H116.945V45H117.945H118.945V44.5605H117.945ZM117.945 45V44H106.93V45V46H117.945V45ZM137.662 2.34375V1.34375H136.662V2.34375H137.662ZM163.004 3.80859L162.63 4.73604L163.004 3.80859ZM168.6 8.14453L167.774 8.70893L167.778 8.71461L168.6 8.14453ZM166.256 25.4297L166.872 26.2172L166.874 26.216L166.256 25.4297ZM161.539 28.0371L161.183 27.1025L161.113 27.1293L161.047 27.1665L161.539 28.0371ZM158.17 29.9414V30.9414H158.433L158.662 30.812L158.17 29.9414ZM144.078 29.9414L143.078 29.9488L143.085 30.9414H144.078V29.9414ZM144.02 22.002V21.002H143.012L143.02 22.0093L144.02 22.002ZM159.635 19.3066L158.744 18.8515L158.74 18.8594L159.635 19.3066ZM157.643 10.9863L157.164 11.8643L157.172 11.8687L157.643 10.9863ZM147.945 10.2832V9.2832H146.945V10.2832H147.945ZM147.945 45V46H148.945V45H147.945ZM137.662 45H136.662V46H137.662V45ZM161.012 45L160.117 45.4472L160.394 46H161.012V45ZM151.578 26.1328L151.573 25.1328L149.964 25.1415L150.684 26.58L151.578 26.1328ZM162.477 26.0742L163.365 25.6152L163.084 25.0709L162.471 25.0742L162.477 26.0742ZM172.027 44.5605H173.027V44.3175L172.916 44.1015L172.027 44.5605ZM172.027 45V46H173.027V45H172.027ZM137.662 2.34375V3.34375H154.449V2.34375V1.34375H137.662V2.34375ZM154.449 2.34375V3.34375C157.634 3.34375 160.353 3.81796 162.63 4.73604L163.004 3.80859L163.378 2.88115C160.811 1.8461 157.827 1.34375 154.449 1.34375V2.34375ZM163.004 3.80859L162.63 4.73604C164.893 5.64843 166.591 6.97783 167.774 8.70891L168.6 8.14453L169.425 7.58015C167.991 5.48311 165.959 3.92188 163.378 2.88115L163.004 3.80859ZM168.6 8.14453L167.778 8.71461C168.968 10.4291 169.592 12.5827 169.592 15.2344H170.592H171.592C171.592 12.2611 170.888 9.68806 169.421 7.57445L168.6 8.14453ZM170.592 15.2344H169.592C169.592 17.5785 169.225 19.4653 168.542 20.9363L169.449 21.3574L170.356 21.7785C171.197 19.9683 171.592 17.7731 171.592 15.2344H170.592ZM169.449 21.3574L168.542 20.9363C167.844 22.4401 166.876 23.6704 165.638 24.6434L166.256 25.4297L166.874 26.216C168.37 25.0405 169.531 23.556 170.356 21.7785L169.449 21.3574ZM166.256 25.4297L165.64 24.6422C164.38 25.6279 162.898 26.4502 161.183 27.1025L161.539 28.0371L161.895 28.9718C163.774 28.2568 165.436 27.3408 166.872 26.2172L166.256 25.4297ZM161.539 28.0371L161.047 27.1665L157.678 29.0708L158.17 29.9414L158.662 30.812L162.031 28.9077L161.539 28.0371ZM158.17 29.9414V28.9414H144.078V29.9414V30.9414H158.17V29.9414ZM144.078 29.9414L145.078 29.934L145.02 21.9946L144.02 22.002L143.02 22.0093L143.078 29.9488L144.078 29.9414ZM144.02 22.002V23.002H154.449V22.002V21.002H144.02V22.002ZM154.449 22.002V23.002C155.871 23.002 157.133 22.7481 158.18 22.1767L157.701 21.2988L157.222 20.4209C156.551 20.7871 155.645 21.002 154.449 21.002V22.002ZM157.701 21.2988L158.18 22.1767C159.215 21.6122 160.006 20.7995 160.529 19.7539L159.635 19.3066L158.74 18.8594C158.404 19.5325 157.906 20.048 157.222 20.4209L157.701 21.2988ZM159.635 19.3066L160.525 19.7618C161.061 18.7135 161.309 17.5057 161.309 16.1719H160.309H159.309C159.309 17.2599 159.107 18.1419 158.744 18.8515L159.635 19.3066ZM160.309 16.1719H161.309C161.309 14.8214 161.062 13.603 160.525 12.5527L159.635 13.0078L158.744 13.4629C159.106 14.1704 159.309 15.0614 159.309 16.1719H160.309ZM159.635 13.0078L160.525 12.5527C159.982 11.4901 159.171 10.668 158.113 10.104L157.643 10.9863L157.172 11.8687C157.872 12.2422 158.389 12.7678 158.744 13.4629L159.635 13.0078ZM157.643 10.9863L158.121 10.1084C157.078 9.53926 155.838 9.2832 154.449 9.2832V10.2832V11.2832C155.6 11.2832 156.488 11.4959 157.164 11.8642L157.643 10.9863ZM154.449 10.2832V9.2832H147.945V10.2832V11.2832H154.449V10.2832ZM147.945 10.2832H146.945V45H147.945H148.945V10.2832H147.945ZM147.945 45V44H137.662V45V46H147.945V45ZM137.662 45H138.662V2.34375H137.662H136.662V45H137.662ZM161.012 45L161.906 44.5528L152.473 25.6856L151.578 26.1328L150.684 26.58L160.117 45.4472L161.012 45ZM151.578 26.1328L151.583 27.1328L162.482 27.0742L162.477 26.0742L162.471 25.0742L151.573 25.1328L151.578 26.1328ZM162.477 26.0742L161.588 26.5332L171.139 45.0195L172.027 44.5605L172.916 44.1015L163.365 25.6152L162.477 26.0742ZM172.027 44.5605H171.027V45H172.027H173.027V44.5605H172.027ZM172.027 45V44H161.012V45V46H172.027V45ZM211.52 33.3398L210.577 33.0066L210.575 33.0108L211.52 33.3398ZM207.682 39.9609L208.42 40.6356L208.423 40.6316L207.682 39.9609ZM201.793 44.1504L202.182 45.0716L202.189 45.0687L201.793 44.1504ZM186.734 44.1504L186.339 45.0688L186.348 45.0728L186.734 44.1504ZM180.816 39.9609L180.075 40.6317L180.082 40.6399L180.816 39.9609ZM176.949 33.3398L176.004 33.6667L176.007 33.6753L176.949 33.3398ZM176.949 14.0332L176.006 13.7L176.004 13.7063L176.949 14.0332ZM180.787 7.41211L180.045 6.7414L180.045 6.74182L180.787 7.41211ZM186.676 3.22266L187.065 4.14385L187.069 4.14221L186.676 3.22266ZM201.734 3.22266L201.339 4.14103L201.348 4.14503L201.734 3.22266ZM207.652 7.41211L206.911 8.08282L206.914 8.08676L207.652 7.41211ZM201.91 17.1973L200.933 17.4092L200.936 17.423L201.91 17.1973ZM200.328 13.125L199.487 13.6658L200.328 13.125ZM197.721 10.6641L197.234 11.5374L197.244 11.543L197.254 11.5483L197.721 10.6641ZM190.66 10.6641L191.134 11.5445L191.141 11.541L191.147 11.5374L190.66 10.6641ZM186.559 17.1973L185.581 16.9853L185.579 16.9943L186.559 17.1973ZM186.559 30.1172L185.579 30.3179L185.582 30.3316L186.559 30.1172ZM188.111 34.1895L187.259 34.7128L187.266 34.7234L188.111 34.1895ZM190.689 36.709L190.202 37.5824L190.209 37.5862L190.689 36.709ZM197.779 36.709L198.266 37.5823L197.779 36.709ZM200.328 34.1895L199.483 33.6554L199.476 33.6662L200.328 34.1895ZM201.91 30.1172L200.935 29.894L200.933 29.9028L201.91 30.1172ZM212.896 22.8223H211.896V24.5508H212.896H213.896V22.8223H212.896ZM212.896 24.5508H211.896C211.896 27.7194 211.451 30.5337 210.577 33.0067L211.52 33.3398L212.462 33.673C213.424 30.9507 213.896 27.9056 213.896 24.5508H212.896ZM211.52 33.3398L210.575 33.0108C209.716 35.4757 208.502 37.5632 206.94 39.2902L207.682 39.9609L208.423 40.6316C210.182 38.6868 211.526 36.3603 212.464 33.6689L211.52 33.3398ZM207.682 39.9609L206.943 39.2863C205.379 40.9979 203.533 42.3114 201.397 43.2321L201.793 44.1504L202.189 45.0687C204.584 44.0362 206.664 42.5568 208.42 40.6356L207.682 39.9609ZM201.793 44.1504L201.404 43.2292C199.274 44.1287 196.909 44.5859 194.293 44.5859V45.5859V46.5859C197.146 46.5859 199.78 46.0861 202.182 45.0716L201.793 44.1504ZM194.293 45.5859V44.5859C191.657 44.5859 189.271 44.1284 187.121 43.228L186.734 44.1504L186.348 45.0728C188.769 46.0865 191.421 46.5859 194.293 46.5859V45.5859ZM186.734 44.1504L187.13 43.2321C184.993 42.311 183.136 40.9962 181.551 39.282L180.816 39.9609L180.082 40.6399C181.856 42.5585 183.944 44.0367 186.339 45.0687L186.734 44.1504ZM180.816 39.9609L181.558 39.2902C179.995 37.5616 178.77 35.4718 177.891 33.0044L176.949 33.3398L176.007 33.6753C176.965 36.3641 178.317 38.6884 180.075 40.6316L180.816 39.9609ZM176.949 33.3398L177.894 33.013C177.038 30.538 176.602 27.7215 176.602 24.5508H175.602H174.602C174.602 27.9035 175.063 30.9464 176.004 33.6667L176.949 33.3398ZM175.602 24.5508H176.602V22.8223H175.602H174.602V24.5508H175.602ZM175.602 22.8223H176.602C176.602 19.6516 177.038 16.835 177.894 14.3601L176.949 14.0332L176.004 13.7063C175.063 16.4267 174.602 19.4695 174.602 22.8223H175.602ZM176.949 14.0332L177.892 14.3664C178.772 11.8777 179.988 9.78922 181.529 8.0824L180.787 7.41211L180.045 6.74182C178.305 8.66781 176.963 10.9934 176.006 13.7L176.949 14.0332ZM180.787 7.41211L181.529 8.08282C183.092 6.35438 184.935 5.04373 187.065 4.14384L186.676 3.22266L186.287 2.30147C183.886 3.31565 181.803 4.79797 180.045 6.7414L180.787 7.41211ZM186.676 3.22266L187.069 4.14221C189.217 3.2242 191.601 2.75781 194.234 2.75781V1.75781V0.757812C191.36 0.757812 188.705 1.26799 186.283 2.30311L186.676 3.22266ZM194.234 1.75781V2.75781C196.847 2.75781 199.211 3.22387 201.339 4.14098L201.734 3.22266L202.13 2.30433C199.727 1.26832 197.09 0.757812 194.234 0.757812V1.75781ZM201.734 3.22266L201.348 4.14503C203.498 5.04536 205.349 6.35596 206.911 8.08282L207.652 7.41211L208.394 6.7414C206.635 4.79638 204.541 3.31402 202.121 2.30028L201.734 3.22266ZM207.652 7.41211L206.914 8.08676C208.474 9.79303 209.698 11.88 210.577 14.3664L211.52 14.0332L212.462 13.7C211.505 10.9911 210.151 8.664 208.39 6.73746L207.652 7.41211ZM211.52 14.0332L210.577 14.3664C211.451 16.8394 211.896 19.6537 211.896 22.8223H212.896H213.896C213.896 19.4674 213.424 16.4223 212.462 13.7L211.52 14.0332ZM202.467 24.5508H203.467V22.7637H202.467H201.467V24.5508H202.467ZM202.467 22.7637H203.467C203.467 20.5985 203.277 18.6645 202.884 16.9715L201.91 17.1973L200.936 17.423C201.286 18.9332 201.467 20.7101 201.467 22.7637H202.467ZM201.91 17.1973L202.887 16.9853C202.517 15.2781 201.952 13.802 201.169 12.5842L200.328 13.125L199.487 13.6658C200.11 14.6355 200.6 15.8742 200.933 17.4092L201.91 17.1973ZM200.328 13.125L201.169 12.5842C200.384 11.3621 199.391 10.4158 198.188 9.77987L197.721 10.6641L197.254 11.5483C198.12 12.0061 198.866 12.7004 199.487 13.6658L200.328 13.125ZM197.721 10.6641L198.208 9.7907C197.025 9.13127 195.692 8.81445 194.234 8.81445V9.81445V10.8145C195.394 10.8145 196.385 11.064 197.234 11.5374L197.721 10.6641ZM194.234 9.81445V8.81445C192.727 8.81445 191.362 9.12773 190.173 9.7907L190.66 10.6641L191.147 11.5374C191.99 11.0676 193.008 10.8145 194.234 10.8145V9.81445ZM190.66 10.6641L190.186 9.78359C189 10.4222 188.028 11.3717 187.263 12.595L188.111 13.125L188.959 13.655C189.562 12.6908 190.289 11.9996 191.134 11.5445L190.66 10.6641ZM188.111 13.125L187.263 12.595C186.504 13.81 185.951 15.2822 185.581 16.9853L186.559 17.1973L187.536 17.4092C187.87 15.8702 188.352 14.6275 188.959 13.655L188.111 13.125ZM186.559 17.1973L185.579 16.9943C185.23 18.6786 185.061 20.6046 185.061 22.7637H186.061H187.061C187.061 20.704 187.223 18.9191 187.538 17.4003L186.559 17.1973ZM186.061 22.7637H185.061V24.5508H186.061H187.061V22.7637H186.061ZM186.061 24.5508H185.061C185.061 26.6913 185.23 28.6162 185.579 30.3178L186.559 30.1172L187.538 29.9165C187.223 28.376 187.061 26.5899 187.061 24.5508H186.061ZM186.559 30.1172L185.582 30.3316C185.952 32.0157 186.504 33.4834 187.259 34.7127L188.111 34.1895L188.964 33.6662C188.351 32.6689 187.869 31.4218 187.535 29.9028L186.559 30.1172ZM188.111 34.1895L187.266 34.7234C188.046 35.9591 189.022 36.9243 190.202 37.5823L190.689 36.709L191.177 35.8356C190.325 35.3609 189.583 34.6464 188.957 33.6555L188.111 34.1895ZM190.689 36.709L190.209 37.5862C191.414 38.2451 192.785 38.5586 194.293 38.5586V37.5586V36.5586C193.067 36.5586 192.036 36.3056 191.169 35.8317L190.689 36.709ZM194.293 37.5586V38.5586C195.75 38.5586 197.084 38.2418 198.266 37.5823L197.779 36.709L197.292 35.8356C196.443 36.309 195.453 36.5586 194.293 36.5586V37.5586ZM197.779 36.709L198.266 37.5823C199.449 36.9226 200.418 35.9537 201.18 34.7127L200.328 34.1895L199.476 33.6662C198.871 34.6518 198.14 35.3626 197.292 35.8356L197.779 36.709ZM200.328 34.1895L201.174 34.7234C201.952 33.4913 202.516 32.0198 202.887 30.3316L201.91 30.1172L200.933 29.9028C200.601 31.4177 200.111 32.661 199.483 33.6555L200.328 34.1895ZM201.91 30.1172L202.885 30.3403C203.276 28.6302 203.467 26.6975 203.467 24.5508H202.467H201.467C201.467 26.5838 201.286 28.362 200.935 29.894L201.91 30.1172ZM233.727 34.9512L232.762 34.6885L232.745 34.7483L232.737 34.8097L233.727 34.9512ZM242.604 2.34375V1.34375H241.839L241.639 2.08107L242.604 2.34375ZM254.117 2.34375L255.065 2.66329L255.51 1.34375H254.117V2.34375ZM239.732 45V46H240.451L240.68 45.3195L239.732 45ZM232.291 45L231.301 44.8586L231.138 46H232.291V45ZM225.67 2.34375L226.635 2.08107L226.434 1.34375H225.67V2.34375ZM234.547 34.9512L235.536 34.8041L235.527 34.7456L235.512 34.6885L234.547 34.9512ZM236.041 45V46H237.201L237.03 44.8529L236.041 45ZM228.512 45L227.564 45.3178L227.792 46H228.512V45ZM214.215 2.34375V1.34375H212.825L213.267 2.66154L214.215 2.34375ZM233.727 34.9512L234.691 35.2138L243.568 2.60643L242.604 2.34375L241.639 2.08107L232.762 34.6885L233.727 34.9512ZM242.604 2.34375V3.34375H254.117V2.34375V1.34375H242.604V2.34375ZM254.117 2.34375L253.17 2.02421L238.785 44.6805L239.732 45L240.68 45.3195L255.065 2.66329L254.117 2.34375ZM239.732 45V44H232.291V45V46H239.732V45ZM232.291 45L233.281 45.1414L234.717 35.0926L233.727 34.9512L232.737 34.8097L231.301 44.8586L232.291 45ZM225.67 2.34375L224.705 2.60643L233.582 35.2138L234.547 34.9512L235.512 34.6885L226.635 2.08107L225.67 2.34375ZM234.547 34.9512L233.558 35.0982L235.052 45.1471L236.041 45L237.03 44.8529L235.536 34.8041L234.547 34.9512ZM236.041 45V44H228.512V45V46H236.041V45ZM228.512 45L229.46 44.6822L215.163 2.02596L214.215 2.34375L213.267 2.66154L227.564 45.3178L228.512 45ZM214.215 2.34375V3.34375H225.67V2.34375V1.34375H214.215V2.34375ZM286.607 37.0898H287.607V36.0898H286.607V37.0898ZM286.607 45V46H287.607V45H286.607ZM263.873 45H262.873V46H263.873V45ZM263.873 37.0898V36.0898H262.873V37.0898H263.873ZM267.535 2.34375H268.535V1.34375H267.535V2.34375ZM267.535 45V46H268.535V45H267.535ZM257.252 45H256.252V46H257.252V45ZM257.252 2.34375V1.34375H256.252V2.34375H257.252ZM283.678 19.2773H284.678V18.2773H283.678V19.2773ZM283.678 26.9238V27.9238H284.678V26.9238H283.678ZM263.873 26.9238H262.873V27.9238H263.873V26.9238ZM263.873 19.2773V18.2773H262.873V19.2773H263.873ZM286.695 2.34375H287.695V1.34375H286.695V2.34375ZM286.695 10.2832V11.2832H287.695V10.2832H286.695ZM263.873 10.2832H262.873V11.2832H263.873V10.2832ZM263.873 2.34375V1.34375H262.873V2.34375H263.873ZM286.607 37.0898H285.607V45H286.607H287.607V37.0898H286.607ZM286.607 45V44H263.873V45V46H286.607V45ZM263.873 45H264.873V37.0898H263.873H262.873V45H263.873ZM263.873 37.0898V38.0898H286.607V37.0898V36.0898H263.873V37.0898ZM267.535 2.34375H266.535V45H267.535H268.535V2.34375H267.535ZM267.535 45V44H257.252V45V46H267.535V45ZM257.252 45H258.252V2.34375H257.252H256.252V45H257.252ZM257.252 2.34375V3.34375H267.535V2.34375V1.34375H257.252V2.34375ZM283.678 19.2773H282.678V26.9238H283.678H284.678V19.2773H283.678ZM283.678 26.9238V25.9238H263.873V26.9238V27.9238H283.678V26.9238ZM263.873 26.9238H264.873V19.2773H263.873H262.873V26.9238H263.873ZM263.873 19.2773V20.2773H283.678V19.2773V18.2773H263.873V19.2773ZM286.695 2.34375H285.695V10.2832H286.695H287.695V2.34375H286.695ZM286.695 10.2832V9.2832H263.873V10.2832V11.2832H286.695V10.2832ZM263.873 10.2832H264.873V2.34375H263.873H262.873V10.2832H263.873ZM263.873 2.34375V3.34375H286.695V2.34375V1.34375H263.873V2.34375ZM290.826 2.34375V1.34375H289.826V2.34375H290.826ZM316.168 3.80859L315.794 4.73604L316.168 3.80859ZM321.764 8.14453L320.938 8.70893L320.942 8.71461L321.764 8.14453ZM319.42 25.4297L320.036 26.2172L320.038 26.216L319.42 25.4297ZM314.703 28.0371L314.348 27.1025L314.277 27.1293L314.211 27.1665L314.703 28.0371ZM311.334 29.9414V30.9414H311.597L311.826 30.812L311.334 29.9414ZM297.242 29.9414L296.242 29.9488L296.25 30.9414H297.242V29.9414ZM297.184 22.002V21.002H296.176L296.184 22.0093L297.184 22.002ZM312.799 19.3066L311.908 18.8515L311.904 18.8594L312.799 19.3066ZM310.807 10.9863L310.328 11.8643L310.336 11.8687L310.807 10.9863ZM301.109 10.2832V9.2832H300.109V10.2832H301.109ZM301.109 45V46H302.109V45H301.109ZM290.826 45H289.826V46H290.826V45ZM314.176 45L313.281 45.4472L313.558 46H314.176V45ZM304.742 26.1328L304.737 25.1328L303.128 25.1415L303.848 26.58L304.742 26.1328ZM315.641 26.0742L316.529 25.6152L316.248 25.0709L315.635 25.0742L315.641 26.0742ZM325.191 44.5605H326.191V44.3175L326.08 44.1015L325.191 44.5605ZM325.191 45V46H326.191V45H325.191ZM290.826 2.34375V3.34375H307.613V2.34375V1.34375H290.826V2.34375ZM307.613 2.34375V3.34375C310.798 3.34375 313.517 3.81796 315.794 4.73604L316.168 3.80859L316.542 2.88115C313.975 1.8461 310.991 1.34375 307.613 1.34375V2.34375ZM316.168 3.80859L315.794 4.73604C318.057 5.64843 319.755 6.97783 320.938 8.70891L321.764 8.14453L322.589 7.58015C321.155 5.48311 319.123 3.92188 316.542 2.88115L316.168 3.80859ZM321.764 8.14453L320.942 8.71461C322.132 10.4291 322.756 12.5827 322.756 15.2344H323.756H324.756C324.756 12.2611 324.052 9.68806 322.585 7.57445L321.764 8.14453ZM323.756 15.2344H322.756C322.756 17.5785 322.389 19.4653 321.706 20.9363L322.613 21.3574L323.52 21.7785C324.361 19.9683 324.756 17.7731 324.756 15.2344H323.756ZM322.613 21.3574L321.706 20.9363C321.008 22.4401 320.04 23.6704 318.802 24.6434L319.42 25.4297L320.038 26.216C321.534 25.0405 322.695 23.556 323.52 21.7785L322.613 21.3574ZM319.42 25.4297L318.804 24.6422C317.544 25.6279 316.062 26.4502 314.348 27.1025L314.703 28.0371L315.059 28.9718C316.938 28.2568 318.6 27.3408 320.036 26.2172L319.42 25.4297ZM314.703 28.0371L314.211 27.1665L310.842 29.0708L311.334 29.9414L311.826 30.812L315.195 28.9077L314.703 28.0371ZM311.334 29.9414V28.9414H297.242V29.9414V30.9414H311.334V29.9414ZM297.242 29.9414L298.242 29.934L298.184 21.9946L297.184 22.002L296.184 22.0093L296.242 29.9488L297.242 29.9414ZM297.184 22.002V23.002H307.613V22.002V21.002H297.184V22.002ZM307.613 22.002V23.002C309.035 23.002 310.297 22.7481 311.344 22.1767L310.865 21.2988L310.386 20.4209C309.715 20.7871 308.809 21.002 307.613 21.002V22.002ZM310.865 21.2988L311.344 22.1767C312.379 21.6122 313.17 20.7995 313.693 19.7539L312.799 19.3066L311.904 18.8594C311.568 19.5325 311.07 20.048 310.386 20.4209L310.865 21.2988ZM312.799 19.3066L313.689 19.7618C314.225 18.7135 314.473 17.5057 314.473 16.1719H313.473H312.473C312.473 17.2599 312.271 18.1419 311.908 18.8515L312.799 19.3066ZM313.473 16.1719H314.473C314.473 14.8214 314.226 13.603 313.689 12.5527L312.799 13.0078L311.908 13.4629C312.27 14.1704 312.473 15.0614 312.473 16.1719H313.473ZM312.799 13.0078L313.689 12.5527C313.146 11.4901 312.335 10.668 311.277 10.104L310.807 10.9863L310.336 11.8687C311.036 12.2422 311.553 12.7678 311.908 13.4629L312.799 13.0078ZM310.807 10.9863L311.285 10.1084C310.242 9.53926 309.002 9.2832 307.613 9.2832V10.2832V11.2832C308.764 11.2832 309.653 11.4959 310.328 11.8642L310.807 10.9863ZM307.613 10.2832V9.2832H301.109V10.2832V11.2832H307.613V10.2832ZM301.109 10.2832H300.109V45H301.109H302.109V10.2832H301.109ZM301.109 45V44H290.826V45V46H301.109V45ZM290.826 45H291.826V2.34375H290.826H289.826V45H290.826ZM314.176 45L315.07 44.5528L305.637 25.6856L304.742 26.1328L303.848 26.58L313.281 45.4472L314.176 45ZM304.742 26.1328L304.748 27.1328L315.646 27.0742L315.641 26.0742L315.635 25.0742L304.737 25.1328L304.742 26.1328ZM315.641 26.0742L314.752 26.5332L324.303 45.0195L325.191 44.5605L326.08 44.1015L316.529 25.6152L315.641 26.0742ZM325.191 44.5605H324.191V45H325.191H326.191V44.5605H325.191ZM325.191 45V44H314.176V45V46H325.191V45ZM351.646 31.875L350.705 32.2114L350.709 32.2223L351.646 31.875ZM348.277 28.9453L347.83 29.8397L347.841 29.8451L347.852 29.8501L348.277 28.9453ZM344.41 27.4219L344.094 28.3706L344.097 28.3717L344.41 27.4219ZM338.99 25.3125L338.572 26.2208L338.58 26.2246L338.99 25.3125ZM334.332 22.5293L333.714 23.3156L333.721 23.3211L334.332 22.5293ZM331.08 18.7793L330.205 19.2639L330.208 19.269L331.08 18.7793ZM331.109 8.78906L331.982 9.27767L331.985 9.27275L331.109 8.78906ZM334.537 5.00977L335.114 5.82644L335.116 5.82495L334.537 5.00977ZM339.752 2.60742L340.017 3.57179L340.025 3.5693L339.752 2.60742ZM354.547 3.39844L354.13 4.30731L354.139 4.31133L354.547 3.39844ZM360.172 7.99805L359.344 8.55839L359.35 8.56768L360.172 7.99805ZM362.223 15V16H363.223V15H362.223ZM351.998 15H350.998V16H351.998V15ZM351.324 12.1582L350.438 12.6222L350.443 12.6304L350.447 12.6385L351.324 12.1582ZM340.807 11.6895L341.627 12.2613L341.635 12.2498L340.807 11.6895ZM340.66 15.5859L339.828 16.1406L339.84 16.1586L339.853 16.176L340.66 15.5859ZM342.213 17.0215L341.653 17.8498L341.664 17.8572L342.213 17.0215ZM344.674 18.3105L344.28 19.2297L344.287 19.2325L344.674 18.3105ZM347.955 19.5117L347.648 20.4634L347.651 20.4644L347.955 19.5117ZM353.99 21.9434L353.535 22.8339L353.547 22.8397L353.99 21.9434ZM358.473 24.9609L357.789 25.6912L357.796 25.6969L357.802 25.7025L358.473 24.9609ZM361.256 28.7695L360.34 29.171L360.345 29.1815L361.256 28.7695ZM357.916 42.4805L358.507 43.2873L358.514 43.2818L357.916 42.4805ZM339.986 44.7656L339.727 45.7315L339.738 45.7342L339.986 44.7656ZM334.244 42.1875L333.681 43.0138L333.687 43.0181L334.244 42.1875ZM330.113 37.7051L329.238 38.1892L329.244 38.2002L330.113 37.7051ZM328.59 31.1719V30.1719H327.59V31.1719H328.59ZM338.902 31.1719H339.902V30.1719H338.902V31.1719ZM340.865 36.416L340.232 37.19L340.239 37.1958L340.246 37.2015L340.865 36.416ZM343.238 37.5293L342.996 38.4994L343.005 38.5018L343.015 38.504L343.238 37.5293ZM349.625 37.2949L350.045 38.2022L350.054 38.1981L350.063 38.1937L349.625 37.2949ZM351.383 35.7715L352.243 36.2821L352.249 36.2705L351.383 35.7715ZM351.939 33.6621H352.939C352.939 32.9005 352.827 32.1843 352.584 31.5277L351.646 31.875L350.709 32.2223C350.856 32.6204 350.939 33.0956 350.939 33.6621H351.939ZM351.646 31.875L352.588 31.5387C352.326 30.803 351.853 30.1607 351.227 29.6042L350.562 30.3516L349.898 31.099C350.327 31.48 350.577 31.8532 350.705 32.2113L351.646 31.875ZM350.562 30.3516L351.227 29.6042C350.6 29.0466 349.743 28.5299 348.703 28.0405L348.277 28.9453L347.852 29.8501C348.804 30.2982 349.471 30.719 349.898 31.099L350.562 30.3516ZM348.277 28.9453L348.725 28.0509C347.688 27.5326 346.349 27.0073 344.723 26.472L344.41 27.4219L344.097 28.3717C345.675 28.8911 346.914 29.3815 347.83 29.8397L348.277 28.9453ZM344.41 27.4219L344.726 26.4732C342.882 25.8584 341.107 25.1674 339.4 24.4004L338.99 25.3125L338.58 26.2246C340.35 27.0201 342.188 27.7353 344.094 28.3706L344.41 27.4219ZM338.99 25.3125L339.409 24.4042C337.731 23.6316 336.244 22.7416 334.943 21.7375L334.332 22.5293L333.721 23.3211C335.154 24.4263 336.773 25.3919 338.572 26.2208L338.99 25.3125ZM334.332 22.5293L334.95 21.743C333.679 20.7448 332.684 19.5936 331.952 18.2896L331.08 18.7793L330.208 19.269C331.077 20.8165 332.25 22.1654 333.714 23.3156L334.332 22.5293ZM331.08 18.7793L331.955 18.2947C331.248 17.0197 330.879 15.5118 330.879 13.7402H329.879H328.879C328.879 15.7968 329.31 17.6483 330.205 19.2639L331.08 18.7793ZM329.879 13.7402H330.879C330.879 12.059 331.253 10.5795 331.982 9.27767L331.109 8.78906L330.237 8.30046C329.325 9.92829 328.879 11.7496 328.879 13.7402H329.879ZM331.109 8.78906L331.985 9.27275C332.728 7.92802 333.765 6.77965 335.114 5.82643L334.537 5.00977L333.96 4.1931C332.379 5.3102 331.132 6.68136 330.234 8.30538L331.109 8.78906ZM334.537 5.00977L335.116 5.82495C336.493 4.84644 338.122 4.09179 340.017 3.57175L339.752 2.60742L339.487 1.6431C337.397 2.2168 335.549 3.06372 333.958 4.19458L334.537 5.00977ZM339.752 2.60742L340.025 3.5693C341.917 3.03146 344.002 2.75781 346.285 2.75781V1.75781V0.757812C343.842 0.757812 341.571 1.05058 339.478 1.64554L339.752 2.60742ZM346.285 1.75781V2.75781C349.293 2.75781 351.9 3.284 354.13 4.30727L354.547 3.39844L354.964 2.48961C352.428 1.32537 349.527 0.757812 346.285 0.757812V1.75781ZM354.547 3.39844L354.139 4.31133C356.387 5.31688 358.11 6.73493 359.344 8.55836L360.172 7.99805L361 7.43774C359.538 5.27678 357.511 3.62843 354.955 2.48555L354.547 3.39844ZM360.172 7.99805L359.35 8.56768C360.587 10.3528 361.223 12.4822 361.223 15H362.223H363.223C363.223 12.1271 362.491 9.58858 360.994 7.42841L360.172 7.99805ZM362.223 15V14H351.998V15V16H362.223V15ZM351.998 15H352.998C352.998 13.7831 352.742 12.6661 352.201 11.6779L351.324 12.1582L350.447 12.6385C350.804 13.291 350.998 14.0685 350.998 15H351.998ZM351.324 12.1582L352.21 11.6942C351.68 10.6822 350.874 9.89805 349.832 9.34226L349.361 10.2246L348.891 11.107C349.606 11.4887 350.109 11.9935 350.438 12.6222L351.324 12.1582ZM349.361 10.2246L349.832 9.34226C348.768 8.77483 347.49 8.52148 346.051 8.52148V9.52148V10.5215C347.267 10.5215 348.197 10.7369 348.891 11.107L349.361 10.2246ZM346.051 9.52148V8.52148C344.667 8.52148 343.435 8.73033 342.393 9.19361L342.799 10.1074L343.205 11.0212C343.92 10.7033 344.857 10.5215 346.051 10.5215V9.52148ZM342.799 10.1074L342.393 9.19361C341.377 9.64495 340.552 10.2816 339.978 11.1291L340.807 11.6895L341.635 12.2498C341.96 11.7692 342.463 11.3511 343.205 11.0212L342.799 10.1074ZM340.807 11.6895L339.986 11.1177C339.421 11.9289 339.133 12.8412 339.133 13.8281H340.133H341.133C341.133 13.2526 341.294 12.739 341.627 12.2612L340.807 11.6895ZM340.133 13.8281H339.133C339.133 14.6665 339.365 15.4461 339.828 16.1406L340.66 15.5859L341.492 15.0312C341.252 14.6711 341.133 14.2788 341.133 13.8281H340.133ZM340.66 15.5859L339.853 16.176C340.308 16.7984 340.918 17.3529 341.653 17.8498L342.213 17.0215L342.773 16.1932C342.18 15.7917 341.755 15.3891 341.468 14.9959L340.66 15.5859ZM342.213 17.0215L341.664 17.8572C342.408 18.3461 343.283 18.8023 344.28 19.2297L344.674 18.3105L345.068 17.3914C344.151 16.9985 343.385 16.5953 342.762 16.1858L342.213 17.0215ZM344.674 18.3105L344.287 19.2325C345.294 19.6557 346.415 20.0657 347.648 20.4634L347.955 19.5117L348.262 18.56C347.073 18.1765 346.007 17.7857 345.061 17.3886L344.674 18.3105ZM347.955 19.5117L347.651 20.4644C349.875 21.1737 351.835 21.9646 353.535 22.8338L353.99 21.9434L354.445 21.0529C352.63 20.1252 350.566 19.295 348.259 18.559L347.955 19.5117ZM353.99 21.9434L353.547 22.8397C355.253 23.6835 356.662 24.6368 357.789 25.6912L358.473 24.9609L359.156 24.2307C357.861 23.0195 356.282 21.961 354.434 21.047L353.99 21.9434ZM358.473 24.9609L357.802 25.7025C358.934 26.7273 359.775 27.883 360.34 29.171L361.256 28.7695L362.172 28.3681C361.486 26.8045 360.472 25.4211 359.144 24.2194L358.473 24.9609ZM361.256 28.7695L360.345 29.1815C360.923 30.4599 361.223 31.9277 361.223 33.6035H362.223H363.223C363.223 31.6856 362.878 29.9307 362.167 28.3576L361.256 28.7695ZM362.223 33.6035H361.223C361.223 35.3862 360.878 36.9283 360.215 38.254L361.109 38.7012L362.004 39.1484C362.825 37.5053 363.223 35.649 363.223 33.6035H362.223ZM361.109 38.7012L360.215 38.254C359.546 39.5928 358.585 40.7332 357.318 41.6791L357.916 42.4805L358.514 43.2818C360.02 42.1575 361.189 40.7783 362.004 39.1484L361.109 38.7012ZM357.916 42.4805L357.325 41.6737C356.052 42.6061 354.507 43.3297 352.672 43.8302L352.936 44.7949L353.199 45.7597C355.231 45.2054 357.007 44.3861 358.507 43.2872L357.916 42.4805ZM352.936 44.7949L352.672 43.8302C350.839 44.3302 348.771 44.5859 346.461 44.5859V45.5859V46.5859C348.916 46.5859 351.165 46.3143 353.199 45.7597L352.936 44.7949ZM346.461 45.5859V44.5859C344.358 44.5859 342.283 44.3232 340.235 43.7971L339.986 44.7656L339.738 45.7342C341.947 46.3018 344.189 46.5859 346.461 46.5859V45.5859ZM339.986 44.7656L340.246 43.7998C338.236 43.2603 336.424 42.4449 334.801 41.3569L334.244 42.1875L333.687 43.0181C335.502 44.2348 337.518 45.1382 339.727 45.7314L339.986 44.7656ZM334.244 42.1875L334.807 41.3613C333.215 40.2755 331.942 38.8949 330.982 37.2099L330.113 37.7051L329.244 38.2002C330.355 40.1481 331.836 41.7557 333.681 43.0137L334.244 42.1875ZM330.113 37.7051L330.988 37.221C330.07 35.5603 329.59 33.556 329.59 31.1719H328.59H327.59C327.59 33.8268 328.126 36.1779 329.238 38.1891L330.113 37.7051ZM328.59 31.1719V32.1719H338.902V31.1719V30.1719H328.59V31.1719ZM338.902 31.1719H337.902C337.902 32.504 338.078 33.689 338.468 34.6963L339.4 34.3359L340.333 33.9755C340.058 33.2641 339.902 32.3398 339.902 31.1719H338.902ZM339.4 34.3359L338.468 34.6963C338.855 35.6996 339.44 36.5417 340.232 37.19L340.865 36.416L341.498 35.6421C341.002 35.2357 340.61 34.691 340.333 33.9755L339.4 34.3359ZM340.865 36.416L340.246 37.2015C341.02 37.8109 341.945 38.2368 342.996 38.4994L343.238 37.5293L343.481 36.5592C342.656 36.353 342 36.0367 341.484 35.6305L340.865 36.416ZM343.238 37.5293L343.015 38.504C344.042 38.7393 345.193 38.8516 346.461 38.8516V37.8516V36.8516C345.307 36.8516 344.31 36.749 343.462 36.5546L343.238 37.5293ZM346.461 37.8516V38.8516C347.851 38.8516 349.065 38.6566 350.045 38.2022L349.625 37.2949L349.205 36.3876C348.583 36.6755 347.688 36.8516 346.461 36.8516V37.8516ZM349.625 37.2949L350.063 38.1937C351 37.737 351.752 37.1092 352.243 36.282L351.383 35.7715L350.523 35.2609C350.272 35.6838 349.852 36.0716 349.187 36.3962L349.625 37.2949ZM351.383 35.7715L352.249 36.2705C352.71 35.4703 352.939 34.5945 352.939 33.6621H351.939H350.939C350.939 34.2531 350.798 34.7836 350.516 35.2725L351.383 35.7715Z" fill="#DD6408" fill-opacity="0.53" mask="url(#path-1-outside-1_89_86)" />
                    </g>
                    <defs>
                        <filter id="filter0_n_89_86" x="0.0507812" y="0.757812" width="363.172" height="45.8281" filterUnits="userSpaceOnUse" color-interpolation-filters="sRGB">
                            <feFlood flood-opacity="0" result="BackgroundImageFix" />
                            <feBlend mode="normal" in="SourceGraphic" in2="BackgroundImageFix" result="shape" />
                            <feTurbulence type="fractalNoise" baseFrequency="0.019999999552965164 0.019999999552965164" stitchTiles="stitch" numOctaves="3" result="noise" seed="4812" />
                            <feColorMatrix in="noise" type="luminanceToAlpha" result="alphaNoise" />
                            <feComponentTransfer in="alphaNoise" result="coloredNoise1">
                                <feFuncA type="discrete" tableValues="0 0 0 0 0 0 0 0 0 0 0 0 1 1 1 1 1 1 1 1 1 1 1 1 1 1 1 1 1 1 1 1 1 1 1 1 1 1 0 0 0 0 0 0 0 0 0 0 0 0 0 0 0 0 0 0 0 0 0 0 0 0 0 0 0 0 0 0 0 0 0 0 0 0 0 0 0 0 0 0 0 0 0 0 0 0 0 0 0 0 0 0 0 0 0 0 0 0 0 0 " />
                            </feComponentTransfer>
                            <feComposite operator="in" in2="shape" in="coloredNoise1" result="noise1Clipped" />
                            <feComponentTransfer in="alphaNoise" result="coloredNoise2">
                                <feFuncA type="discrete" tableValues="0 0 0 0 0 0 0 0 0 0 0 0 0 0 0 0 0 0 0 0 0 0 0 0 0 0 0 0 0 0 0 0 0 0 0 0 0 0 0 0 0 0 0 0 0 0 0 0 0 0 0 0 0 0 0 0 0 0 0 0 0 0 1 1 1 1 1 1 1 1 1 1 1 1 1 1 1 1 1 1 1 1 1 1 1 1 1 1 0 0 0 0 0 0 0 0 0 0 0 0 " />
                            </feComponentTransfer>
                            <feComposite operator="in" in2="shape" in="coloredNoise2" result="noise2Clipped" />
                            <feFlood flood-color="rgba(0, 0, 0, 0.25)" result="color1Flood" />
                            <feComposite operator="in" in2="noise1Clipped" in="color1Flood" result="color1" />
                            <feFlood flood-color="rgba(255, 255, 255, 0.25)" result="color2Flood" />
                            <feComposite operator="in" in2="noise2Clipped" in="color2Flood" result="color2" />
                            <feMerge result="effect1_noise_89_86">
                                <feMergeNode in="shape" />
                                <feMergeNode in="color1" />
                                <feMergeNode in="color2" />
                            </feMerge>
                        </filter>
                    </defs>
                </svg>