<svg width="65" height="27" viewBox="0 0 65 27" fill="none" xmlns="http://www.w3.org/2000/svg">
<path d="M6.84801 1.27273V26H0.871449V1.27273H6.84801ZM15.02 26V1.27273H25.2345C27.0858 1.27273 28.6836 1.60677 30.0278 2.27486C31.3801 2.9349 32.4224 3.88471 33.1549 5.12429C33.8874 6.35582 34.2536 7.81676 34.2536 9.5071C34.2536 11.2216 33.8793 12.6785 33.1308 13.8778C32.3822 15.0691 31.3197 15.9787 29.9433 16.6065C28.5668 17.2263 26.9369 17.5362 25.0533 17.5362H18.5938V12.8274H23.9425C24.8441 12.8274 25.5967 12.7107 26.2004 12.4773C26.8121 12.2358 27.2749 11.8736 27.5889 11.3906C27.9028 10.8996 28.0597 10.2718 28.0597 9.5071C28.0597 8.74242 27.9028 8.11056 27.5889 7.61151C27.2749 7.1044 26.8121 6.72609 26.2004 6.47656C25.5886 6.21899 24.836 6.0902 23.9425 6.0902H20.9965V26H15.02ZM28.9411 14.6989L35.0988 26H28.5789L22.542 14.6989H28.9411ZM64.397 10.2315H58.3601C58.2796 9.61174 58.1146 9.05232 57.865 8.55327C57.6155 8.05421 57.2855 7.6276 56.875 7.27344C56.4645 6.91927 55.9775 6.64962 55.414 6.46449C54.8586 6.27131 54.2429 6.17471 53.5667 6.17471C52.3674 6.17471 51.3331 6.46851 50.4638 7.05611C49.6025 7.6437 48.9384 8.4929 48.4716 9.60369C48.0128 10.7145 47.7834 12.0587 47.7834 13.6364C47.7834 15.2784 48.0168 16.6548 48.4836 17.7656C48.9585 18.8684 49.6226 19.7015 50.4758 20.2649C51.3371 20.8203 52.3553 21.098 53.5305 21.098C54.1906 21.098 54.7902 21.0135 55.3295 20.8445C55.8769 20.6754 56.3558 20.4299 56.7663 20.108C57.1849 19.7779 57.527 19.3795 57.7926 18.9126C58.0663 18.4377 58.2554 17.9025 58.3601 17.3068L64.397 17.343C64.2924 18.4377 63.9744 19.5163 63.4432 20.5788C62.92 21.6413 62.1996 22.6113 61.2819 23.4886C60.3643 24.358 59.2455 25.0502 57.9254 25.5653C56.6134 26.0805 55.1082 26.3381 53.4098 26.3381C51.1721 26.3381 49.1678 25.8471 47.397 24.8651C45.6342 23.875 44.2417 22.4342 43.2194 20.5426C42.1972 18.651 41.6861 16.349 41.6861 13.6364C41.6861 10.9157 42.2052 8.60961 43.2436 6.71804C44.2819 4.82647 45.6865 3.38968 47.4574 2.40767C49.2282 1.42566 51.2123 0.934658 53.4098 0.934658C54.9069 0.934658 56.2914 1.14394 57.5632 1.5625C58.835 1.97301 59.9538 2.5767 60.9197 3.37358C61.8856 4.1624 62.6704 5.13234 63.2741 6.28338C63.8778 7.43442 64.2521 8.75047 64.397 10.2315Z" fill="black"/>
</svg>
